Chapakala19.glyphspackage
{
glyphname = numbersign;
layers = (
{
layerId = m01;
shapes = (
{
closed = 1;
nodes = (
(94,0,l),
(149,0,l),
(195,219,l),
(376,219,l),
(331,0,l),
(388,0,l),
(437,220,l),
(609,220,l),
(609,277,l),
(445,277,l),
(490,493,l),
(609,493,l),
(609,549,l),
(501,549,l),
(548,768,l),
(490,768,l),
(444,550,l),
(265,550,l),
(310,768,l),
(255,768,l),
(205,549,l),
(32,549,l),
(32,493,l),
(195,493,l),
(151,277,l),
(32,277,l),
(32,220,l),
(138,220,l)
);
},
{
closed = 1;
nodes = (
(252,490,l),
(432,490,l),
(389,279,l),
(208,279,l)
);
}
);
userData = {
assembly = "SVTCA[0]	/* SetFreedomAndProjectionVectorToAxis */
PUSHW[ ]	/* 4 values pushed */
1 1 0 4
CALL[ ]	/* CallFunction */
PUSHW[ ]	/* 1 value pushed */
1
SRP0[ ]	/* SetRefPoint0 */
PUSHW[ ]	/* 1 value pushed */
17
MDRP[10000]	/* MoveDirectRelPt */
PUSHW[ ]	/* 1 value pushed */
0
SRP0[ ]	/* SetRefPoint0 */
PUSHW[ ]	/* 1 value pushed */
19
MDRP[10000]	/* MoveDirectRelPt */
PUSHW[ ]	/* 1 value pushed */
0
SRP0[ ]	/* SetRefPoint0 */
PUSHW[ ]	/* 1 value pushed */
23
MDRP[10000]	/* MoveDirectRelPt */
PUSHW[ ]	/* 1 value pushed */
23
MDAP[1]	/* MoveDirectAbsPt */
PUSHW[ ]	/* 1 value pushed */
1
SRP0[ ]	/* SetRefPoint0 */
PUSHW[ ]	/* 1 value pushed */
28
MDRP[10000]	/* MoveDirectRelPt */
PUSHW[ ]	/* 1 value pushed */
28
MDAP[1]	/* MoveDirectAbsPt */
IUP[0]	/* InterpolateUntPts */
IUP[1]	/* InterpolateUntPts */";
};
width = 616;
}
);
note = numbersign;
unicode = 35;
}
{
glyphname = dollar;
layers = (
{
layerId = m01;
shapes = (
{
closed = 1;
nodes = (
(311,-153,l),
(311,-18,l),
(361,-9,o),
(446,20,o),
(509,70,o),
(545,144,o),
(545,200,qs),
(545,254,o),
(504,330,o),
(438,388,o),
(355,431,o),
(313,450,q),
(313,761,l),
(326,761,o),
(370,756,o),
(413,742,o),
(444,720,o),
(444,703,qs),
(444,701,o),
(441,689,o),
(438,687,q),
(440,690,l),
(438,686,o),
(436,681,o),
(434,678,qs),
(424,663,o),
(406,630,o),
(406,613,qs),
(406,591,o),
(435,561,o),
(458,561,qs),
(492,561,o),
(519,609,o),
(519,640,qs),
(519,679,o),
(479,734,o),
(417,770,o),
(343,790,o),
(311,795,q),
(311,843,l),
(275,843,l),
(275,796,l),
(230,787,o),
(152,755,o),
(93,703,o),
(60,631,o),
(59,583,qs),
(60,536,o),
(96,462,o),
(155,405,o),
(231,362,o),
(271,345,q),
(271,18,l),
(263,18,o),
(214,23,o),
(161,36,o),
(119,57,o),
(119,75,qs),
(119,89,o),
(135,108,o),
(145,116,q),
(155,127,o),
(173,150,o),
(173,169,qs),
(173,196,o),
(143,231,o),
(115,231,qs),
(82,231,o),
(51,183,o),
(51,149,qs),
(51,105,o),
(92,45,o),
(156,6,o),
(236,-14,o),
(275,-18,q),
(275,-153,l)
);
},
{
closed = 1;
nodes = (
(343,319,o),
(405,291,o),
(453,254,o),
(484,202,o),
(484,167,qs),
(484,134,o),
(456,79,o),
(409,38,o),
(347,15,o),
(313,15,q),
(313,328,l)
);
},
{
closed = 1;
nodes = (
(139,703,o),
(184,741,o),
(242,763,o),
(271,763,q),
(271,467,l),
(259,467,o),
(228,480,o),
(221,484,q),
(220,484,l),
(199,495,o),
(160,521,o),
(130,554,o),
(112,595,o),
(112,620,qs),
(112,650,o)
);
}
);
userData = {
assembly = "PUSHW[ ]	/* 4 values pushed */
17 4 28 4
CALL[ ]	/* CallFunction */
PUSHW[ ]	/* 4 values pushed */
73 4 22 4
CALL[ ]	/* CallFunction */
PUSHW[ ]	/* 1 value pushed */
22
SRP0[ ]	/* SetRefPoint0 */
PUSHW[ ]	/* 1 value pushed */
0
MDRP[10000]	/* MoveDirectRelPt */
PUSHW[ ]	/* 1 value pushed */
0
MDAP[1]	/* MoveDirectAbsPt */
PUSHW[ ]	/* 1 value pushed */
28
SRP0[ ]	/* SetRefPoint0 */
PUSHW[ ]	/* 1 value pushed */
5
MDRP[10000]	/* MoveDirectRelPt */
PUSHW[ ]	/* 1 value pushed */
5
MDAP[1]	/* MoveDirectAbsPt */
NPUSHW[ ]	/* 31 values pushed */
6 17 22 17 38 17 54 17 70 17 86 17 102 17 118 17 134 17 150 17 166 17 182 17 198 17 214 17 230 17 15
DELTAP1[ ]	/* DeltaExceptionP1 */
NPUSHW[ ]	/* 3 values pushed */
245 17 1
DELTAP1[ ]	/* DeltaExceptionP1 */
NPUSHW[ ]	/* 3 values pushed */
5 17 1
DELTAP2[ ]	/* DeltaExceptionP2 */
PUSHW[ ]	/* 1 value pushed */
22
SRP0[ ]	/* SetRefPoint0 */
PUSHW[ ]	/* 1 value pushed */
33
MDRP[10000]	/* MoveDirectRelPt */
PUSHW[ ]	/* 1 value pushed */
33
MDAP[1]	/* MoveDirectAbsPt */
PUSHW[ ]	/* 1 value pushed */
73
SRP0[ ]	/* SetRefPoint0 */
PUSHW[ ]	/* 1 value pushed */
35
MDRP[10000]	/* MoveDirectRelPt */
PUSHW[ ]	/* 1 value pushed */
73
SRP0[ ]	/* SetRefPoint0 */
PUSHW[ ]	/* 1 value pushed */
62
MDRP[10000]	/* MoveDirectRelPt */
PUSHW[ ]	/* 1 value pushed */
62
MDAP[1]	/* MoveDirectAbsPt */
PUSHW[ ]	/* 1 value pushed */
73
SRP0[ ]	/* SetRefPoint0 */
PUSHW[ ]	/* 1 value pushed */
76
MDRP[10000]	/* MoveDirectRelPt */
PUSHW[ ]	/* 1 value pushed */
76
MDAP[1]	/* MoveDirectAbsPt */
PUSHW[ ]	/* 1 value pushed */
17
SRP0[ ]	/* SetRefPoint0 */
PUSHW[ ]	/* 1 value pushed */
87
MDRP[10000]	/* MoveDirectRelPt */
PUSHW[ ]	/* 1 value pushed */
87
MDAP[1]	/* MoveDirectAbsPt */
PUSHW[ ]	/* 1 value pushed */
22
SRP0[ ]	/* SetRefPoint0 */
PUSHW[ ]	/* 1 value pushed */
96
MDRP[10000]	/* MoveDirectRelPt */
IUP[0]	/* InterpolateUntPts */
IUP[1]	/* InterpolateUntPts */";
};
width = 615;
}
);
note = dollar;
unicode = 36;
}
{
glyphname = percent;
layers = (
{
layerId = m01;
shapes = (
{
closed = 1;
nodes = (
(564,-4,o),
(618,-4,qs),
(670,-4,o),
(763,52,o),
(833,139,o),
(875,244,o),
(875,293,qs),
(875,339,o),
(827,399,o),
(771,399,qs),
(720,399,o),
(628,343,o),
(559,255,o),
(518,149,o),
(518,101,qs),
(518,57,o)
);
},
{
closed = 1;
nodes = (
(458,690,o),
(494,682,o),
(515,682,qs),
(525,682,o),
(545,685,o),
(569,694,o),
(601,709,o),
(623,723,q),
(232,-17,l),
(269,-17,l),
(701,785,l),
(663,785,l),
(654,770,o),
(621,740,o),
(581,716,o),
(537,701,o),
(515,701,qs),
(470,701,o),
(426,727,o),
(412,746,q),
(400,769,o),
(357,795,o),
(320,795,qs),
(268,795,o),
(176,738,o),
(107,650,o),
(66,544,o),
(66,496,qs),
(66,453,o),
(113,391,o),
(167,391,qs),
(222,391,o),
(318,451,o),
(387,544,o),
(427,655,o),
(427,706,q),
(435,701,l)
);
},
{
closed = 1;
nodes = (
(650,285,o),
(695,342,o),
(751,383,o),
(782,383,qs),
(824,383,o),
(853,339,o),
(853,309,qs),
(853,283,o),
(836,218,o),
(808,152,o),
(767,90,o),
(720,41,o),
(667,12,o),
(640,12,qs),
(609,12,o),
(586,54,o),
(586,83,qs),
(586,114,o),
(603,181,o),
(610,202,qs),
(617,223,o)
);
},
{
closed = 1;
nodes = (
(198,680,o),
(244,737,o),
(300,778,o),
(334,778,q),
(339,762,o),
(378,729,o),
(399,717,q),
(400,711,o),
(401,699,o),
(401,694,qs),
(401,656,o),
(364,558,o),
(303,468,o),
(228,408,o),
(189,408,qs),
(157,408,o),
(134,449,o),
(134,478,qs),
(134,509,o),
(151,576,o),
(158,597,qs),
(165,618,o)
);
}
);
userData = {
assembly = "PUSHW[ ]	/* 4 values pushed */
77 5 24 4
CALL[ ]	/* CallFunction */
NPUSHW[ ]	/* 31 values pushed */
6 77 22 77 38 77 54 77 70 77 86 77 102 77 118 77 134 77 150 77 166 77 182 77 198 77 214 77 230 77 15
DELTAP1[ ]	/* DeltaExceptionP1 */
NPUSHW[ ]	/* 3 values pushed */
245 77 1
DELTAP1[ ]	/* DeltaExceptionP1 */
NPUSHW[ ]	/* 3 values pushed */
5 77 1
DELTAP2[ ]	/* DeltaExceptionP2 */
SVTCA[0]	/* SetFreedomAndProjectionVectorToAxis */
PUSHW[ ]	/* 4 values pushed */
5 2 69 4
CALL[ ]	/* CallFunction */
PUSHW[ ]	/* 4 values pushed */
80 2 21 4
CALL[ ]	/* CallFunction */
IUP[0]	/* InterpolateUntPts */
IUP[1]	/* InterpolateUntPts */";
};
width = 927;
}
);
note = percent;
unicode = 37;
}
{
glyphname = ampersand;
layers = (
{
layerId = m01;
shapes = (
{
closed = 1;
nodes = (
(92,90,o),
(155,29,o),
(244,-4,o),
(296,-4,qs),
(362,-4,o),
(470,47,o),
(524,87,q),
(563,51,o),
(651,-4,o),
(702,-4,qs),
(743,-4,o),
(802,31,o),
(839,89,o),
(857,160,o),
(857,197,q),
(831,197,l),
(828,178,o),
(816,136,o),
(796,101,o),
(764,77,o),
(740,77,qs),
(718,77,o),
(678,92,o),
(642,117,o),
(610,148,o),
(596,163,q),
(601,168,o),
(618,193,o),
(637,221,o),
(653,247,o),
(655,252,qs),
(657,255,o),
(668,275,o),
(682,301,o),
(697,329,o),
(703,342,qs),
(717,368,o),
(741,406,o),
(773,432,o),
(818,445,o),
(850,447,q),
(850,473,l),
(550,473,l),
(550,447,l),
(569,446,o),
(609,441,o),
(641,425,o),
(662,396,o),
(662,371,qs),
(662,347,o),
(646,296,o),
(619,248,o),
(587,207,o),
(570,191,q),
(543,218,o),
(500,277,o),
(480,306,qs),
(476,312,ls),
(475,313,o),
(451,353,o),
(417,409,o),
(383,470,o),
(370,493,q),
(406,510,o),
(476,552,o),
(532,605,o),
(567,671,o),
(567,713,qs),
(567,748,o),
(541,803,o),
(496,840,o),
(435,859,o),
(401,859,qs),
(361,859,o),
(289,831,o),
(236,781,o),
(205,712,o),
(205,671,qs),
(205,624,o),
(237,532,o),
(258,487,q),
(214,462,o),
(139,409,o),
(87,348,o),
(58,274,o),
(58,227,qs),
(58,175,o)
);
},
{
closed = 1;
nodes = (
(172,363,o),
(205,405,o),
(251,437,o),
(276,449,q),
(292,419,ls),
(314,380,o),
(366,294,o),
(418,212,o),
(472,139,o),
(496,114,q),
(463,87,o),
(389,51,o),
(349,51,qs),
(306,51,o),
(234,94,o),
(181,160,o),
(152,242,o),
(152,282,qs),
(152,311,o)
);
},
{
closed = 1;
nodes = (
(304,772,o),
(329,806,o),
(367,827,o),
(393,827,qs),
(418,827,o),
(457,806,o),
(484,772,o),
(498,729,o),
(498,706,qs),
(498,648,o),
(428,569,o),
(355,530,q),
(343,546,o),
(320,596,o),
(302,649,o),
(292,694,o),
(292,706,qs),
(292,728,o)
);
}
);
userData = {
assembly = "PUSHW[ ]	/* 3 values pushed */
70 55 3
CALL[ ]	/* CallFunction */
PUSHW[ ]	/* 1 value pushed */
55
SRP0[ ]	/* SetRefPoint0 */
PUSHW[ ]	/* 1 value pushed */
37
MDRP[10000]	/* MoveDirectRelPt */
PUSHW[ ]	/* 1 value pushed */
37
MDAP[1]	/* MoveDirectAbsPt */
PUSHW[ ]	/* 1 value pushed */
70
SRP0[ ]	/* SetRefPoint0 */
PUSHW[ ]	/* 1 value pushed */
125
MDRP[11100]	/* MoveDirectRelPt */
IUP[0]	/* InterpolateUntPts */
IUP[1]	/* InterpolateUntPts */";
};
width = 908;
}
);
note = ampersand;
unicode = 38;
}
{
glyphname = parenleft;
layers = (
{
layerId = m01;
shapes = (
{
closed = 1;
nodes = (
(82,139,o),
(148,23,o),
(238,-82,o),
(294,-131,q),
(294,-103,l),
(248,-50,o),
(183,50,o),
(141,156,o),
(122,275,o),
(122,346,qs),
(122,398,o),
(132,492,o),
(169,593,o),
(236,711,o),
(294,790,q),
(294,823,l),
(239,772,o),
(148,669,o),
(82,554,o),
(45,424,o),
(45,346,qs),
(45,271,o)
);
}
);
width = 363;
}
);
note = parenleft;
unicode = 40;
}
{
glyphname = comma;
layers = (
{
layerId = m01;
shapes = (
{
closed = 1;
nodes = (
(109,-154,o),
(183,-52,o),
(183,14,qs),
(183,68,o),
(134,118,o),
(100,118,qs),
(71,118,o),
(32,85,o),
(32,54,qs),
(32,30,o),
(58,-8,o),
(87,-8,qs),
(96,-8,o),
(113,-4,o),
(127,-4,o),
(135,-14,o),
(135,-29,qs),
(135,-53,o),
(115,-93,o),
(86,-127,o),
(49,-155,o),
(32,-168,q),
(32,-169,l),
(52,-191,l)
);
}
);
userData = {
assembly = "PUSHW[ ]	/* 4 values pushed */
20 4 6 4
CALL[ ]	/* CallFunction */
NPUSHW[ ]	/* 3 values pushed */
250 6 1
DELTAP1[ ]	/* DeltaExceptionP1 */
NPUSHW[ ]	/* 3 values pushed */
10 6 1
DELTAP2[ ]	/* DeltaExceptionP2 */
NPUSHW[ ]	/* 31 values pushed */
9 6 25 6 41 6 57 6 73 6 89 6 105 6 121 6 137 6 153 6 169 6 185 6 201 6 217 6 233 6 15
DELTAP1[ ]	/* DeltaExceptionP1 */
PUSHW[ ]	/* 1 value pushed */
20
SRP0[ ]	/* SetRefPoint0 */
PUSHW[ ]	/* 1 value pushed */
25
MDRP[11100]	/* MoveDirectRelPt */
SVTCA[0]	/* SetFreedomAndProjectionVectorToAxis */
PUSHW[ ]	/* 1 value pushed */
0
RCVT[ ]	/* ReadCVT */
IF[ ]	/* If */
PUSHW[ ]	/* 1 value pushed */
11
MDAP[1]	/* MoveDirectAbsPt */
ELSE[ ]	/* Else */
PUSHW[ ]	/* 2 values pushed */
11 6
MIAP[0]	/* MoveIndirectAbsPt */
EIF[ ]	/* EndIf */
IUP[0]	/* InterpolateUntPts */
IUP[1]	/* InterpolateUntPts */";
};
width = 209;
}
);
note = comma;
unicode = 44;
}
{
glyphname = slash;
layers = (
{
layerId = m01;
shapes = (
{
closed = 1;
nodes = (
(25,-17,l),
(270,821,l),
(210,821,l),
(-36,-17,l)
);
}
);
width = 234;
}
);
note = slash;
unicode = 47;
}
{
glyphname = two;
layers = (
{
layerId = m01;
shapes = (
{
closed = 1;
nodes = (
(417,492,o),
(357,388,o),
(266,270,o),
(205,209,q),
(200,202,o),
(160,159,o),
(110,104,o),
(59,45,o),
(40,24,q),
(40,0,l),
(540,0,l),
(556,222,l),
(529,222,l),
(528,217,o),
(527,205,o),
(525,199,q),
(522,180,o),
(514,138,o),
(497,104,o),
(468,81,o),
(445,81,qs),
(140,80,l),
(196,147,o),
(299,244,o),
(350,289,qs),
(362,300,o),
(384,320,o),
(396,330,qs),
(425,356,o),
(481,411,o),
(524,472,o),
(549,542,o),
(549,583,qs),
(549,631,o),
(509,707,o),
(442,761,o),
(356,788,o),
(311,788,qs),
(265,788,o),
(178,761,o),
(111,707,o),
(71,631,o),
(71,583,qs),
(71,524,o),
(118,474,o),
(148,472,q),
(175,473,o),
(210,504,o),
(210,531,qs),
(210,548,o),
(200,569,o),
(185,583,o),
(167,591,o),
(159,594,qs),
(144,599,o),
(119,615,o),
(119,634,qs),
(119,665,o),
(156,711,o),
(210,740,o),
(271,755,o),
(296,755,qs),
(368,755,o),
(447,669,o),
(447,599,qs),
(447,574,o)
);
}
);
userData = {
assembly = "PUSHW[ ]	/* 4 values pushed */
54 5 44 4
CALL[ ]	/* CallFunction */
PUSHW[ ]	/* 1 value pushed */
44
SRP0[ ]	/* SetRefPoint0 */
PUSHW[ ]	/* 1 value pushed */
0
MDRP[10000]	/* MoveDirectRelPt */
PUSHW[ ]	/* 1 value pushed */
0
MDAP[1]	/* MoveDirectAbsPt */
PUSHW[ ]	/* 1 value pushed */
54
SRP0[ ]	/* SetRefPoint0 */
PUSHW[ ]	/* 1 value pushed */
67
MDRP[11100]	/* MoveDirectRelPt */
IUP[0]	/* InterpolateUntPts */
IUP[1]	/* InterpolateUntPts */";
};
width = 615;
}
);
note = two;
unicode = 50;
}
{
glyphname = three;
layers = (
{
layerId = m01;
shapes = (
{
closed = 1;
nodes = (
(89,49,o),
(156,5,o),
(239,-16,o),
(282,-16,qs),
(333,-16,o),
(430,9,o),
(504,63,o),
(549,144,o),
(549,200,qs),
(549,252,o),
(505,346,o),
(458,373,qs),
(450,378,o),
(429,386,o),
(419,390,qs),
(409,395,o),
(386,405,o),
(369,414,q),
(401,430,o),
(455,465,o),
(494,509,o),
(516,562,o),
(516,597,qs),
(516,648,o),
(478,719,o),
(414,766,o),
(330,788,o),
(285,788,qs),
(249,788,o),
(176,768,o),
(116,729,o),
(79,669,o),
(79,628,qs),
(79,613,o),
(84,586,o),
(96,563,o),
(118,549,o),
(136,549,qs),
(158,549,o),
(190,570,o),
(190,594,qs),
(190,613,o),
(171,640,o),
(162,650,qs),
(154,660,o),
(140,678,o),
(140,690,q),
(143,708,o),
(178,735,o),
(224,751,o),
(270,759,o),
(283,759,qs),
(325,759,o),
(379,730,o),
(412,683,o),
(424,620,o),
(424,584,qs),
(424,506,o),
(354,423,o),
(276,423,qs),
(264,423,o),
(242,424,o),
(230,424,qs),
(206,424,ls),
(189,425,o),
(189,406,qs),
(189,393,o),
(206,388,o),
(218,388,qs),
(228,388,o),
(249,389,o),
(259,389,qs),
(269,390,o),
(290,390,o),
(300,390,qs),
(344,390,o),
(401,358,o),
(434,307,o),
(447,239,o),
(447,202,qs),
(447,109,o),
(362,12,o),
(265,12,qs),
(247,12,o),
(196,19,o),
(147,39,o),
(112,73,o),
(112,99,qs),
(112,111,o),
(127,127,o),
(139,135,qs),
(152,144,o),
(174,166,o),
(174,187,qs),
(174,217,o),
(143,252,o),
(112,252,qs),
(95,252,o),
(71,236,o),
(56,212,o),
(48,182,o),
(48,166,qs),
(48,118,o)
);
}
);
userData = {
assembly = "PUSHW[ ]	/* 4 values pushed */
14 5 0 4
CALL[ ]	/* CallFunction */
NPUSHW[ ]	/* 31 values pushed */
6 14 22 14 38 14 54 14 70 14 86 14 102 14 118 14 134 14 150 14 166 14 182 14 198 14 214 14 230 14 15
DELTAP1[ ]	/* DeltaExceptionP1 */
NPUSHW[ ]	/* 3 values pushed */
245 14 1
DELTAP1[ ]	/* DeltaExceptionP1 */
NPUSHW[ ]	/* 3 values pushed */
5 14 1
DELTAP2[ ]	/* DeltaExceptionP2 */
SVTCA[0]	/* SetFreedomAndProjectionVectorToAxis */
PUSHW[ ]	/* 4 values pushed */
42 2 30 4
CALL[ ]	/* CallFunction */
PUSHW[ ]	/* 1 value pushed */
30
SRP0[ ]	/* SetRefPoint0 */
PUSHW[ ]	/* 1 value pushed */
27
MDRP[10000]	/* MoveDirectRelPt */
PUSHW[ ]	/* 1 value pushed */
27
MDAP[1]	/* MoveDirectAbsPt */
PUSHW[ ]	/* 1 value pushed */
30
SRP0[ ]	/* SetRefPoint0 */
PUSHW[ ]	/* 1 value pushed */
33
MDRP[10000]	/* MoveDirectRelPt */
PUSHW[ ]	/* 1 value pushed */
33
MDAP[1]	/* MoveDirectAbsPt */
PUSHW[ ]	/* 1 value pushed */
42
SRP0[ ]	/* SetRefPoint0 */
PUSHW[ ]	/* 1 value pushed */
38
MDRP[10000]	/* MoveDirectRelPt */
PUSHW[ ]	/* 1 value pushed */
38
MDAP[1]	/* MoveDirectAbsPt */
PUSHW[ ]	/* 3 values pushed */
84 30 42
SRP1[ ]	/* SetRefPoint1 */
SRP2[ ]	/* SetRefPoint2 */
IP[ ]	/* InterpolatePts */
IUP[0]	/* InterpolateUntPts */
IUP[1]	/* InterpolateUntPts */";
};
width = 615;
}
);
note = three;
unicode = 51;
}
{
glyphname = six;
layers = (
{
layerId = m01;
shapes = (
{
closed = 1;
nodes = (
(59,224,o),
(87,141,o),
(130,69,o),
(191,16,o),
(270,-16,o),
(319,-16,qs),
(374,-16,o),
(468,26,o),
(537,99,o),
(575,195,o),
(575,249,qs),
(575,296,o),
(543,376,o),
(484,436,o),
(405,471,o),
(358,471,qs),
(297,471,o),
(202,407,o),
(156,359,q),
(156,398,o),
(162,487,o),
(179,574,o),
(208,655,o),
(255,717,o),
(321,757,o),
(366,759,qs),
(375,759,o),
(401,756,o),
(424,746,o),
(441,729,o),
(441,714,qs),
(441,704,o),
(434,686,o),
(430,678,q),
(424,670,o),
(418,653,o),
(418,645,qs),
(418,620,o),
(455,588,o),
(479,588,qs),
(508,588,o),
(548,628,o),
(548,657,qs),
(548,693,o),
(512,742,o),
(458,773,o),
(393,788,o),
(364,788,qs),
(282,788,o),
(162,705,o),
(84,577,o),
(46,425,o),
(46,355,qs),
(46,312,o)
);
},
{
closed = 1;
nodes = (
(183,333,o),
(224,391,o),
(286,425,o),
(329,425,qs),
(374,425,o),
(431,389,o),
(462,330,o),
(474,257,o),
(474,220,qs),
(474,183,o),
(459,109,o),
(423,49,o),
(365,12,o),
(321,12,qs),
(278,12,o),
(218,50,o),
(180,112,o),
(163,186,o),
(163,222,qs),
(163,260,o)
);
}
);
width = 616;
}
);
note = six;
unicode = 54;
}
{
glyphname = less;
layers = (
{
layerId = m01;
shapes = (
{
closed = 1;
nodes = (
(667,-8,l),
(667,63,l),
(145,281,l),
(667,498,l),
(667,567,l),
(57,312,l),
(57,247,l)
);
}
);
width = 672;
}
);
note = less;
unicode = 60;
}
{
glyphname = greater;
layers = (
{
layerId = m01;
shapes = (
{
closed = 1;
nodes = (
(57,567,l),
(57,498,l),
(578,281,l),
(57,63,l),
(57,-8,l),
(667,247,l),
(667,312,l)
);
}
);
width = 672;
}
);
note = greater;
unicode = 62;
}
{
glyphname = A;
layers = (
{
layerId = m01;
shapes = (
{
closed = 1;
nodes = (
(274,0,l),
(274,28,l),
(257,28,o),
(215,34,o),
(177,49,o),
(151,78,o),
(151,102,qs),
(151,113,o),
(155,134,o),
(159,147,qs),
(204,265,l),
(539,265,l),
(609,83,l),
(609,80,o),
(610,78,q),
(610,75,o),
(611,72,o),
(611,71,qs),
(611,60,o),
(601,46,o),
(584,37,o),
(565,32,o),
(558,31,qs),
(553,31,o),
(536,30,o),
(527,29,qs),
(519,28,o),
(506,28,o),
(503,28,q),
(503,0,l),
(812,0,l),
(812,28,l),
(780,28,o),
(732,52,o),
(718,83,q),
(424,828,l),
(394,828,l),
(114,130,ls),
(96,86,o),
(39,36,o),
(-7,28,q),
(-7,0,l)
);
},
{
closed = 1;
nodes = (
(525,306,l),
(223,306,l),
(373,683,l)
);
}
);
userData = {
assembly = "SVTCA[0]	/* SetFreedomAndProjectionVectorToAxis */
PUSHW[ ]	/* 4 values pushed */
43 1 29 4
CALL[ ]	/* CallFunction */
IUP[0]	/* InterpolateUntPts */
IUP[1]	/* InterpolateUntPts */";
};
width = 804;
}
);
note = A;
unicode = 65;
}
{
glyphname = F;
layers = (
{
layerId = m01;
shapes = (
{
closed = 1;
nodes = (
(34,0,l),
(413,0,l),
(413,30,l),
(310,30,ls),
(293,30,o),
(268,63,o),
(268,78,qs),
(268,400,l),
(363,400,ls),
(396,400,o),
(439,368,o),
(465,320,o),
(478,263,o),
(482,237,q),
(509,237,l),
(509,590,l),
(482,590,l),
(478,546,o),
(456,486,o),
(415,450,o),
(354,433,o),
(310,433,qs),
(268,433,l),
(268,743,ls),
(268,758,o),
(293,780,o),
(307,780,qs),
(460,780,ls),
(523,780,o),
(610,711,o),
(635,658,qs),
(638,650,o),
(647,625,o),
(654,594,o),
(661,565,o),
(664,553,qs),
(669,533,o),
(665,533,qs),
(696,533,l),
(683,804,l),
(34,804,l),
(34,780,l),
(114,780,ls),
(118,780,o),
(133,774,o),
(148,766,o),
(158,753,o),
(158,746,qs),
(158,62,ls),
(158,52,o),
(135,30,o),
(127,30,qs),
(34,30,l)
);
}
);
width = 740;
}
);
note = F;
unicode = 70;
}
{
glyphname = G;
layers = (
{
layerId = m01;
shapes = (
{
closed = 1;
nodes = (
(102,166,o),
(197,51,o),
(335,-17,o),
(423,-17,qs),
(494,-17,o),
(611,51,o),
(649,114,q),
(660,107,l),
(698,-17,l),
(726,-17,l),
(726,299,ls),
(726,308,o),
(736,320,o),
(748,328,o),
(760,331,o),
(762,331,qs),
(818,331,l),
(818,357,l),
(500,357,l),
(500,331,l),
(590,331,ls),
(606,331,o),
(622,309,o),
(626,297,q),
(626,241,ls),
(626,191,o),
(603,107,o),
(553,47,o),
(475,14,o),
(421,14,qs),
(342,14,o),
(245,87,o),
(194,200,o),
(177,335,o),
(177,398,qs),
(177,439,o),
(184,529,o),
(203,616,o),
(239,694,o),
(293,754,o),
(372,788,o),
(425,788,qs),
(483,788,o),
(570,737,o),
(633,656,o),
(676,556,o),
(691,509,q),
(718,509,l),
(697,821,l),
(670,821,l),
(618,744,l),
(571,779,o),
(471,821,o),
(415,821,qs),
(356,821,o),
(247,777,o),
(157,702,o),
(89,604,o),
(70,550,qs),
(58,512,o),
(51,438,o),
(51,398,qs),
(51,316,o)
);
}
);
width = 867;
}
);
note = G;
unicode = 71;
}
{
glyphname = H;
layers = (
{
layerId = m01;
shapes = (
{
closed = 1;
nodes = (
(34,0,l),
(368,0,l),
(368,30,l),
(294,30,ls),
(278,30,o),
(254,63,o),
(254,78,qs),
(254,398,l),
(636,398,l),
(636,69,ls),
(636,63,o),
(628,49,o),
(615,38,o),
(600,30,o),
(595,30,qs),
(525,30,l),
(525,0,l),
(857,0,l),
(857,30,l),
(827,30,ls),
(815,30,o),
(795,31,o),
(791,31,q),
(774,34,o),
(746,53,o),
(746,73,qs),
(746,735,ls),
(746,752,o),
(775,780,o),
(803,780,qs),
(857,780,l),
(857,804,l),
(525,804,l),
(525,780,l),
(553,780,ls),
(586,780,o),
(636,760,o),
(636,739,qs),
(636,445,l),
(254,445,l),
(254,723,ls),
(254,743,o),
(269,765,o),
(293,777,o),
(325,780,o),
(341,780,qs),
(372,780,l),
(372,804,l),
(34,804,l),
(34,780,l),
(99,780,ls),
(113,779,o),
(144,759,o),
(144,739,qs),
(144,66,ls),
(144,56,o),
(119,30,o),
(109,30,qs),
(34,30,l)
);
}
);
width = 928;
}
);
note = H;
unicode = 72;
}
{
glyphname = J;
layers = (
{
layerId = m01;
shapes = (
{
closed = 1;
nodes = (
(42,61,o),
(103,10,o),
(181,-16,o),
(223,-16,qs),
(292,-16,o),
(398,37,o),
(435,100,qs),
(456,138,o),
(463,223,o),
(463,264,qs),
(463,734,ls),
(463,755,o),
(494,780,o),
(517,780,qs),
(573,780,l),
(573,804,l),
(221,804,l),
(221,780,l),
(299,780,ls),
(323,780,o),
(356,755,o),
(356,733,qs),
(356,246,ls),
(356,206,o),
(348,126,o),
(316,61,o),
(255,21,o),
(203,21,qs),
(180,21,o),
(129,34,o),
(85,61,o),
(57,102,o),
(57,130,qs),
(57,140,o),
(62,168,o),
(74,168,qs),
(78,168,o),
(82,166,qs),
(97,157,o),
(122,152,o),
(131,152,qs),
(157,152,o),
(190,186,o),
(190,226,qs),
(190,260,o),
(146,308,o),
(110,308,qs),
(83,308,o),
(44,285,o),
(18,248,o),
(5,202,o),
(5,178,qs),
(5,133,o)
);
}
);
width = 616;
}
);
note = J;
unicode = 74;
}
{
glyphname = M;
layers = (
{
layerId = m01;
shapes = (
{
closed = 1;
nodes = (
(327,0,l),
(327,28,l),
(305,30,o),
(259,40,o),
(221,61,o),
(197,95,o),
(197,121,qs),
(197,755,l),
(208,757,l),
(493,0,l),
(524,0,l),
(794,765,l),
(805,763,l),
(805,70,ls),
(805,64,o),
(795,50,o),
(783,38,o),
(768,30,o),
(763,30,qs),
(678,30,l),
(678,0,l),
(1036,0,l),
(1036,30,l),
(956,30,ls),
(945,30,o),
(916,53,o),
(916,67,qs),
(916,742,ls),
(916,751,o),
(926,765,o),
(941,774,o),
(957,780,o),
(963,780,qs),
(1036,780,l),
(1036,804,l),
(769,804,l),
(539,158,l),
(292,804,l),
(34,804,l),
(34,780,l),
(106,780,ls),
(113,780,o),
(131,774,o),
(147,764,o),
(157,749,o),
(157,739,qs),
(157,147,ls),
(157,116,o),
(137,75,o),
(103,47,o),
(59,31,o),
(34,28,q),
(34,0,l)
);
}
);
userData = {
assembly = "PUSHW[ ]	/* 4 values pushed */
45 4 5 4
CALL[ ]	/* CallFunction */
IUP[0]	/* InterpolateUntPts */
IUP[1]	/* InterpolateUntPts */";
};
width = 1055;
}
);
note = M;
unicode = 77;
}
{
glyphname = Q;
layers = (
{
layerId = m01;
shapes = (
{
closed = 1;
nodes = (
(547,-42,o),
(562,-116,o),
(590,-179,o),
(639,-221,o),
(680,-221,qs),
(718,-221,o),
(768,-190,o),
(800,-139,o),
(813,-76,o),
(813,-45,q),
(790,-45,l),
(788,-58,o),
(783,-90,o),
(770,-118,o),
(748,-138,o),
(730,-138,qs),
(708,-138,o),
(677,-103,o),
(669,-82,q),
(633,34,l),
(674,77,o),
(735,159,o),
(776,247,o),
(796,343,o),
(796,400,qs),
(796,484,o),
(746,637,o),
(649,754,o),
(508,823,o),
(419,823,qs),
(335,823,o),
(199,752,o),
(104,636,o),
(51,488,o),
(51,408,qs),
(51,325,o),
(102,172,o),
(197,53,o),
(336,-17,o),
(424,-17,qs),
(452,-17,o),
(507,-11,o),
(531,-4,q),
(531,-5,l),
(533,-4,o),
(536,-4,qs),
(537,-4,o),
(538,-5,o),
(540,-5,q),
(541,-6,o),
(543,-6,q),
(543,-9,ls)
);
},
{
closed = 1;
nodes = (
(311,205,o),
(344,239,o),
(389,257,o),
(415,257,qs),
(453,257,o),
(502,221,o),
(532,166,o),
(544,99,o),
(544,68,qs),
(544,50,o),
(514,29,o),
(473,18,o),
(430,14,o),
(420,14,qs),
(361,14,o),
(293,67,o),
(293,134,qs),
(293,160,o)
);
},
{
closed = 1;
nodes = (
(189,533,o),
(208,618,o),
(241,696,o),
(294,756,o),
(369,790,o),
(420,790,qs),
(499,790,o),
(597,718,o),
(652,606,o),
(671,471,o),
(671,409,qs),
(671,336,o),
(649,191,o),
(612,122,q),
(608,122,o),
(604,124,qs),
(602,125,o),
(601,127,qs),
(597,132,o),
(592,144,o),
(590,149,qs),
(574,179,o),
(546,231,o),
(508,268,o),
(455,289,o),
(416,289,qs),
(372,289,o),
(314,260,o),
(279,209,o),
(264,136,o),
(263,93,q),
(238,118,o),
(206,202,o),
(189,293,o),
(181,380,o),
(181,407,qs),
(181,446,o)
);
}
);
userData = {
assembly = "PUSHW[ ]	/* 4 values pushed */
52 4 75 4
CALL[ ]	/* CallFunction */
NPUSHW[ ]	/* 31 values pushed */
6 52 22 52 38 52 54 52 70 52 86 52 102 52 118 52 134 52 150 52 166 52 182 52 198 52 214 52 230 52 15
DELTAP1[ ]	/* DeltaExceptionP1 */
NPUSHW[ ]	/* 3 values pushed */
245 52 1
DELTAP1[ ]	/* DeltaExceptionP1 */
NPUSHW[ ]	/* 3 values pushed */
5 52 1
DELTAP2[ ]	/* DeltaExceptionP2 */
SVTCA[0]	/* SetFreedomAndProjectionVectorToAxis */
PUSHW[ ]	/* 4 values pushed */
80 2 65 4
CALL[ ]	/* CallFunction */
IUP[0]	/* InterpolateUntPts */
IUP[1]	/* InterpolateUntPts */";
};
width = 866;
}
);
note = Q;
unicode = 81;
}
{
glyphname = R;
layers = (
{
layerId = m01;
shapes = (
{
closed = 1;
nodes = (
(387,397,ls),
(402,397,o),
(439,381,o),
(451,374,qs),
(474,361,o),
(502,318,o),
(519,265,o),
(526,205,o),
(529,175,qs),
(532,138,o),
(543,69,o),
(569,16,o),
(617,-17,o),
(658,-17,qs),
(695,-17,o),
(744,17,o),
(773,69,o),
(786,135,o),
(786,166,q),
(765,166,l),
(763,151,ls),
(761,140,o),
(758,119,o),
(758,115,qs),
(757,108,o),
(749,88,o),
(737,69,o),
(721,56,o),
(711,56,qs),
(693,56,o),
(664,92,o),
(660,108,qs),
(609,284,ls),
(601,311,o),
(569,350,o),
(527,376,o),
(478,395,o),
(453,403,q),
(453,413,l),
(468,415,o),
(497,419,o),
(509,420,qs),
(555,427,o),
(626,450,o),
(674,493,o),
(699,561,o),
(699,611,qs),
(699,650,o),
(669,720,o),
(616,773,o),
(546,805,o),
(507,805,qs),
(34,805,l),
(34,780,l),
(113,780,ls),
(130,780,o),
(162,756,o),
(162,735,qs),
(162,75,ls),
(162,57,o),
(136,30,o),
(114,30,qs),
(34,30,l),
(34,0,l),
(400,0,l),
(400,30,l),
(310,30,ls),
(296,30,o),
(272,52,o),
(272,73,qs),
(272,397,l)
);
},
{
closed = 1;
nodes = (
(428,777,o),
(503,765,o),
(556,729,o),
(585,664,o),
(585,608,qs),
(585,524,o),
(491,434,o),
(409,434,qs),
(272,434,l),
(272,743,ls),
(272,754,o),
(287,766,o),
(308,773,o),
(329,777,o),
(335,777,qs),
(379,777,ls)
);
}
);
width = 803;
}
);
note = R;
unicode = 82;
}
{
glyphname = backslash;
layers = (
{
layerId = m01;
shapes = (
{
closed = 1;
nodes = (
(-36,821,l),
(210,-17,l),
(270,-17,l),
(25,821,l)
);
}
);
width = 234;
}
);
note = backslash;
unicode = 92;
}
{
glyphname = bracketright;
layers = (
{
layerId = m01;
shapes = (
{
closed = 1;
nodes = (
(20,798,l),
(110,798,ls),
(128,798,o),
(151,765,o),
(151,749,qs),
(151,-47,ls),
(151,-53,o),
(146,-70,o),
(136,-86,o),
(124,-96,o),
(117,-96,qs),
(20,-96,l),
(20,-124,l),
(221,-124,l),
(221,821,l),
(20,821,l)
);
}
);
userData = {
assembly = "PUSHW[ ]	/* 4 values pushed */
1 5 9 4
CALL[ ]	/* CallFunction */
IUP[0]	/* InterpolateUntPts */
IUP[1]	/* InterpolateUntPts */";
};
width = 362;
}
);
note = bracketright;
unicode = 93;
}
{
glyphname = h;
layers = (
{
layerId = m01;
shapes = (
{
closed = 1;
nodes = (
(287,0,l),
(287,28,l),
(281,28,ls),
(268,28,o),
(239,29,o),
(213,38,o),
(195,56,o),
(195,73,qs),
(195,316,ls),
(195,346,o),
(221,402,o),
(265,446,o),
(321,474,o),
(351,474,qs),
(373,474,o),
(415,455,o),
(447,423,o),
(467,382,o),
(467,359,qs),
(467,69,ls),
(467,49,o),
(440,30,o),
(418,28,q),
(374,28,l),
(374,0,l),
(647,0,l),
(647,30,l),
(587,30,ls),
(571,30,o),
(549,57,o),
(549,71,qs),
(547,337,ls),
(547,433,o),
(461,532,o),
(387,532,qs),
(358,532,o),
(309,520,o),
(263,493,o),
(218,449,o),
(193,419,q),
(193,825,l),
(7,808,l),
(7,788,l),
(21,787,o),
(58,784,o),
(89,771,o),
(111,747,o),
(111,727,qs),
(111,73,ls),
(111,58,o),
(92,40,o),
(66,30,o),
(36,28,o),
(26,28,qs),
(23,28,l),
(23,0,l)
);
}
);
width = 682;
}
);
note = h;
unicode = 104;
}
{
glyphname = l;
layers = (
{
layerId = m01;
shapes = (
{
closed = 1;
nodes = (
(29,0,l),
(315,0,l),
(315,30,l),
(253,30,ls),
(241,30,o),
(217,53,o),
(217,69,qs),
(217,826,l),
(20,808,l),
(20,783,l),
(71,782,ls),
(92,782,o),
(130,754,o),
(130,737,qs),
(130,72,ls),
(130,51,o),
(110,28,o),
(92,28,qs),
(29,28,l)
);
}
);
width = 345;
}
);
note = l;
unicode = 108;
}
{
glyphname = n;
layers = (
{
layerId = m01;
shapes = (
{
closed = 1;
nodes = (
(34,0,l),
(299,0,l),
(299,28,l),
(259,28,ls),
(237,28,o),
(206,54,o),
(206,78,qs),
(206,312,ls),
(206,343,o),
(232,401,o),
(274,447,o),
(330,476,o),
(361,476,qs),
(390,476,o),
(436,453,o),
(467,414,o),
(484,363,o),
(484,336,qs),
(484,74,ls),
(484,53,o),
(460,28,o),
(438,28,qs),
(391,28,l),
(391,0,l),
(657,0,l),
(657,28,l),
(606,28,ls),
(590,28,o),
(567,56,o),
(567,70,qs),
(567,372,ls),
(567,407,o),
(548,465,o),
(509,508,o),
(447,532,o),
(403,532,qs),
(373,532,o),
(328,519,o),
(290,495,o),
(258,463,o),
(241,445,qs),
(236,439,o),
(216,420,o),
(210,414,q),
(180,528,l),
(25,516,l),
(25,495,l),
(39,494,o),
(71,488,o),
(101,476,o),
(121,452,o),
(121,432,qs),
(121,75,ls),
(121,54,o),
(104,28,o),
(80,28,qs),
(34,28,l)
);
}
);
width = 682;
}
);
note = n;
unicode = 110;
}
{
glyphname = o;
layers = (
{
layerId = m01;
shapes = (
{
closed = 1;
nodes = (
(70,104,o),
(130,28,o),
(219,-17,o),
(277,-17,qs),
(337,-17,o),
(430,27,o),
(492,102,o),
(523,201,o),
(523,258,qs),
(523,314,o),
(492,415,o),
(431,489,o),
(338,532,o),
(277,532,qs),
(218,532,o),
(129,487,o),
(69,412,o),
(39,312,o),
(39,258,qs),
(39,204,o)
);
},
{
closed = 1;
nodes = (
(144,380,o),
(175,454,o),
(233,503,o),
(281,503,qs),
(331,503,o),
(391,456,o),
(421,385,o),
(431,300,o),
(431,263,qs),
(431,226,o),
(421,139,o),
(389,63,o),
(329,12,o),
(279,12,qs),
(232,12,o),
(174,63,o),
(143,138,o),
(133,224,o),
(133,259,qs),
(133,295,o)
);
}
);
width = 555;
}
);
note = o;
unicode = 111;
}
{
glyphname = p;
layers = (
{
layerId = m01;
shapes = (
{
closed = 1;
nodes = (
(25,-218,l),
(290,-218,l),
(290,-194,l),
(240,-194,ls),
(219,-194,o),
(201,-170,o),
(201,-155,qs),
(201,91,l),
(231,42,o),
(319,-17,o),
(366,-17,qs),
(419,-17,o),
(501,30,o),
(556,107,o),
(586,204,o),
(586,252,qs),
(586,299,o),
(561,396,o),
(508,477,o),
(429,528,o),
(375,528,qs),
(347,528,o),
(300,510,o),
(259,479,o),
(220,438,o),
(201,416,q),
(179,528,l),
(25,516,l),
(25,490,l),
(39,489,o),
(70,484,o),
(96,472,o),
(113,448,o),
(113,429,qs),
(113,-151,ls),
(113,-169,o),
(90,-193,o),
(75,-194,qs),
(25,-194,l)
);
},
{
closed = 1;
nodes = (
(213,367,o),
(247,439,o),
(306,487,o),
(351,487,qs),
(396,487,o),
(450,439,o),
(479,368,o),
(488,286,o),
(488,254,qs),
(488,220,o),
(479,140,o),
(451,71,o),
(396,24,o),
(352,24,qs),
(307,24,o),
(248,67,o),
(213,133,o),
(198,212,o),
(198,250,qs),
(198,284,o)
);
}
);
userData = {
assembly = "PUSHW[ ]	/* 4 values pushed */
39 5 3 4
CALL[ ]	/* CallFunction */
PUSHW[ ]	/* 1 value pushed */
39
SRP0[ ]	/* SetRefPoint0 */
PUSHW[ ]	/* 1 value pushed */
30
MDRP[10000]	/* MoveDirectRelPt */
PUSHW[ ]	/* 1 value pushed */
30
MDAP[1]	/* MoveDirectAbsPt */
IUP[0]	/* InterpolateUntPts */
IUP[1]	/* InterpolateUntPts */";
};
width = 639;
}
);
note = p;
unicode = 112;
}
{
glyphname = q;
layers = (
{
layerId = m01;
shapes = (
{
closed = 1;
nodes = (
(533,-193,o),
(511,-169,o),
(511,-151,qs),
(511,417,ls),
(511,431,o),
(522,489,o),
(530,516,q),
(496,516,l),
(436,432,l),
(399,476,o),
(306,528,o),
(248,528,qs),
(195,528,o),
(115,477,o),
(64,396,o),
(39,299,o),
(39,252,qs),
(39,203,o),
(67,107,o),
(124,30,o),
(206,-17,o),
(259,-17,qs),
(306,-17,o),
(389,33,o),
(413,75,q),
(422,73,l),
(422,-155,ls),
(422,-170,o),
(406,-194,o),
(386,-194,qs),
(334,-194,l),
(334,-218,l),
(599,-218,l),
(599,-194,l),
(548,-194,ls)
);
},
{
closed = 1;
nodes = (
(412,133,o),
(376,67,o),
(317,24,o),
(272,24,qs),
(228,24,o),
(174,71,o),
(146,140,o),
(136,220,o),
(136,254,qs),
(136,286,o),
(146,368,o),
(175,439,o),
(229,487,o),
(274,487,qs),
(319,487,o),
(377,439,o),
(412,367,o),
(427,284,o),
(427,250,qs),
(427,212,o)
);
}
);
width = 619;
}
);
note = q;
unicode = 113;
}
{
glyphname = r;
layers = (
{
layerId = m01;
shapes = (
{
closed = 1;
nodes = (
(23,0,l),
(340,0,l),
(340,28,l),
(257,28,ls),
(242,28,o),
(215,58,o),
(215,73,qs),
(215,74,ls),
(215,79,o),
(214,106,o),
(214,123,qs),
(214,170,ls),
(215,218,o),
(236,328,o),
(282,422,o),
(355,485,o),
(407,488,q),
(392,475,o),
(368,438,o),
(368,423,qs),
(368,398,o),
(406,371,o),
(431,371,qs),
(462,371,o),
(483,410,o),
(483,438,qs),
(483,476,o),
(441,524,o),
(400,524,qs),
(398,524,ls),
(359,523,o),
(302,492,o),
(258,442,o),
(225,381,o),
(210,353,q),
(199,355,l),
(199,524,l),
(20,516,l),
(20,490,l),
(41,490,o),
(80,485,o),
(110,470,o),
(129,439,o),
(129,413,qs),
(129,70,ls),
(129,56,o),
(107,28,o),
(87,28,qs),
(23,28,l)
);
}
);
userData = {
assembly = "PUSHW[ ]	/* 4 values pushed */
12 5 4 4
CALL[ ]	/* CallFunction */
SVTCA[0]	/* SetFreedomAndProjectionVectorToAxis */
PUSHW[ ]	/* 4 values pushed */
10 2 31 4
CALL[ ]	/* CallFunction */
IUP[0]	/* InterpolateUntPts */
IUP[1]	/* InterpolateUntPts */";
};
width = 493;
}
);
note = r;
unicode = 114;
}
{
glyphname = u;
layers = (
{
layerId = m01;
shapes = (
{
closed = 1;
nodes = (
(71,483,ls),
(96,483,o),
(115,452,o),
(115,432,qs),
(115,159,ls),
(115,123,o),
(141,62,o),
(185,17,o),
(246,-8,o),
(281,-8,qs),
(309,-8,o),
(362,10,o),
(410,42,o),
(454,82,o),
(474,103,q),
(490,0,l),
(657,3,l),
(657,28,l),
(643,28,o),
(609,34,o),
(580,46,o),
(559,68,o),
(559,86,qs),
(559,520,l),
(387,507,l),
(387,483,l),
(429,483,ls),
(450,483,o),
(476,457,o),
(476,432,qs),
(476,192,ls),
(476,162,o),
(447,109,o),
(402,68,o),
(346,44,o),
(318,44,qs),
(294,44,o),
(253,60,o),
(220,87,o),
(200,126,o),
(200,148,qs),
(200,520,l),
(25,507,l),
(25,483,l)
);
}
);
userData = {
assembly = "SVTCA[0]	/* SetFreedomAndProjectionVectorToAxis */
PUSHW[ ]	/* 1 value pushed */
0
RCVT[ ]	/* ReadCVT */
IF[ ]	/* If */
PUSHW[ ]	/* 1 value pushed */
26
MDAP[1]	/* MoveDirectAbsPt */
ELSE[ ]	/* Else */
PUSHW[ ]	/* 2 values pushed */
26 6
MIAP[0]	/* MoveIndirectAbsPt */
EIF[ ]	/* EndIf */
PUSHW[ ]	/* 2 values pushed */
7 1
MIRP[10100]	/* MoveIndirectRelPt */
NPUSHW[ ]	/* 31 values pushed */
7 7 23 7 39 7 55 7 71 7 87 7 103 7 119 7 135 7 151 7 167 7 183 7 199 7 215 7 231 7 15
DELTAP1[ ]	/* DeltaExceptionP1 */
NPUSHW[ ]	/* 3 values pushed */
246 7 1
DELTAP1[ ]	/* DeltaExceptionP1 */
NPUSHW[ ]	/* 3 values pushed */
6 7 1
DELTAP2[ ]	/* DeltaExceptionP2 */
PUSHW[ ]	/* 1 value pushed */
26
SRP0[ ]	/* SetRefPoint0 */
PUSHW[ ]	/* 2 values pushed */
25 2
MIRP[10100]	/* MoveIndirectRelPt */
IUP[0]	/* InterpolateUntPts */
IUP[1]	/* InterpolateUntPts */";
};
width = 682;
}
);
note = u;
unicode = 117;
}
{
glyphname = z;
layers = (
{
layerId = m01;
shapes = (
{
closed = 1;
nodes = (
(48,37,l),
(48,0,l),
(481,0,l),
(494,194,l),
(467,194,l),
(465,189,o),
(463,179,o),
(461,174,qs),
(455,152,o),
(438,103,o),
(412,60,o),
(374,32,o),
(347,32,qs),
(151,32,l),
(486,483,l),
(486,516,l),
(78,516,l),
(65,342,l),
(95,342,l),
(96,346,ls),
(102,367,o),
(116,416,o),
(140,459,o),
(178,487,o),
(205,487,qs),
(381,487,l)
);
}
);
userData = {
assembly = "PUSHW[ ]	/* 3 values pushed */
17 23 3
CALL[ ]	/* CallFunction */
PUSHW[ ]	/* 3 values pushed */
11 23 17
SRP1[ ]	/* SetRefPoint1 */
SRP2[ ]	/* SetRefPoint2 */
IP[ ]	/* InterpolatePts */
PUSHW[ ]	/* 3 values pushed */
25 23 17
SRP1[ ]	/* SetRefPoint1 */
SRP2[ ]	/* SetRefPoint2 */
IP[ ]	/* InterpolatePts */
PUSHW[ ]	/* 1 value pushed */
17
SRP0[ ]	/* SetRefPoint0 */
PUSHW[ ]	/* 1 value pushed */
27
MDRP[11100]	/* MoveDirectRelPt */
IUP[0]	/* InterpolateUntPts */
IUP[1]	/* InterpolateUntPts */";
};
width = 534;
}
);
note = z;
unicode = 122;
}
{
glyphname = braceleft;
layers = (
{
layerId = m01;
shapes = (
{
closed = 1;
nodes = (
(110,333,o),
(153,274,o),
(153,220,qs),
(153,204,o),
(154,175,o),
(155,158,qs),
(155,135,o),
(156,78,o),
(156,36,qs),
(156,5,o),
(188,-51,o),
(239,-95,o),
(303,-123,o),
(335,-124,q),
(335,-118,l),
(312,-109,o),
(270,-88,o),
(239,-58,o),
(221,-16,o),
(221,13,qs),
(221,32,o),
(220,70,o),
(220,90,qs),
(220,169,ls),
(220,235,o),
(153,321,o),
(91,349,q),
(153,377,o),
(220,463,o),
(220,528,qs),
(220,608,ls),
(220,628,o),
(221,665,o),
(221,685,qs),
(221,715,o),
(239,756,o),
(270,785,o),
(312,806,o),
(335,815,q),
(335,821,l),
(303,820,o),
(239,792,o),
(188,748,o),
(156,691,o),
(156,661,qs),
(156,619,o),
(155,562,o),
(155,539,qs),
(154,522,o),
(153,494,o),
(153,478,qs),
(153,423,o),
(110,365,o),
(61,357,q),
(61,342,l)
);
}
);
userData = {
assembly = "PUSHW[ ]	/* 4 values pushed */
23 5 9 4
CALL[ ]	/* CallFunction */
PUSHW[ ]	/* 1 value pushed */
9
SRP0[ ]	/* SetRefPoint0 */
PUSHW[ ]	/* 1 value pushed */
3
MDRP[10000]	/* MoveDirectRelPt */
PUSHW[ ]	/* 1 value pushed */
3
MDAP[1]	/* MoveDirectAbsPt */
PUSHW[ ]	/* 1 value pushed */
9
SRP0[ ]	/* SetRefPoint0 */
PUSHW[ ]	/* 1 value pushed */
6
MDRP[10000]	/* MoveDirectRelPt */
PUSHW[ ]	/* 1 value pushed */
6
MDAP[1]	/* MoveDirectAbsPt */
PUSHW[ ]	/* 1 value pushed */
23
SRP0[ ]	/* SetRefPoint0 */
PUSHW[ ]	/* 1 value pushed */
20
MDRP[10000]	/* MoveDirectRelPt */
PUSHW[ ]	/* 1 value pushed */
20
MDAP[1]	/* MoveDirectAbsPt */
PUSHW[ ]	/* 1 value pushed */
23
SRP0[ ]	/* SetRefPoint0 */
PUSHW[ ]	/* 1 value pushed */
30
MDRP[10000]	/* MoveDirectRelPt */
PUSHW[ ]	/* 1 value pushed */
23
SRP0[ ]	/* SetRefPoint0 */
PUSHW[ ]	/* 1 value pushed */
34
MDRP[10000]	/* MoveDirectRelPt */
PUSHW[ ]	/* 1 value pushed */
34
MDAP[1]	/* MoveDirectAbsPt */
PUSHW[ ]	/* 1 value pushed */
9
SRP0[ ]	/* SetRefPoint0 */
PUSHW[ ]	/* 1 value pushed */
45
MDRP[10000]	/* MoveDirectRelPt */
PUSHW[ ]	/* 1 value pushed */
9
SRP0[ ]	/* SetRefPoint0 */
PUSHW[ ]	/* 1 value pushed */
48
MDRP[10000]	/* MoveDirectRelPt */
PUSHW[ ]	/* 1 value pushed */
48
MDAP[1]	/* MoveDirectAbsPt */
PUSHW[ ]	/* 1 value pushed */
9
SRP0[ ]	/* SetRefPoint0 */
PUSHW[ ]	/* 1 value pushed */
51
MDRP[10000]	/* MoveDirectRelPt */
PUSHW[ ]	/* 1 value pushed */
51
MDAP[1]	/* MoveDirectAbsPt */
IUP[0]	/* InterpolateUntPts */
IUP[1]	/* InterpolateUntPts */";
};
width = 364;
}
);
note = braceleft;
unicode = 123;
}
{
glyphname = bar;
layers = (
{
layerId = m01;
shapes = (
{
closed = 1;
nodes = (
(298,-282,l),
(358,-282,l),
(358,835,l),
(298,835,l)
);
}
);
width = 663;
}
);
note = bar;
unicode = 124;
}
{
glyphname = exclamdown;
layers = (
{
layerId = m01;
shapes = (
{
closed = 1;
nodes = (
(133,481,o),
(159,481,qs),
(185,481,o),
(222,518,o),
(222,543,qs),
(222,570,o),
(185,607,o),
(159,607,qs),
(133,607,o),
(96,570,o),
(96,543,qs),
(96,517,o)
);
},
{
closed = 1;
nodes = (
(189,-230,o),
(215,-183,o),
(215,-139,qs),
(215,-121,o),
(207,-44,o),
(202,6,qs),
(198,43,o),
(190,124,o),
(183,203,o),
(179,278,o),
(179,308,qs),
(179,376,l),
(145,376,l),
(145,308,ls),
(145,278,o),
(139,203,o),
(132,124,o),
(122,43,o),
(118,6,qs),
(113,-44,o),
(105,-120,o),
(105,-139,qs),
(105,-227,o),
(159,-230,qs),
(161,-230,ls)
);
}
);
userData = {
assembly = "PUSHW[ ]	/* 4 values pushed */
33 5 0 4
CALL[ ]	/* CallFunction */
NPUSHW[ ]	/* 31 values pushed */
6 33 22 33 38 33 54 33 70 33 86 33 102 33 118 33 134 33 150 33 166 33 182 33 198 33 214 33 230 33 15
DELTAP1[ ]	/* DeltaExceptionP1 */
NPUSHW[ ]	/* 3 values pushed */
245 33 1
DELTAP1[ ]	/* DeltaExceptionP1 */
NPUSHW[ ]	/* 3 values pushed */
5 33 1
DELTAP2[ ]	/* DeltaExceptionP2 */
PUSHW[ ]	/* 1 value pushed */
33
SRP0[ ]	/* SetRefPoint0 */
PUSHW[ ]	/* 1 value pushed */
6
MDRP[10000]	/* MoveDirectRelPt */
PUSHW[ ]	/* 1 value pushed */
6
MDAP[1]	/* MoveDirectAbsPt */
PUSHW[ ]	/* 3 values pushed */
22 0 33
SRP1[ ]	/* SetRefPoint1 */
SRP2[ ]	/* SetRefPoint2 */
IP[ ]	/* InterpolatePts */
PUSHW[ ]	/* 1 value pushed */
22
MDAP[1]	/* MoveDirectAbsPt */
PUSHW[ ]	/* 2 values pushed */
25 4
MIRP[10100]	/* MoveIndirectRelPt */
IUP[0]	/* InterpolateUntPts */
IUP[1]	/* InterpolateUntPts */";
};
width = 320;
}
);
note = exclamdown;
unicode = 161;
}
{
glyphname = section;
layers = (
{
layerId = m01;
shapes = (
{
closed = 1;
nodes = (
(88,-134,o),
(129,-159,o),
(179,-171,o),
(203,-171,qs),
(278,-171,o),
(370,-89,o),
(372,-15,q),
(370,28,o),
(336,97,o),
(309,131,q),
(327,148,o),
(362,183,o),
(389,222,o),
(406,264,o),
(406,288,qs),
(406,322,o),
(386,377,o),
(352,424,o),
(308,467,o),
(285,488,q),
(277,497,o),
(258,514,o),
(250,522,qs),
(246,527,o),
(228,544,o),
(216,556,qs),
(199,572,o),
(168,604,o),
(163,610,qs),
(149,628,o),
(128,669,o),
(128,693,qs),
(128,718,o),
(147,756,o),
(179,781,o),
(221,794,o),
(243,794,qs),
(255,794,o),
(279,792,o),
(300,786,o),
(312,772,o),
(312,758,q),
(305,748,ls),
(296,737,o),
(282,716,o),
(282,701,qs),
(282,680,o),
(310,656,o),
(330,656,qs),
(348,656,o),
(378,681,o),
(378,703,qs),
(378,735,o),
(355,779,o),
(316,807,o),
(265,821,o),
(237,821,qs),
(202,821,o),
(140,796,o),
(92,754,o),
(64,693,o),
(64,657,qs),
(64,617,o),
(100,550,o),
(124,516,q),
(119,512,o),
(102,494,o),
(81,474,o),
(63,456,o),
(59,453,q),
(41,431,o),
(28,375,o),
(28,348,qs),
(28,316,o),
(46,266,o),
(78,222,o),
(120,182,o),
(144,161,q),
(146,158,o),
(170,137,o),
(185,124,qs),
(200,111,o),
(225,89,o),
(228,86,qs),
(234,81,ls),
(247,68,o),
(276,41,o),
(299,10,o),
(313,-25,o),
(313,-45,qs),
(313,-69,o),
(292,-108,o),
(260,-134,o),
(217,-149,o),
(195,-149,qs),
(189,-149,o),
(166,-146,o),
(141,-138,o),
(125,-124,o),
(125,-114,qs),
(125,-106,o),
(134,-93,o),
(139,-86,q),
(146,-80,o),
(156,-64,o),
(156,-54,qs),
(156,-34,o),
(133,-9,o),
(113,-9,qs),
(86,-9,o),
(61,-41,o),
(61,-66,qs),
(61,-94,o)
);
},
{
closed = 1;
nodes = (
(119,472,o),
(146,492,q),
(173,473,o),
(221,431,o),
(244,410,qs),
(253,401,o),
(268,387,o),
(276,380,qs),
(288,369,o),
(316,342,o),
(340,311,o),
(354,277,o),
(354,258,qs),
(353,245,o),
(341,215,o),
(321,187,o),
(296,163,o),
(283,158,q),
(277,163,o),
(242,192,o),
(204,224,o),
(171,254,o),
(165,260,qs),
(157,266,l),
(144,279,o),
(116,305,o),
(94,335,o),
(80,369,o),
(80,389,qs),
(80,423,o)
);
}
);
userData = {
assembly = "PUSHW[ ]	/* 4 values pushed */
105 5 124 4
CALL[ ]	/* CallFunction */
PUSHW[ ]	/* 1 value pushed */
105
SRP0[ ]	/* SetRefPoint0 */
PUSHW[ ]	/* 1 value pushed */
60
MDRP[10000]	/* MoveDirectRelPt */
PUSHW[ ]	/* 1 value pushed */
60
MDAP[1]	/* MoveDirectAbsPt */
NPUSHW[ ]	/* 3 values pushed */
250 124 1
DELTAP1[ ]	/* DeltaExceptionP1 */
NPUSHW[ ]	/* 3 values pushed */
10 124 1
DELTAP2[ ]	/* DeltaExceptionP2 */
NPUSHW[ ]	/* 31 values pushed */
9 124 25 124 41 124 57 124 73 124 89 124 105 124 121 124 137 124 153 124 169 124 185 124 201 124 217 124 233 124 15
DELTAP1[ ]	/* DeltaExceptionP1 */
PUSHW[ ]	/* 1 value pushed */
124
SRP0[ ]	/* SetRefPoint0 */
PUSHW[ ]	/* 1 value pushed */
66
MDRP[10000]	/* MoveDirectRelPt */
PUSHW[ ]	/* 1 value pushed */
66
MDAP[1]	/* MoveDirectAbsPt */
PUSHW[ ]	/* 1 value pushed */
105
SRP0[ ]	/* SetRefPoint0 */
PUSHW[ ]	/* 1 value pushed */
144
MDRP[11100]	/* MoveDirectRelPt */
IUP[0]	/* InterpolateUntPts */
IUP[1]	/* InterpolateUntPts */";
};
width = 433;
}
);
note = section;
unicode = 167;
}
{
glyphname = dieresis;
layers = (
{
layerId = m01;
shapes = (
{
closed = 1;
nodes = (
(50,668,o),
(74,668,qs),
(99,668,o),
(132,700,o),
(132,724,qs),
(132,748,o),
(98,782,o),
(74,782,qs),
(50,782,o),
(18,748,o),
(18,724,qs),
(18,700,o)
);
},
{
closed = 1;
nodes = (
(273,668,o),
(297,668,qs),
(321,668,o),
(354,700,o),
(354,724,qs),
(354,748,o),
(321,782,o),
(297,782,qs),
(272,782,o),
(240,748,o),
(240,724,qs),
(240,700,o)
);
}
);
width = 369;
}
);
note = dieresis;
unicode = 168;
}
{
glyphname = registered;
layers = (
{
layerId = m01;
shapes = (
{
closed = 1;
nodes = (
(57,161,o),
(170,48,o),
(321,-17,o),
(408,-17,qs),
(495,-17,o),
(647,48,o),
(760,161,o),
(826,313,o),
(826,400,qs),
(826,486,o),
(760,638,o),
(647,751,o),
(495,817,o),
(408,817,qs),
(321,817,o),
(170,751,o),
(57,638,o),
(-8,486,o),
(-8,400,qs),
(-8,313,o)
);
},
{
closed = 1;
nodes = (
(116,596,o),
(211,691,o),
(337,745,o),
(408,745,qs),
(479,745,o),
(606,691,o),
(700,596,o),
(755,470,o),
(755,399,qs),
(755,327,o),
(700,201,o),
(606,108,o),
(479,53,o),
(408,53,qs),
(336,53,o),
(211,108,o),
(116,201,o),
(62,327,o),
(62,399,qs),
(62,470,o)
);
},
{
closed = 1;
nodes = (
(410,405,ls),
(418,405,o),
(438,395,o),
(444,391,qs),
(463,379,o),
(479,339,o),
(486,290,o),
(490,240,o),
(504,198,o),
(534,172,o),
(562,172,qs),
(584,172,o),
(612,193,o),
(629,224,o),
(636,263,o),
(636,281,q),
(618,281,l),
(617,278,o),
(615,253,o),
(614,250,qs),
(612,242,o),
(601,219,o),
(591,219,qs),
(582,219,o),
(568,238,o),
(566,246,qs),
(538,345,ls),
(528,377,o),
(477,405,o),
(449,413,q),
(466,416,o),
(495,419,o),
(519,424,o),
(541,433,o),
(554,442,qs),
(564,449,o),
(588,482,o),
(588,526,qs),
(588,548,o),
(570,589,o),
(541,619,o),
(500,637,o),
(478,637,qs),
(209,637,l),
(209,617,l),
(258,617,ls),
(266,617,o),
(281,605,o),
(281,595,qs),
(281,227,ls),
(281,219,o),
(269,205,o),
(259,205,qs),
(209,205,l),
(209,182,l),
(421,182,l),
(421,205,l),
(368,205,ls),
(350,205,o),
(350,226,qs),
(350,405,l)
);
},
{
closed = 1;
nodes = (
(433,616,o),
(474,610,o),
(502,591,o),
(518,554,o),
(518,524,qs),
(518,494,o),
(495,452,o),
(466,440,qs),
(460,437,o),
(434,431,o),
(422,431,qs),
(350,431,l),
(350,599,ls),
(350,605,o),
(358,611,o),
(369,614,o),
(381,616,o),
(384,616,qs),
(407,616,ls)
);
}
);
userData = {
assembly = "PUSHW[ ]	/* 4 values pushed */
20 5 0 4
CALL[ ]	/* CallFunction */
PUSHW[ ]	/* 3 values pushed */
84 83 3
CALL[ ]	/* CallFunction */
NPUSHW[ ]	/* 31 values pushed */
6 20 22 20 38 20 54 20 70 20 86 20 102 20 118 20 134 20 150 20 166 20 182 20 198 20 214 20 230 20 15
DELTAP1[ ]	/* DeltaExceptionP1 */
NPUSHW[ ]	/* 3 values pushed */
245 20 1
DELTAP1[ ]	/* DeltaExceptionP1 */
NPUSHW[ ]	/* 3 values pushed */
5 20 1
DELTAP2[ ]	/* DeltaExceptionP2 */
PUSHW[ ]	/* 3 values pushed */
70 0 84
SRP1[ ]	/* SetRefPoint1 */
SRP2[ ]	/* SetRefPoint2 */
IP[ ]	/* InterpolatePts */
PUSHW[ ]	/* 1 value pushed */
84
SRP0[ ]	/* SetRefPoint0 */
PUSHW[ ]	/* 1 value pushed */
121
MDRP[11100]	/* MoveDirectRelPt */
SVTCA[0]	/* SetFreedomAndProjectionVectorToAxis */
PUSHW[ ]	/* 1 value pushed */
0
RCVT[ ]	/* ReadCVT */
IF[ ]	/* If */
PUSHW[ ]	/* 1 value pushed */
15
MDAP[1]	/* MoveDirectAbsPt */
ELSE[ ]	/* Else */
PUSHW[ ]	/* 2 values pushed */
15 6
MIAP[0]	/* MoveIndirectAbsPt */
EIF[ ]	/* EndIf */
PUSHW[ ]	/* 4 values pushed */
77 1 89 4
CALL[ ]	/* CallFunction */
PUSHW[ ]	/* 4 values pushed */
43 2 44 4
CALL[ ]	/* CallFunction */
PUSHW[ ]	/* 4 values pushed */
56 2 55 4
CALL[ ]	/* CallFunction */
PUSHW[ ]	/* 4 values pushed */
108 2 99 4
CALL[ ]	/* CallFunction */
PUSHW[ ]	/* 1 value pushed */
15
SRP0[ ]	/* SetRefPoint0 */
PUSHW[ ]	/* 2 values pushed */
25 3
MIRP[10100]	/* MoveIndirectRelPt */
NPUSHW[ ]	/* 31 values pushed */
7 25 23 25 39 25 55 25 71 25 87 25 103 25 119 25 135 25 151 25 167 25 183 25 199 25 215 25 231 25 15
DELTAP1[ ]	/* DeltaExceptionP1 */
NPUSHW[ ]	/* 3 values pushed */
246 25 1
DELTAP1[ ]	/* DeltaExceptionP1 */
NPUSHW[ ]	/* 3 values pushed */
6 25 1
DELTAP2[ ]	/* DeltaExceptionP2 */
PUSHW[ ]	/* 1 value pushed */
43
SRP0[ ]	/* SetRefPoint0 */
PUSHW[ ]	/* 1 value pushed */
46
MDRP[10000]	/* MoveDirectRelPt */
PUSHW[ ]	/* 3 values pushed */
70 99 108
SRP1[ ]	/* SetRefPoint1 */
SRP2[ ]	/* SetRefPoint2 */
IP[ ]	/* InterpolatePts */
PUSHW[ ]	/* 1 value pushed */
55
SRP0[ ]	/* SetRefPoint0 */
PUSHW[ ]	/* 1 value pushed */
101
MDRP[10000]	/* MoveDirectRelPt */
PUSHW[ ]	/* 1 value pushed */
101
MDAP[1]	/* MoveDirectAbsPt */
IUP[0]	/* InterpolateUntPts */
IUP[1]	/* InterpolateUntPts */";
};
width = 818;
}
);
note = registered;
unicode = 174;
}
{
glyphname = degree;
layers = (
{
layerId = m01;
shapes = (
{
closed = 1;
nodes = (
(88,533,o),
(131,490,o),
(188,465,o),
(222,465,qs),
(255,465,o),
(313,490,o),
(357,533,o),
(383,591,o),
(383,625,qs),
(383,657,o),
(357,715,o),
(313,759,o),
(254,784,o),
(222,784,qs),
(189,784,o),
(131,759,o),
(88,715,o),
(63,657,o),
(63,625,qs),
(63,591,o)
);
},
{
closed = 1;
nodes = (
(181,724,o),
(222,724,qs),
(263,724,o),
(320,668,o),
(320,627,qs),
(320,586,o),
(263,529,o),
(222,529,qs),
(181,529,o),
(125,586,o),
(125,627,qs),
(125,668,o)
);
}
);
userData = {
assembly = "SVTCA[0]	/* SetFreedomAndProjectionVectorToAxis */
PUSHW[ ]	/* 4 values pushed */
5 1 29 4
CALL[ ]	/* CallFunction */
IUP[0]	/* InterpolateUntPts */
IUP[1]	/* InterpolateUntPts */";
};
width = 444;
}
);
note = degree;
unicode = 176;
}
{
glyphname = cedilla;
layers = (
{
layerId = m01;
shapes = (
{
closed = 1;
nodes = (
(117,0,o),
(108,-32,o),
(102,-51,qs),
(94,-75,o),
(85,-103,q),
(93,-107,l),
(105,-100,o),
(138,-96,o),
(147,-96,qs),
(161,-96,o),
(191,-123,o),
(191,-147,qs),
(191,-171,o),
(159,-201,o),
(125,-201,qs),
(115,-201,o),
(91,-195,o),
(68,-187,o),
(50,-177,o),
(47,-174,q),
(32,-203,l),
(53,-218,o),
(107,-238,o),
(126,-238,qs),
(187,-238,o),
(267,-193,o),
(267,-148,qs),
(267,-103,o),
(223,-62,o),
(182,-62,qs),
(177,-62,o),
(161,-66,o),
(154,-68,qs),
(145,-71,o),
(136,-73,q),
(156,0,l),
(116,0,l)
);
}
);
userData = {
assembly = "SVTCA[0]	/* SetFreedomAndProjectionVectorToAxis */
PUSHW[ ]	/* 1 value pushed */
0
RCVT[ ]	/* ReadCVT */
IF[ ]	/* If */
PUSHW[ ]	/* 1 value pushed */
0
MDAP[1]	/* MoveDirectAbsPt */
ELSE[ ]	/* Else */
PUSHW[ ]	/* 2 values pushed */
0 6
MIAP[0]	/* MoveIndirectAbsPt */
EIF[ ]	/* EndIf */
PUSHW[ ]	/* 4 values pushed */
21 2 12 4
CALL[ ]	/* CallFunction */
PUSHW[ ]	/* 4 values pushed */
6 2 27 4
CALL[ ]	/* CallFunction */
PUSHW[ ]	/* 1 value pushed */
0
SRP0[ ]	/* SetRefPoint0 */
PUSHW[ ]	/* 2 values pushed */
1 3
MIRP[10100]	/* MoveIndirectRelPt */
IUP[0]	/* InterpolateUntPts */
IUP[1]	/* InterpolateUntPts */";
};
width = 369;
}
);
note = cedilla;
unicode = 184;
}
{
glyphname = caron;
layers = (
{
layerId = m01;
shapes = (
{
closed = 1;
nodes = (
(144,580,l),
(228,580,l),
(362,771,l),
(314,771,l),
(185,641,l),
(58,771,l),
(12,771,l)
);
}
);
width = 369;
}
);
note = caron;
unicode = 711;
}
{
glyphname = "danda-deva";
layers = (
{
layerId = m01;
shapes = (
{
closed = 1;
nodes = (
(290,17,l),
(352,17,l),
(352,672,l),
(290,672,l)
);
}
);
userData = {
assembly = "PUSHW[ ]	/* 4 values pushed */
1 5 0 4
CALL[ ]	/* CallFunction */
PUSHW[ ]	/* 1 value pushed */
1
SRP0[ ]	/* SetRefPoint0 */
PUSHW[ ]	/* 1 value pushed */
5
MDRP[11100]	/* MoveDirectRelPt */
SVTCA[0]	/* SetFreedomAndProjectionVectorToAxis */
PUSHW[ ]	/* 1 value pushed */
0
MDAP[1]	/* MoveDirectAbsPt */
PUSHW[ ]	/* 1 value pushed */
0
RCVT[ ]	/* ReadCVT */
IF[ ]	/* If */
PUSHW[ ]	/* 1 value pushed */
2
MDAP[1]	/* MoveDirectAbsPt */
ELSE[ ]	/* Else */
PUSHW[ ]	/* 2 values pushed */
2 6
MIAP[0]	/* MoveIndirectAbsPt */
EIF[ ]	/* EndIf */
IUP[0]	/* InterpolateUntPts */
IUP[1]	/* InterpolateUntPts */";
};
width = 422;
}
);
note = dv_danda;
unicode = 2404;
}
{
glyphname = "anusvara-orya";
layers = (
{
layerId = m01;
shapes = (
{
closed = 1;
nodes = (
(254,376,o),
(325,444,o),
(325,524,cs),
(325,604,o),
(254,672,o),
(165,672,cs),
(76,672,o),
(5,604,o),
(5,524,cs),
(5,444,o),
(76,376,o),
(165,376,cs)
);
},
{
closed = 1;
nodes = (
(116,432,o),
(75,472,o),
(75,524,cs),
(75,576,o),
(116,616,o),
(165,616,cs),
(214,616,o),
(255,576,o),
(255,524,cs),
(255,472,o),
(214,432,o),
(165,432,cs)
);
}
);
width = 375;
}
);
note = or_anusvara;
unicode = 2818;
}
{
glyphname = "i-orya";
layers = (
{
background = {
shapes = (
{
closed = 1;
nodes = (
(389,51,o),
(359,82,o),
(359,120,cs),
(359,158,o),
(386,188,o),
(427,188,cs),
(470,188,o),
(503,158,o),
(503,120,cs),
(503,82,o),
(473,51,o),
(431,51,cs)
);
},
{
closed = 1;
nodes = (
(195,51,o),
(162,82,o),
(162,120,cs),
(162,124,l),
(164,136,ls),
(171,165,o),
(201,188,o),
(238,188,cs),
(279,188,o),
(307,158,o),
(307,120,cs),
(307,82,o),
(279,51,o),
(238,51,cs)
);
},
{
closed = 1;
nodes = (
(271,0,o),
(309,15,o),
(333,40,c),
(358,16,o),
(391,2,o),
(430,0,cs),
(503,-3,o),
(558,52,o),
(558,119,cs),
(558,194,o),
(501,246,o),
(427,246,cs),
(390,246,o),
(355,230,o),
(331,207,c),
(307,229,o),
(274,244,o),
(235,246,cs),
(161,246,o),
(104,194,o),
(104,119,cs),
(104,52,o),
(159,-3,o),
(232,0,cs)
);
},
{
closed = 1;
nodes = (
(133,303,o),
(118,340,o),
(123,427,cs),
(129,536,o),
(221,604,o),
(377,604,cs),
(551,604,o),
(660,494,o),
(660,320,cs),
(660,201,o),
(642,150,o),
(610,59,c),
(597,28,o),
(597,5,o),
(611,-1,cs),
(834,-104,l),
(863,-61,l),
(788,-19,l),
(658,39,l),
(664,30,l),
(701,98,o),
(731,239,o),
(730,320,cs),
(728,514,o),
(573,666,o),
(377,666,cs),
(194,666,o),
(50,571,o),
(50,427,cs),
(50,336,o),
(59,296,o),
(92,247,cs),
(124,201,o),
(180,188,o),
(219,188,cs),
(247,188,l),
(247,241,l),
(219,241,ls),
(196,241,o),
(172,247,o),
(150,279,cs)
);
}
);
};
backgroundImage = {
imagePath = "../../../../i.png";
pos = (-20,0);
};
layerId = m01;
shapes = (
{
closed = 1;
nodes = (
(389,51,o),
(359,82,o),
(359,120,cs),
(359,158,o),
(386,188,o),
(427,188,cs),
(470,188,o),
(503,158,o),
(503,120,cs),
(503,82,o),
(473,51,o),
(431,51,cs)
);
},
{
closed = 1;
nodes = (
(195,51,o),
(162,82,o),
(162,120,cs),
(162,124,l),
(164,136,ls),
(171,165,o),
(201,188,o),
(238,188,cs),
(279,188,o),
(307,158,o),
(307,120,cs),
(307,82,o),
(279,51,o),
(238,51,cs)
);
},
{
closed = 1;
nodes = (
(271,0,o),
(309,15,o),
(333,40,c),
(358,16,o),
(391,2,o),
(430,0,cs),
(503,-3,o),
(558,52,o),
(558,119,cs),
(558,194,o),
(501,246,o),
(427,246,cs),
(390,246,o),
(355,230,o),
(331,207,c),
(307,229,o),
(274,244,o),
(235,246,cs),
(161,246,o),
(104,194,o),
(104,119,cs),
(104,52,o),
(159,-3,o),
(232,0,cs)
);
},
{
closed = 1;
nodes = (
(603,7,l),
(877,-113,l),
(905,-62,l),
(625,59,l),
(656,14,l),
(693,109,o),
(723,229,o),
(723,332,cs),
(723,541,o),
(578,673,o),
(347,673,cs),
(172,673,o),
(62,562,o),
(62,384,cs),
(62,294,o),
(122,200,o),
(237,189,c),
(256,243,l),
(173,248,o),
(132,315,o),
(132,384,cs),
(132,527,o),
(215,617,o),
(347,617,cs),
(535,617,o),
(653,507,o),
(653,332,cs),
(653,228,o),
(634,147,o),
(603,53,c)
);
}
);
width = 780;
}
);
note = or_i;
unicode = 2823;
}
{
glyphname = or_ii;
layers = (
{
layerId = m01;
shapes = (
{
closed = 1;
nodes = (
(388,129,l),
(389,156,o),
(408,178,qs),
(426,198,o),
(445,198,qs),
(460,198,o),
(476,184,qs),
(502,160,o),
(502,122,qs),
(502,91,o),
(484,69,qs),
(473,57,o),
(456,48,o),
(446,47,o),
(443,47,qs),
(430,47,o),
(404,70,o),
(393,92,o),
(390,102,q),
(389,117,l)
);
},
{
closed = 1;
nodes = (
(183,154,o),
(204,177,qs),
(214,189,o),
(232,198,o),
(238,199,q),
(244,198,o),
(262,190,o),
(272,179,qs),
(294,156,o),
(296,125,qs),
(296,116,l),
(295,106,ls),
(291,78,o),
(268,57,qs),
(255,45,o),
(241,45,qs),
(223,45,o),
(206,63,qs),
(183,87,o)
);
},
{
closed = 1;
nodes = (
(91,71,o),
(127,33,qs),
(145,15,o),
(169,3,qs),
(201,-12,o),
(241,-12,qs),
(302,-12,o),
(344,24,q),
(385,-10,o),
(444,-10,qs),
(452,-10,o),
(460,-10,qs),
(526,-4,o),
(565,42,qs),
(595,77,o),
(595,122,qs),
(595,178,o),
(552,217,qs),
(508,255,o),
(445,255,qs),
(382,255,o),
(341,219,q),
(325,232,o),
(305,242,qs),
(273,256,o),
(237,256,q),
(237,256,l),
(218,255,o),
(203,254,qs),
(193,253,o),
(186,253,qs),
(182,253,o),
(170,256,o),
(162,262,qs),
(148,272,o),
(138,292,qs),
(126,318,o),
(126,352,qs),
(126,404,o),
(155,444,q),
(161,449,o),
(166,455,q),
(175,408,o),
(206,373,qs),
(235,340,o),
(277,326,qs),
(304,317,o),
(359,317,o),
(382,324,qs),
(431,339,o),
(454,378,qs),
(468,402,o),
(468,430,qs),
(468,445,o),
(464,459,qs),
(453,499,o),
(380,556,o),
(329,564,qs),
(310,567,o),
(282,567,o),
(273,566,q),
(285,589,o),
(302,606,q),
(353,636,o),
(409,636,qs),
(453,636,o),
(496,617,qs),
(540,598,o),
(615,522,o),
(640,474,qs),
(684,386,o),
(684,279,qs),
(684,204,o),
(643,66,o),
(610,9,qs),
(604,-3,l),
(612,-14,ls),
(649,-60,o),
(745,-132,o),
(803,-154,qs),
(830,-164,o),
(880,-176,q),
(894,-118,l),
(780,-89,o),
(704,1,q),
(735,58,o),
(752,119,qs),
(776,199,o),
(776,279,qs),
(776,395,o),
(728,491,qs),
(667,612,o),
(549,664,qs),
(483,693,o),
(409,693,qs),
(313,693,o),
(234,645,qs),
(230,643,l),
(228,640,l),
(183,598,o),
(169,540,q),
(113,515,o),
(73,470,q),
(34,417,o),
(34,352,qs),
(34,309,o),
(50,275,qs),
(73,226,o),
(124,206,q),
(91,170,o)
);
},
{
closed = 1;
nodes = (
(255,504,q),
(274,509,o),
(291,509,qs),
(322,509,o),
(345,491,qs),
(366,475,o),
(373,449,qs),
(376,440,o),
(376,430,qs),
(376,412,o),
(357,380,o),
(341,376,q),
(337,374,o),
(327,374,o),
(321,377,q),
(303,383,o),
(270,420,o),
(255,469,o),
(255,491,qs),
(255,498,o)
);
}
);
width = 830;
}
);
note = or_ii;
unicode = 2824;
}
{
glyphname = "u-orya";
layers = (
{
background = {
hints = (
{
name = _corner.tailLeft;
type = Corner;
}
);
shapes = (
{
closed = 1;
nodes = (
(344,160,o),
(418,238,o),
(463,269,cs),
(474,276,o),
(481,278,o),
(489,280,cs),
(517,285,l),
(503,340,l),
(475,334,ls),
(463,332,o),
(442,326,o),
(425,315,cs),
(368,276,o),
(304,206,o),
(276,177,cs),
(240,139,l),
(271,104,l),
(295,123,ls)
);
},
{
closed = 1;
nodes = (
(186,313,o),
(95,187,o),
(111,118,cs),
(123,68,o),
(191,-2,o),
(326,-2,cs),
(461,-2,o),
(511,92,o),
(511,143,cs),
(511,189,o),
(454,213,o),
(415,214,c),
(305,205,l),
(285,156,l),
(313,157,ls),
(358,158,o),
(384,158,o),
(413,158,cs),
(430,157,o),
(441,151,o),
(441,143,cs),
(441,115,o),
(413,54,o),
(326,54,cs),
(231,54,o),
(187,96,o),
(179,130,cs),
(170,169,o),
(221,250,o),
(256,307,cs),
(295,371,l),
(251,398,l),
(231,372,ls)
);
}
);
};
layerId = m01;
shapes = (
{
closed = 1;
nodes = (
(193,262,l),
(152,288,o),
(132,335,o),
(132,384,cs),
(132,527,o),
(215,617,o),
(347,617,cs),
(535,617,o),
(653,507,o),
(653,332,cs),
(653,228,o),
(614,147,o),
(583,53,c),
(583,7,l),
(857,-113,l),
(885,-62,l),
(605,59,l),
(636,14,l),
(673,109,o),
(723,229,o),
(723,332,cs),
(723,541,o),
(578,673,o),
(347,673,cs),
(172,673,o),
(62,562,o),
(62,384,cs),
(62,315,o),
(98,243,o),
(167,208,c)
);
},
{
closed = 1;
nodes = (
(457,271,l),
(519,302,l),
(491,347,l),
(417,309,l),
(220,140,l),
(262,102,l)
);
},
{
closed = 1;
nodes = (
(157,326,o),
(107,230,o),
(107,147,cs),
(107,54,o),
(196,-5,o),
(326,-5,cs),
(436,-5,o),
(509,52,o),
(509,139,cs),
(509,192,o),
(467,229,o),
(405,229,cs),
(384,229,o),
(354,223,o),
(332,216,cs),
(308,208,l),
(327,160,l),
(352,168,ls),
(374,175,o),
(392,179,o),
(405,179,cs),
(431,179,o),
(445,166,o),
(445,139,cs),
(445,80,o),
(402,45,o),
(326,45,cs),
(227,45,o),
(171,83,o),
(171,147,cs),
(171,218,o),
(215,302,o),
(283,362,cs),
(304,381,l),
(262,418,l),
(241,400,ls)
);
}
);
width = 785;
}
);
note = or_u;
unicode = 2825;
}
{
glyphname = "uu-orya";
layers = (
{
layerId = m01;
shapes = (
{
closed = 1;
nodes = (
(552,-15,qs),
(602,37,o),
(609,107,qs),
(610,122,l),
(441,211,l),
(494,407,l),
(406,430,l),
(342,189,l),
(515,97,l),
(506,49,o),
(437,-22,o),
(383,-33,qs),
(364,-37,o),
(345,-37,qs),
(284,-37,o),
(240,-2,qs),
(205,27,o),
(191,69,qs),
(185,89,o),
(185,111,qs),
(185,183,o),
(251,240,qs),
(269,255,o),
(289,268,qs),
(303,276,l),
(303,288,l),
(303,290,l),
(303,305,l),
(151,376,l),
(148,391,o),
(148,406,qs),
(148,467,o),
(190,520,qs),
(219,557,o),
(267,585,qs),
(328,620,o),
(398,632,qs),
(424,636,o),
(448,636,qs),
(489,636,o),
(525,623,qs),
(591,601,o),
(705,469,o),
(723,393,qs),
(726,383,o),
(727,374,q),
(704,379,o),
(681,379,qs),
(623,379,o),
(584,350,qs),
(543,320,o),
(543,275,qs),
(543,256,o),
(563,215,o),
(585,200,qs),
(619,176,o),
(666,176,qs),
(687,176,o),
(706,181,qs),
(750,192,o),
(781,226,q),
(790,195,o),
(790,118,o),
(765,23,o),
(741,-22,qs),
(736,-32,l),
(741,-41,ls),
(781,-115,o),
(853,-162,qs),
(883,-182,o),
(917,-196,qs),
(943,-207,l),
(967,-148,l),
(942,-138,o),
(920,-123,qs),
(867,-87,o),
(833,-31,q),
(856,14,o),
(883,113,o),
(883,213,o),
(864,257,qs),
(848,294,o),
(821,322,q),
(822,332,o),
(822,343,qs),
(822,371,o),
(815,401,qs),
(794,487,o),
(728,563,qs),
(616,693,o),
(448,693,qs),
(412,693,o),
(376,687,qs),
(283,673,o),
(204,627,qs),
(144,592,o),
(107,546,qs),
(65,493,o),
(58,432,qs),
(56,419,o),
(56,381,o),
(62,356,qs),
(65,345,l),
(190,285,l),
(124,233,o),
(102,169,qs),
(93,141,o),
(93,83,o),
(101,58,qs),
(118,2,o),
(215,-75,o),
(282,-89,qs),
(313,-95,o),
(378,-95,o),
(411,-88,qs),
(498,-71,o)
);
},
{
closed = 1;
nodes = (
(725,305,q),
(718,272,o),
(697,250,qs),
(680,234,o),
(665,234,qs),
(661,234,o),
(645,244,o),
(636,264,o),
(636,275,qs),
(636,299,o),
(655,313,qs),
(666,321,o),
(681,321,qs),
(702,321,o)
);
}
);
width = 954;
}
);
note = or_uu;
unicode = 2826;
}
{
glyphname = or_ru;
layers = (
{
layerId = m01;
shapes = (
{
closed = 1;
nodes = (
(226,175,qs),
(238,222,o),
(276,246,q),
(276,247,l),
(277,247,o),
(291,252,qs),
(333,266,o),
(351,266,qs),
(378,266,o),
(399,246,qs),
(432,215,o),
(432,164,qs),
(432,111,o),
(362,33,o),
(321,33,qs),
(301,33,o),
(283,43,qs),
(257,56,o),
(223,112,o),
(223,147,qs),
(223,161,o)
);
},
{
closed = 1;
nodes = (
(270,-19,qs),
(295,-24,o),
(321,-25,qs),
(323,-25,o),
(329,-25,o),
(331,-25,qs),
(373,-20,o),
(413,-5,q),
(448,15,o),
(477,44,q),
(498,70,o),
(512,100,q),
(522,132,o),
(524,165,q),
(522,196,o),
(512,227,q),
(498,255,o),
(476,277,qs),
(451,298,o),
(421,312,q),
(387,322,o),
(351,323,qs),
(328,322,o),
(305,318,qs),
(275,311,o),
(245,302,qs),
(228,296,o),
(210,292,qs),
(204,290,o),
(198,290,q),
(187,302,o),
(178,316,qs),
(169,330,o),
(163,345,qs),
(157,361,o),
(154,377,qs),
(151,394,o),
(151,411,qs),
(152,438,o),
(158,464,q),
(167,490,o),
(180,515,q),
(204,549,o),
(234,577,q),
(269,602,o),
(309,619,q),
(332,626,o),
(355,631,qs),
(377,635,o),
(400,636,qs),
(422,635,o),
(444,632,qs),
(466,628,o),
(486,621,qs),
(507,613,o),
(527,602,qs),
(548,589,o),
(566,573,qs),
(584,556,o),
(599,536,qs),
(612,516,o),
(623,494,q),
(630,474,o),
(634,454,qs),
(638,434,o),
(638,413,qs),
(638,403,o),
(637,393,qs),
(636,383,o),
(635,373,q),
(628,347,o),
(617,321,q),
(604,298,o),
(586,277,q),
(572,273,l),
(537,264,l),
(544,240,l),
(546,237,l),
(556,205,l),
(606,216,l),
(625,220,ls),
(626,220,o),
(627,220,o),
(628,220,qs),
(629,220,o),
(632,218,o),
(635,217,o),
(636,216,q),
(639,216,o),
(641,215,qs),
(643,214,o),
(645,213,q),
(648,210,o),
(654,202,o),
(657,198,qs),
(660,194,o),
(664,191,q),
(668,185,o),
(672,178,q),
(674,171,o),
(676,164,qs),
(679,149,o),
(680,133,qs),
(679,112,o),
(673,92,qs),
(665,72,o),
(654,53,qs),
(643,37,o),
(629,23,qs),
(615,11,o),
(600,0,q),
(584,-9,o),
(567,-17,qs),
(551,-23,o),
(534,-27,qs),
(503,-34,l),
(503,-54,l),
(503,-63,l),
(503,-70,l),
(634,-224,ls),
(636,-227,o),
(638,-230,q),
(639,-233,o),
(641,-237,qs),
(642,-241,o),
(643,-245,qs),
(644,-251,o),
(645,-256,q),
(736,-245,l),
(734,-232,o),
(729,-220,qs),
(724,-208,o),
(715,-197,qs),
(607,-69,l),
(621,-64,o),
(635,-57,qs),
(649,-50,o),
(662,-42,qs),
(685,-27,o),
(705,-9,qs),
(724,10,o),
(739,31,qs),
(754,55,o),
(764,81,q),
(771,107,o),
(772,133,qs),
(771,154,o),
(766,175,qs),
(760,194,o),
(749,212,qs),
(736,230,o),
(720,245,q),
(702,258,o),
(682,267,q),
(698,289,o),
(710,314,qs),
(720,340,o),
(726,366,qs),
(728,378,o),
(730,389,q),
(730,401,o),
(731,413,q),
(730,437,o),
(726,461,qs),
(720,485,o),
(712,508,q),
(699,536,o),
(682,561,qs),
(663,586,o),
(640,608,qs),
(616,628,o),
(589,645,qs),
(560,661,o),
(530,672,qs),
(499,682,o),
(467,688,qs),
(433,692,o),
(399,693,qs),
(364,692,o),
(330,687,qs),
(296,680,o),
(262,668,qs),
(210,646,o),
(163,614,q),
(124,579,o),
(94,535,q),
(78,506,o),
(67,474,q),
(60,443,o),
(58,411,q),
(59,391,o),
(62,370,qs),
(66,351,o),
(73,332,qs),
(84,307,o),
(99,285,qs),
(115,263,o),
(135,245,qs),
(146,236,l),
(157,235,l),
(145,215,o),
(137,193,q),
(132,170,o),
(131,148,qs),
(132,125,o),
(137,103,qs),
(144,81,o),
(155,61,qs),
(168,42,o),
(184,26,qs),
(203,10,o),
(224,-2,qs),
(246,-12,o)
);
}
);
width = 842;
}
);
note = or_ru;
unicode = 2827;
}
{
glyphname = or_ka;
layers = (
{
background = {
hints = (
{
name = _corner.left;
origin = (0,7);
type = Corner;
}
);
shapes = (
{
closed = 1;
nodes = (
(670,222,o),
(680,254,o),
(684,340,cs),
(684,526,o),
(536,672,o),
(347,672,cs),
(192,672,o),
(70,551,o),
(70,397,cs),
(70,351,o),
(105,298,o),
(150,276,cs),
(197,256,o),
(233,257,o),
(266,257,cs),
(294,257,l),
(294,304,l),
(266,304,ls),
(233,304,o),
(214,304,o),
(183,316,cs),
(157,328,o),
(140,359,o),
(140,397,cs),
(140,532,o),
(220,616,o),
(347,616,cs),
(511,616,o),
(614,510,o),
(614,341,cs),
(609,245,o),
(607,201,o),
(608,176,c),
(671,177,l)
);
}
);
};
backgroundImage = {
imagePath = "../../../../ka.png";
locked = 1;
pos = (0,-45);
scale = (9.7787,9.7787);
};
layerId = m01;
shapes = (
{
closed = 1;
nodes = (
(405,228,l),
(386,273,o),
(335,305,o),
(273,305,cs),
(192,305,o),
(123,254,o),
(123,187,cs),
(123,121,o),
(192,69,o),
(273,69,cs),
(335,69,o),
(386,102,o),
(405,147,c)
);
},
{
closed = 1;
nodes = (
(229,127,o),
(196,153,o),
(196,187,cs),
(196,221,o),
(229,247,o),
(274,247,cs),
(311,247,o),
(340,221,o),
(340,187,cs),
(340,153,o),
(311,127,o),
(274,127,cs)
);
},
{
closed = 1;
nodes = (
(684,247,l),
(688,275,o),
(690,303,o),
(690,332,cs),
(690,502,o),
(559,673,o),
(347,673,cs),
(169,673,o),
(62,535,o),
(62,424,cs),
(62,330,o),
(133,247,o),
(268,247,cs),
(296,247,l),
(296,303,l),
(268,303,ls),
(177,303,o),
(132,356,o),
(132,424,cs),
(132,511,o),
(215,617,o),
(347,617,cs),
(513,617,o),
(620,478,o),
(620,332,cs),
(620,306,o),
(618,280,o),
(614,255,c)
);
},
{
closed = 1;
nodes = (
(466,1,l),
(536,1,l),
(538,208,ls),
(538,262,o),
(499,301,o),
(439,301,cs),
(373,301,o),
(340,258,o),
(340,208,cs),
(338,1,l),
(408,1,l),
(410,208,ls),
(410,230,o),
(419,245,o),
(439,245,cs),
(459,245,o),
(468,230,o),
(468,208,cs)
);
}
);
width = 754;
}
);
note = or_ka;
unicode = 2837;
}
{
glyphname = or_nya;
layers = (
{
layerId = m01;
shapes = (
{
closed = 1;
nodes = (
(73,536,o),
(81,506,qs),
(90,471,o),
(110,441,q),
(63,388,o),
(46,319,qs),
(38,284,o),
(38,210,o),
(48,172,qs),
(73,79,o),
(231,-50,o),
(340,-62,qs),
(360,-64,o),
(380,-64,qs),
(429,-64,o),
(472,-51,qs),
(538,-31,o),
(580,15,qs),
(617,56,o),
(617,100,qs),
(617,128,o),
(588,170,o),
(563,184,q),
(581,195,o),
(592,210,qs),
(610,235,o),
(610,296,o),
(594,324,qs),
(580,347,o),
(560,363,q),
(562,365,o),
(563,366,qs),
(614,403,o),
(667,502,o),
(667,551,qs),
(667,597,o),
(645,634,qs),
(630,661,o),
(606,678,qs),
(569,705,o),
(522,705,qs),
(481,705,o),
(449,685,q),
(414,706,o),
(371,706,qs),
(335,706,o),
(274,677,o),
(235,623,o),
(235,588,qs),
(235,565,o),
(252,525,q),
(333,560,l),
(327,573,o),
(327,588,qs),
(327,610,o),
(339,627,qs),
(349,640,o),
(360,646,q),
(366,648,o),
(378,648,o),
(388,642,qs),
(397,636,o),
(404,624,q),
(397,538,l),
(489,535,l),
(496,623,l),
(503,637,o),
(514,644,qs),
(519,647,o),
(527,647,o),
(538,639,qs),
(549,631,o),
(558,615,qs),
(574,587,o),
(574,511,o),
(552,470,qs),
(532,432,o),
(495,405,qs),
(441,366,o),
(380,366,qs),
(350,366,o),
(319,375,qs),
(291,384,o),
(264,400,qs),
(191,444,o),
(172,515,qs),
(166,541,o),
(166,579,qs),
(167,643,ls),
(167,718,o),
(137,805,q),
(52,776,l),
(75,712,o),
(75,643,qs),
(73,579,ls)
);
},
{
closed = 1;
nodes = (
(167,381,q),
(182,369,o),
(199,359,qs),
(222,345,o),
(245,335,q),
(244,334,o),
(244,334,q),
(212,301,o),
(210,258,q),
(302,256,l),
(303,284,o),
(322,304,q),
(327,308,o),
(332,312,q),
(356,308,o),
(380,308,qs),
(415,308,o),
(448,315,qs),
(469,320,o),
(489,327,q),
(499,318,o),
(507,304,qs),
(518,286,o),
(518,266,qs),
(518,247,o),
(501,224,o),
(478,215,o),
(428,209,o),
(398,209,qs),
(394,209,o),
(342,210,q),
(342,152,l),
(416,148,o),
(464,147,qs),
(481,147,o),
(499,142,o),
(505,139,qs),
(524,127,o),
(524,100,qs),
(524,71,o),
(500,43,qs),
(472,13,o),
(432,1,qs),
(407,-6,o),
(380,-6,qs),
(368,-6,o),
(356,-5,qs),
(283,3,o),
(225,50,qs),
(160,102,o),
(139,182,qs),
(130,215,o),
(130,280,o),
(137,310,qs),
(147,349,o)
);
}
);
width = 721;
}
);
note = or_nya;
unicode = 2846;
}
{
glyphname = "ttha-orya";
layers = (
{
layerId = m01;
shapes = (
{
closed = 1;
nodes = (
(603,0,o),
(756,153,o),
(756,337,cs),
(756,520,o),
(603,672,o),
(413,672,cs),
(222,672,o),
(70,520,o),
(70,337,cs),
(70,153,o),
(222,0,o),
(413,0,cs)
);
},
{
closed = 1;
nodes = (
(264,56,o),
(140,181,o),
(140,337,cs),
(140,492,o),
(264,616,o),
(413,616,cs),
(561,616,o),
(686,492,o),
(686,337,cs),
(686,181,o),
(561,56,o),
(413,56,cs)
);
}
);
width = 826;
}
);
note = or_ttha;
unicode = 2848;
}
{
glyphname = or_tha;
layers = (
{
background = {
shapes = (
{
closed = 1;
nodes = (
(634,234,l),
(624,240,l),
(605,214,ls),
(537,122,o),
(483,55,o),
(372,55,cs),
(271,55,o),
(194,105,o),
(194,200,cs),
(194,370,o),
(498,307,o),
(498,516,cs),
(498,625,o),
(392,676,o),
(267,669,cs),
(154,658,o),
(90,577,o),
(108,453,cs),
(113,418,l),
(183,427,l),
(178,461,ls),
(165,550,o),
(200,606,o),
(273,613,cs),
(369,618,o),
(428,586,o),
(428,516,cs),
(428,353,o),
(124,410,o),
(124,200,cs),
(124,71,o),
(239,-1,o),
(372,-1,cs),
(501,-1,o),
(575,70,o),
(634,144,c)
);
}
);
};
layerId = m01;
shapes = (
{
pos = (527,0);
ref = or_aakaar;
},
{
closed = 1;
nodes = (
(634,234,l),
(624,240,l),
(605,214,ls),
(537,122,o),
(483,55,o),
(372,55,cs),
(271,55,o),
(194,105,o),
(194,200,cs),
(194,370,o),
(498,307,o),
(498,516,cs),
(498,625,o),
(392,676,o),
(267,669,cs),
(154,658,o),
(90,577,o),
(108,453,cs),
(113,418,l),
(183,427,l),
(178,461,ls),
(165,550,o),
(200,606,o),
(273,613,cs),
(369,618,o),
(428,586,o),
(428,516,cs),
(428,353,o),
(124,410,o),
(124,200,cs),
(124,71,o),
(239,-1,o),
(372,-1,cs),
(501,-1,o),
(575,70,o),
(634,144,c)
);
}
);
width = 737;
}
);
note = or_tha;
unicode = 2853;
}
{
glyphname = "ba-orya";
layers = (
{
backgroundImage = {
imagePath = "../../../../ba.png";
pos = (6,0);
};
layerId = m01;
shapes = (
{
closed = 1;
nodes = (
(219,262,o),
(257,298,o),
(311,298,cs),
(370,298,o),
(412,262,o),
(412,211,cs),
(412,157,o),
(370,119,o),
(311,119,cs),
(257,119,o),
(219,157,o),
(219,211,cs)
);
},
{
closed = 1;
nodes = (
(414,118,l),
(422,-11,l),
(479,-11,l),
(481,217,l),
(418,215,l)
);
},
{
closed = 1;
nodes = (
(418,97,l),
(411,134,l),
(389,96,l),
(394,93,l),
(409,96,l)
);
},
{
closed = 1;
nodes = (
(184,299,l),
(162,280,o),
(146,236,o),
(146,207,cs),
(146,124,o),
(212,66,o),
(307,66,cs),
(357,66,o),
(398,87,o),
(423,118,cs),
(449,150,o),
(481,167,o),
(481,211,cs),
(481,298,o),
(411,354,o),
(311,354,cs),
(296,354,o),
(271,354,o),
(245,352,c)
);
},
{
closed = 1;
nodes = (
(628,249,o),
(640,295,o),
(642,340,cs),
(642,538,o),
(512,672,o),
(327,672,cs),
(164,672,o),
(50,576,o),
(50,430,cs),
(50,384,o),
(83,337,o),
(130,315,cs),
(176,295,o),
(213,296,o),
(246,296,cs),
(274,296,l),
(274,352,l),
(246,352,ls),
(213,352,o),
(194,352,o),
(163,364,cs),
(144,373,o),
(120,383,o),
(120,430,cs),
(120,541,o),
(200,611,o),
(327,611,cs),
(478,611,o),
(572,507,o),
(572,341,c),
(566,170,l),
(628,177,l),
(628,211,ls)
);
},
{
closed = 1;
nodes = (
(171,284,l),
(205,295,l),
(164,310,l),
(162,304,l),
(168,290,l)
);
}
);
width = 692;
}
);
note = or_ba;
unicode = 2860;
}
{
glyphname = or_va;
layers = (
{
layerId = m01;
shapes = (
{
ref = or_ba;
},
{
closed = 1;
nodes = (
(310,251,o),
(329,251,qs),
(348,251,o),
(377,226,o),
(377,208,qs),
(377,189,o),
(348,164,o),
(329,164,qs),
(310,164,o),
(281,189,o),
(281,208,qs),
(281,226,o)
);
}
);
width = 734;
}
);
note = or_va;
unicode = 2869;
}
{
glyphname = "sha-orya";
layers = (
{
background = {
shapes = (
{
closed = 1;
nodes = (
(294,189,q),
(306,188,o),
(320,183,qs),
(328,179,o),
(336,175,qs),
(349,167,o),
(358,159,qs),
(367,150,o),
(380,129,o),
(387,105,o),
(387,92,qs),
(387,75,o),
(377,46,o),
(366,34,qs),
(355,20,o),
(342,13,qs),
(327,5,o),
(312,6,qs),
(305,6,o),
(298,9,q),
(289,11,o),
(271,22,o),
(264,29,qs),
(256,36,o),
(249,45,qs),
(239,59,o),
(233,76,qs),
(228,93,o),
(228,111,qs),
(228,117,o),
(229,123,qs),
(230,129,o),
(232,136,qs),
(236,150,o),
(252,173,o),
(263,180,qs),
(270,185,o),
(284,190,o),
(291,190,qs),
(292,190,o)
);
},
{
closed = 1;
nodes = (
(149,468,qs),
(95,448,o),
(67,408,qs),
(50,384,o),
(44,356,qs),
(43,350,l),
(46,344,ls),
(87,253,o),
(194,218,q),
(155,191,o),
(141,147,qs),
(136,128,o),
(136,108,qs),
(136,61,o),
(166,20,qs),
(214,-45,o),
(300,-51,qs),
(307,-52,o),
(314,-52,qs),
(353,-52,o),
(425,-22,o),
(449,8,qs),
(479,45,o),
(479,92,qs),
(479,129,o),
(459,161,qs),
(423,219,o),
(325,247,qs),
(312,250,o),
(286,256,qs),
(231,270,o),
(208,281,qs),
(162,305,o),
(137,354,q),
(142,371,o),
(151,384,qs),
(180,425,o),
(241,425,qs),
(285,425,o),
(327,406,qs),
(379,383,l),
(398,421,l),
(400,425,l),
(409,442,l),
(306,503,l),
(286,522,o),
(286,552,qs),
(286,562,o),
(290,573,qs),
(297,593,o),
(329,618,o),
(378,635,o),
(408,635,qs),
(471,635,o),
(526,594,qs),
(575,558,o),
(599,500,qs),
(601,496,l),
(601,-7,l),
(693,-7,l),
(693,687,l),
(601,687,l),
(601,628,l),
(599,630,o),
(597,631,q),
(531,681,o),
(446,691,qs),
(427,693,o),
(408,693,qs),
(354,693,o),
(306,676,qs),
(268,663,o),
(242,642,qs),
(212,618,o),
(200,586,qs),
(194,569,o),
(194,551,qs),
(194,512,o),
(219,482,q),
(181,479,o)
);
}
);
};
backgroundImage = {
imagePath = "../../../../sha.png";
scale = (1.5769,1.5769);
};
layerId = m01;
shapes = (
{
closed = 1;
nodes = (
(561,17,l),
(623,17,l),
(623,646,l),
(561,646,l)
);
},
{
closed = 1;
nodes = (
(383,-3,o),
(445,59,o),
(445,132,cs),
(445,205,o),
(383,267,o),
(303,267,cs),
(223,267,o),
(161,205,o),
(161,132,cs),
(161,59,o),
(223,-3,o),
(303,-3,cs)
);
},
{
closed = 1;
nodes = (
(265,53,o),
(231,87,o),
(231,132,cs),
(231,177,o),
(265,211,o),
(303,211,cs),
(341,211,o),
(375,177,o),
(375,132,cs),
(375,87,o),
(341,53,o),
(303,53,cs)
);
},
{
closed = 1;
nodes = (
(608,591,l),
(545,644,o),
(459,676,o),
(379,673,cs),
(313,671,o),
(252,643,o),
(219,596,cs),
(168,525,o),
(200,470,o),
(261,432,cs),
(285,417,l),
(319,451,l),
(293,466,ls),
(265,482,o),
(250,529,o),
(275,564,cs),
(301,600,o),
(336,615,o),
(381,617,cs),
(440,619,o),
(522,596,o),
(589,522,cs),
(608,500,l)
);
},
{
closed = 1;
nodes = (
(337,462,o),
(271,483,o),
(214,483,cs),
(151,483,o),
(53,442,o),
(53,366,cs),
(53,273,o),
(141,219,o),
(243,206,cs),
(270,203,l),
(284,256,l),
(256,260,ls),
(185,269,o),
(123,305,o),
(123,366,cs),
(123,404,o),
(177,427,o),
(214,427,cs),
(257,427,o),
(305,412,o),
(350,388,cs),
(376,374,l),
(409,424,l),
(382,438,ls)
);
}
);
width = 693;
}
);
note = or_sha;
unicode = 2870;
}
{
glyphname = or_sa;
layers = (
{
background = {
shapes = (
{
closed = 1;
nodes = (
(597,357,l),
(599,529,o),
(488,664,o),
(345,664,cs),
(162,664,o),
(71,571,o),
(71,453,cs),
(71,389,o),
(88,328,o),
(143,292,cs),
(194,259,o),
(275,247,o),
(346,256,c),
(351,268,l),
(153,157,l),
(195,72,l),
(208,128,l),
(512,280,l),
(495,325,l),
(435,308,o),
(378,299,o),
(343,302,cs),
(216,311,o),
(136,362,o),
(136,435,cs),
(136,543,o),
(217,603,o),
(345,603,cs),
(470,603,o),
(549,457,o),
(549,324,c)
);
},
{
closed = 1;
nodes = (
(542,575,l),
(548,7,l),
(606,7,l),
(606,672,l),
(550,672,l)
);
},
{
closed = 1;
nodes = (
(532,559,l),
(538,548,l),
(556,550,l),
(544,570,l)
);
},
{
closed = 1;
nodes = (
(651,-44,l),
(662,11,l),
(153,157,l),
(131,92,l)
);
},
{
closed = 1;
nodes = (
(232,141,l),
(210,153,l),
(193,134,l),
(224,127,l)
);
},
{
closed = 1;
nodes = (
(311,241,l),
(336,246,l),
(338,261,l),
(308,257,l)
);
}
);
};
layerId = m01;
shapes = (
{
closed = 1;
nodes = (
(551,17,l),
(610,17,l),
(610,646,l),
(546,646,l)
);
},
{
closed = 1;
nodes = (
(570,546,o),
(487,672,o),
(305,672,cs),
(185,672,o),
(52,590,o),
(52,453,cs),
(52,262,o),
(280,195,o),
(435,254,c),
(414,298,l),
(131,134,l),
(131,96,l),
(642,-35,l),
(659,19,l),
(201,136,l),
(201,106,l),
(498,278,l),
(473,330,l),
(286,259,o),
(122,309,o),
(122,453,cs),
(122,555,o),
(217,616,o),
(305,616,cs),
(436,616,o),
(513,517,o),
(539,420,cs),
(548,386,l),
(610,401,l),
(601,434,ls)
);
}
);
width = 677;
}
);
note = or_sa;
unicode = 2872;
}
{
glyphname = or_nukta;
layers = (
{
layerId = m01;
shapes = (
{
closed = 1;
nodes = (
(-430,-210,o),
(-409,-210,qs),
(-388,-210,o),
(-354,-181,o),
(-354,-160,qs),
(-354,-139,o),
(-388,-111,o),
(-409,-111,qs),
(-430,-111,o),
(-462,-139,o),
(-462,-160,qs),
(-462,-181,o)
);
}
);
userData = {
assembly = "PUSHW[ ]	/* 4 values pushed */
6 5 0 4
CALL[ ]	/* CallFunction */
NPUSHW[ ]	/* 31 values pushed */
6 6 22 6 38 6 54 6 70 6 86 6 102 6 118 6 134 6 150 6 166 6 182 6 198 6 214 6 230 6 15
DELTAP1[ ]	/* DeltaExceptionP1 */
NPUSHW[ ]	/* 3 values pushed */
245 6 1
DELTAP1[ ]	/* DeltaExceptionP1 */
NPUSHW[ ]	/* 3 values pushed */
5 6 1
DELTAP2[ ]	/* DeltaExceptionP2 */
SVTCA[0]	/* SetFreedomAndProjectionVectorToAxis */
PUSHW[ ]	/* 4 values pushed */
3 3 9 4
CALL[ ]	/* CallFunction */
IUP[0]	/* InterpolateUntPts */
IUP[1]	/* InterpolateUntPts */";
};
width = 0;
}
);
note = or_nukta;
unicode = 2876;
}
{
glyphname = "aasign-orya";
layers = (
{
layerId = m01;
shapes = (
{
closed = 1;
nodes = (
(55,17,l),
(117,17,l),
(117,646,l),
(55,646,l)
);
}
);
width = 172;
}
);
note = or_aakaar;
unicode = 2878;
}
{
glyphname = or_rukaar;
layers = (
{
layerId = m01;
shapes = (
{
closed = 1;
nodes = (
(-18,-402,qs),
(-39,-452,o),
(-116,-472,q),
(-117,-462,o),
(-117,-452,qs),
(-117,-401,o),
(-91,-358,qs),
(-80,-340,o),
(-55,-318,o),
(-48,-318,qs),
(-42,-318,o),
(-35,-324,qs),
(-16,-338,o),
(-12,-365,q),
(-12,-369,o),
(-12,-373,qs),
(-12,-388,o)
);
},
{
closed = 1;
nodes = (
(-208,-470,q),
(-227,-462,o),
(-259,-429,o),
(-266,-403,qs),
(-270,-388,o),
(-270,-372,qs),
(-270,-332,o),
(-246,-300,qs),
(-219,-263,o),
(-180,-255,qs),
(-149,-248,l),
(-149,-78,l),
(-241,-78,l),
(-241,-209,l),
(-257,-215,o),
(-272,-224,qs),
(-344,-266,o),
(-359,-341,qs),
(-362,-356,o),
(-362,-393,o),
(-357,-412,qs),
(-347,-449,o),
(-321,-477,qs),
(-275,-525,o),
(-197,-534,qs),
(-181,-536,o),
(-164,-536,qs),
(-117,-536,o),
(-65,-521,qs),
(1,-501,o),
(38,-465,qs),
(60,-443,o),
(80,-395,o),
(80,-373,qs),
(80,-366,o),
(80,-360,q),
(74,-315,o),
(35,-286,qs),
(0,-261,o),
(-48,-261,qs),
(-65,-261,o),
(-81,-264,qs),
(-141,-278,o),
(-177,-338,qs),
(-209,-390,o),
(-209,-452,qs),
(-209,-461,o)
);
}
);
width = 0;
}
);
note = or_rukaar;
unicode = 2883;
}
{
glyphname = "esign-orya";
layers = (
{
backgroundImage = {
imagePath = "../../../../o-kara.png";
pos = (-13,0);
};
layerId = m01;
shapes = (
{
closed = 1;
nodes = (
(452,604,o),
(404,672,o),
(263,672,cs),
(194,672,o),
(146,630,o),
(114,588,cs),
(49,502,o),
(38,395,o),
(61,274,cs),
(82,162,o),
(156,0,o),
(318,0,cs),
(435,0,o),
(480,115,o),
(425,183,cs),
(361,262,o),
(272,277,o),
(149,265,cs),
(121,262,l),
(127,206,l),
(155,209,ls),
(264,219,o),
(319,212,o),
(371,147,cs),
(385,130,o),
(383,56,o),
(318,56,cs),
(210,56,o),
(148,182,o),
(129,284,cs),
(108,395,o),
(123,492,o),
(170,554,cs),
(201,595,o),
(229,615,o),
(265,616,cs),
(338,618,o),
(373,586,o),
(405,535,cs),
(452,459,l),
(500,476,l),
(488,508,ls)
);
}
);
width = 550;
}
);
note = or_ekaar;
unicode = 2887;
}
{
glyphname = "ausign-orya";
layers = (
{
background = {
shapes = (
{
closed = 1;
nodes = (
(1376,18,l),
(1376,709,l),
(1404,717,o),
(1453,750,o),
(1491,795,o),
(1512,850,o),
(1512,880,qs),
(1512,918,o),
(1477,987,o),
(1450,1013,qs),
(1418,1043,o),
(1333,1060,o),
(1291,1060,qs),
(1224,1060,o),
(1092,1038,o),
(1026,1024,qs),
(966,1012,o),
(850,988,o),
(789,988,qs),
(774,988,o),
(742,992,o),
(715,1005,o),
(698,1029,o),
(698,1048,q),
(638,1048,l),
(640,1013,o),
(666,967,o),
(707,940,o),
(761,929,o),
(792,929,qs),
(855,929,o),
(979,952,o),
(1100,980,o),
(1224,1003,o),
(1287,1003,qs),
(1313,1003,o),
(1372,991,o),
(1421,965,o),
(1452,921,o),
(1452,889,qs),
(1452,861,o),
(1429,813,o),
(1392,778,o),
(1341,760,o),
(1314,763,q),
(1314,18,l)
);
}
);
};
layerId = m01;
shapes = (
{
closed = 1;
nodes = (
(651,299,qs),
(693,299,o),
(693,342,qs),
(693,383,o),
(651,383,qs),
(608,383,o),
(608,342,qs),
(608,299,o)
);
},
{
closed = 1;
nodes = (
(716,113,qs),
(759,113,o),
(759,156,qs),
(759,199,o),
(716,199,qs),
(675,199,o),
(675,156,qs),
(675,113,o)
);
},
{
closed = 1;
nodes = (
(953,82,qs),
(953,104,o),
(928,125,o),
(907,125,qs),
(866,125,o),
(866,82,qs),
(866,62,o),
(886,39,o),
(907,39,qs),
(952,39,o)
);
},
{
closed = 1;
nodes = (
(1100,113,qs),
(1143,113,o),
(1143,156,qs),
(1143,199,o),
(1100,199,qs),
(1057,199,o),
(1057,156,qs),
(1057,113,o)
);
},
{
closed = 1;
nodes = (
(759,525,qs),
(759,568,o),
(716,568,qs),
(675,568,o),
(675,525,qs),
(675,505,o),
(695,482,o),
(716,482,qs),
(759,482,o)
);
},
{
closed = 1;
nodes = (
(953,577,o),
(953,599,qs),
(953,620,o),
(928,641,o),
(907,641,qs),
(866,641,o),
(866,599,qs),
(865,556,o),
(907,556,qs),
(928,556,o)
);
},
{
closed = 1;
nodes = (
(1100,482,qs),
(1143,482,o),
(1143,525,qs),
(1143,568,o),
(1100,568,qs),
(1057,568,o),
(1057,525,qs),
(1057,482,o)
);
},
{
closed = 1;
nodes = (
(1166,299,qs),
(1210,299,o),
(1210,342,qs),
(1210,384,o),
(1166,384,qs),
(1123,384,o),
(1123,342,qs),
(1123,299,o)
);
},
{
closed = 1;
nodes = (
(452,604,o),
(404,672,o),
(263,672,cs),
(194,672,o),
(146,630,o),
(114,588,cs),
(49,502,o),
(38,395,o),
(61,274,cs),
(82,162,o),
(156,0,o),
(318,0,cs),
(435,0,o),
(480,115,o),
(425,183,cs),
(361,262,o),
(272,277,o),
(149,265,cs),
(121,262,l),
(127,206,l),
(155,209,ls),
(264,219,o),
(319,212,o),
(371,147,cs),
(385,130,o),
(383,56,o),
(318,56,cs),
(210,56,o),
(148,182,o),
(129,284,cs),
(108,395,o),
(123,492,o),
(170,554,cs),
(201,595,o),
(229,615,o),
(265,616,cs),
(338,618,o),
(373,586,o),
(405,535,cs),
(452,459,l),
(500,476,l),
(488,508,ls)
);
},
{
pos = (1259,-3);
ref = "aasign-orya";
scale = (1,1.1732);
},
{
closed = 1;
nodes = (
(667,951,o),
(742,924,o),
(809,924,cs),
(912,924,o),
(1205,991,o),
(1308,996,cs),
(1415,1001,o),
(1463,922,o),
(1445,852,cs),
(1435,813,o),
(1384,771,o),
(1342,761,cs),
(1314,755,l),
(1330,700,l),
(1358,707,ls),
(1427,723,o),
(1499,783,o),
(1513,838,cs),
(1543,955,o),
(1451,1059,o),
(1304,1052,cs),
(1195,1047,o),
(902,980,o),
(809,980,cs),
(761,980,o),
(721,995,o),
(705,1029,cs),
(690,1060,l),
(627,1035,l),
(641,1005,ls)
);
}
);
width = 1502;
}
);
note = or_aukaar;
unicode = 2892;
}
{
glyphname = "overline-orya";
layers = (
{
layerId = m01;
shapes = (
{
closed = 1;
nodes = (
(594,299,qs),
(638,299,o),
(638,342,qs),
(638,384,o),
(594,384,qs),
(551,384,o),
(551,342,qs),
(551,299,o)
);
},
{
closed = 1;
nodes = (
(528,482,qs),
(571,482,o),
(571,525,qs),
(571,568,o),
(528,568,qs),
(485,568,o),
(485,525,qs),
(485,482,o)
);
},
{
closed = 1;
nodes = (
(380,577,o),
(380,599,qs),
(380,620,o),
(356,641,o),
(335,641,qs),
(293,641,o),
(293,599,qs),
(293,556,o),
(335,556,qs),
(356,556,o)
);
},
{
closed = 1;
nodes = (
(186,525,qs),
(186,568,o),
(143,568,qs),
(102,568,o),
(102,525,qs),
(102,505,o),
(122,482,o),
(143,482,qs),
(186,482,o)
);
},
{
closed = 1;
nodes = (
(528,113,qs),
(571,113,o),
(571,156,qs),
(571,199,o),
(528,199,qs),
(485,199,o),
(485,156,qs),
(485,113,o)
);
},
{
closed = 1;
nodes = (
(380,82,qs),
(380,104,o),
(356,125,o),
(335,125,qs),
(293,125,o),
(293,82,qs),
(293,62,o),
(314,39,o),
(335,39,qs),
(380,39,o)
);
},
{
closed = 1;
nodes = (
(143,113,qs),
(186,113,o),
(186,156,qs),
(186,199,o),
(143,199,qs),
(102,199,o),
(102,156,qs),
(102,113,o)
);
},
{
closed = 1;
nodes = (
(78,299,qs),
(120,299,o),
(120,342,qs),
(120,383,o),
(78,383,qs),
(35,383,o),
(35,342,qs),
(35,299,o)
);
},
{
closed = 1;
nodes = (
(-450,762,l),
(-450,706,l),
(138,706,l),
(138,762,l)
);
}
);
width = 688;
}
);
note = uni0B55;
unicode = 2901;
}
{
glyphname = "partialausign-orya";
layers = (
{
layerId = m01;
shapes = (
{
closed = 1;
nodes = (
(93,726,qs),
(90,721,l),
(89,-9,l),
(181,-9,l),
(182,711,l),
(207,757,o),
(207,809,qs),
(207,824,o),
(205,840,qs),
(194,911,o),
(139,962,qs),
(79,1016,o),
(-15,1028,qs),
(-36,1030,o),
(-58,1030,qs),
(-115,1030,o),
(-230,999,o),
(-401,926,o),
(-438,914,qs),
(-519,889,o),
(-606,889,qs),
(-709,889,o),
(-804,925,qs),
(-829,934,l),
(-852,876,l),
(-734,831,o),
(-606,831,qs),
(-497,831,o),
(-396,863,qs),
(-354,876,o),
(-186,948,o),
(-96,972,o),
(-58,972,qs),
(15,972,o),
(64,928,qs),
(104,891,o),
(113,834,qs),
(115,822,o),
(115,809,qs),
(115,764,o)
);
}
);
width = 279;
}
);
note = or_aulengthmk;
unicode = 2903;
}
{
glyphname = or_yya;
layers = (
{
backgroundImage = {
imagePath = "../../../../ya1.png";
pos = (195,-142);
};
layerId = m01;
shapes = (
{
closed = 1;
nodes = (
(678,-243,l),
(658,-223,l),
(688,-199,o),
(722,-160,o),
(723,-123,cs),
(726,-15,o),
(630,46,o),
(544,15,cs),
(490,-6,o),
(453,-73,o),
(473,-135,c),
(576,-135,l),
(574,-101,l),
(533,-83,l),
(533,-71,o),
(548,-43,o),
(567,-38,cs),
(614,-27,o),
(663,-58,o),
(659,-112,cs),
(656,-145,o),
(622,-183,o),
(589,-205,c),
(583,-248,l),
(637,-286,l),
(752,-355,l),
(774,-320,l)
);
},
{
ref = or_ya;
}
);
width = 714;
}
);
note = or_yya;
unicode = 2911;
}
{
glyphname = "two-orya";
layers = (
{
layerId = m01;
shapes = (
{
closed = 1;
nodes = (
(197,422,qs),
(254,342,o),
(350,307,q),
(336,288,o),
(318,269,qs),
(234,176,o),
(7,34,q),
(44,-25,l),
(146,39,o),
(217,89,qs),
(337,172,o),
(399,240,qs),
(490,340,o),
(513,450,qs),
(520,482,o),
(520,513,qs),
(520,557,o),
(491,633,o),
(464,661,qs),
(432,693,o),
(387,707,qs),
(359,716,o),
(329,716,qs),
(283,716,o),
(244,696,qs),
(185,668,o),
(163,611,qs),
(152,582,o),
(152,550,qs),
(152,485,o)
);
},
{
closed = 1;
nodes = (
(281,446,qs),
(255,482,o),
(247,519,qs),
(244,535,o),
(244,575,o),
(252,597,qs),
(267,635,o),
(300,651,qs),
(315,658,o),
(329,658,qs),
(358,658,o),
(386,630,qs),
(405,611,o),
(428,550,o),
(428,513,qs),
(428,439,o),
(386,362,q),
(322,389,o)
);
}
);
width = 555;
}
);
note = or_two;
unicode = 2920;
}
{
glyphname = "three-orya";
layers = (
{
layerId = m01;
shapes = (
{
closed = 1;
nodes = (
(310,602,qs),
(335,585,o),
(348,558,qs),
(355,544,o),
(358,528,q),
(358,398,l),
(299,436,l),
(284,412,ls),
(240,343,o),
(172,300,q),
(147,334,o),
(126,406,o),
(126,464,o),
(131,487,qs),
(145,545,o),
(185,582,qs),
(209,604,o),
(235,613,qs),
(249,617,o),
(270,617,o),
(277,616,qs),
(294,613,o)
);
},
{
closed = 1;
nodes = (
(502,689,qs),
(439,677,o),
(403,620,q),
(392,631,o),
(379,640,qs),
(328,675,o),
(263,675,qs),
(227,675,o),
(193,664,qs),
(145,649,o),
(108,614,qs),
(34,545,o),
(34,434,qs),
(34,400,o),
(45,363,qs),
(66,291,o),
(121,239,qs),
(148,213,l),
(187,232,ls),
(234,254,o),
(275,286,qs),
(323,324,o),
(358,374,q),
(358,149,l),
(405,149,l),
(415,149,l),
(461,149,l),
(460,513,l),
(464,542,o),
(486,598,o),
(517,631,o),
(529,634,qs),
(530,634,o),
(531,634,qs),
(538,634,o),
(546,629,qs),
(564,618,o),
(573,594,qs),
(577,583,o),
(578,572,q),
(578,227,l),
(671,227,l),
(671,574,l),
(669,592,o),
(663,607,qs),
(648,647,o),
(575,692,o),
(531,692,qs),
(516,692,o)
);
}
);
width = 712;
}
);
note = or_three;
unicode = 2921;
}
{
glyphname = "four-orya";
layers = (
{
layerId = m01;
shapes = (
{
closed = 1;
nodes = (
(551,510,qs),
(530,522,o),
(504,533,q),
(638,604,o),
(780,655,q),
(758,714,l),
(734,705,ls),
(571,646,o),
(420,563,q),
(262,620,o),
(108,687,qs),
(81,699,l),
(55,640,l),
(200,577,o),
(349,522,q),
(325,506,o),
(307,490,qs),
(263,451,o),
(245,401,qs),
(234,371,o),
(234,316,o),
(240,295,qs),
(254,244,o),
(342,174,o),
(405,165,qs),
(422,162,o),
(441,162,qs),
(501,162,o),
(552,189,qs),
(614,221,o),
(641,281,qs),
(656,315,o),
(656,393,o),
(637,428,qs),
(611,477,o)
);
},
{
closed = 1;
nodes = (
(383,457,qs),
(402,474,o),
(432,493,q),
(468,479,o),
(489,468,qs),
(531,444,o),
(549,410,qs),
(564,384,o),
(564,323,o),
(552,297,qs),
(533,254,o),
(492,233,qs),
(468,220,o),
(441,220,qs),
(402,220,o),
(371,245,qs),
(326,281,o),
(326,343,qs),
(326,364,o),
(335,388,qs),
(349,427,o)
);
}
);
width = 846;
}
);
note = or_four;
unicode = 2922;
}
{
glyphname = or_five;
layers = (
{
layerId = m01;
shapes = (
{
closed = 1;
nodes = (
(308,299,qs),
(344,330,o),
(387,349,q),
(410,341,o),
(439,334,qs),
(443,333,o),
(450,331,q),
(482,304,o),
(482,260,qs),
(482,222,o),
(457,181,qs),
(432,141,o),
(368,99,o),
(308,99,o),
(283,120,qs),
(249,149,o),
(249,193,qs),
(249,248,o)
);
},
{
closed = 1;
nodes = (
(565,310,q),
(596,303,o),
(613,298,qs),
(686,274,o),
(713,215,qs),
(726,186,o),
(726,155,qs),
(726,152,o),
(726,149,q),
(818,146,l),
(819,152,o),
(819,155,qs),
(819,195,o),
(783,271,o),
(710,331,o),
(656,349,qs),
(621,360,o),
(562,371,qs),
(534,375,o),
(511,380,q),
(563,408,o),
(601,446,qs),
(657,503,o),
(657,568,qs),
(657,592,o),
(649,614,qs),
(636,649,o),
(574,703,o),
(527,713,qs),
(505,718,o),
(457,718,o),
(432,712,qs),
(352,694,o),
(294,627,qs),
(250,577,o),
(243,522,qs),
(242,512,o),
(242,483,o),
(247,465,q),
(248,463,o),
(248,462,q),
(155,489,o),
(65,522,qs),
(40,531,l),
(19,472,l),
(161,421,o),
(306,382,q),
(266,361,o),
(233,332,qs),
(157,266,o),
(157,193,qs),
(157,130,o),
(210,85,qs),
(261,41,o),
(338,41,qs),
(407,41,o),
(465,79,qs),
(512,110,o),
(574,212,o),
(574,260,qs),
(574,287,o)
);
},
{
closed = 1;
nodes = (
(522,476,qs),
(485,438,o),
(428,413,q),
(411,418,o),
(390,423,qs),
(380,425,o),
(370,428,q),
(363,434,o),
(357,440,qs),
(334,466,o),
(334,503,qs),
(334,552,o),
(416,647,o),
(463,658,qs),
(473,660,o),
(482,660,qs),
(509,660,o),
(533,639,qs),
(551,625,o),
(559,601,qs),
(565,585,o),
(565,560,o),
(564,551,qs),
(557,511,o)
);
}
);
width = 848;
}
);
note = or_five;
unicode = 2923;
}
{
glyphname = "eight-orya";
layers = (
{
layerId = m01;
shapes = (
{
closed = 1;
nodes = (
(73,677,l),
(64,673,l),
(42,665,l),
(42,12,l),
(134,12,l),
(134,623,l),
(716,623,l),
(716,681,l),
(84,681,l)
);
}
);
width = 744;
}
);
note = or_eight;
unicode = 2926;
}
{
glyphname = "nine-orya";
layers = (
{
layerId = m01;
shapes = (
{
closed = 1;
nodes = (
(428,308,l),
(438,308,l),
(453,308,l),
(453,695,l),
(392,695,l),
(392,413,l),
(190,580,l),
(181,583,l),
(168,587,l),
(141,596,l),
(117,584,l),
(101,575,l),
(91,570,l),
(87,563,ls),
(74,538,o),
(66,517,qs),
(58,494,o),
(53,472,qs),
(48,451,o),
(45,428,qs),
(43,407,o),
(43,388,qs),
(43,353,o),
(50,319,qs),
(58,284,o),
(73,253,qs),
(89,219,o),
(114,188,qs),
(140,156,o),
(176,125,qs),
(226,82,o),
(290,45,qs),
(345,13,o),
(417,-10,qs),
(440,-17,l),
(459,41,l),
(402,59,o),
(297,119,o),
(251,158,qs),
(219,186,o),
(197,214,qs),
(175,241,o),
(161,270,qs),
(148,297,o),
(142,328,qs),
(135,357,o),
(135,388,qs),
(135,419,o),
(147,481,o),
(159,510,q),
(405,308,l)
);
}
);
width = 517;
}
);
note = or_nine;
unicode = 2927;
}
{
glyphname = or_isshar;
layers = (
{
layerId = m01;
shapes = (
{
closed = 1;
nodes = (
(574,649,l),
(511,674,l),
(232,119,l),
(85,397,l),
(23,372,l),
(231,0,l)
);
},
{
closed = 1;
nodes = (
(258,349,o),
(284,370,o),
(284,398,cs),
(284,425,o),
(258,446,o),
(229,446,cs),
(200,446,o),
(173,426,o),
(173,398,cs),
(173,369,o),
(200,349,o),
(229,349,cs)
);
}
);
width = 602;
}
);
note = or_isshar;
unicode = 2928;
}
{
glyphname = "wa-orya";
layers = (
{
background = {
shapes = (
{
closed = 1;
nodes = (
(699,343,qs),
(682,355,o),
(660,363,q),
(706,392,o),
(729,438,qs),
(747,473,o),
(747,508,qs),
(747,543,o),
(712,605,o),
(677,628,qs),
(619,666,o),
(538,666,qs),
(476,666,o),
(422,642,qs),
(378,621,o),
(316,553,o),
(304,511,qs),
(297,486,o),
(297,460,qs),
(297,455,o),
(298,434,q),
(323,427,ls),
(335,423,o),
(363,423,o),
(375,427,qs),
(396,433,o),
(419,461,o),
(419,477,qs),
(419,501,o),
(397,517,q),
(408,544,o),
(450,586,o),
(505,611,o),
(538,611,qs),
(581,611,o),
(613,590,qs),
(635,576,o),
(659,533,o),
(659,481,o),
(645,455,qs),
(624,413,o),
(585,394,qs),
(355,291,l),
(361,273,l),
(362,270,l),
(376,229,l),
(579,320,l),
(583,320,o),
(587,320,qs),
(613,320,o),
(634,306,qs),
(655,292,o),
(663,268,qs),
(667,256,o),
(667,243,qs),
(667,215,o),
(651,189,qs),
(630,157,o),
(590,135,qs),
(544,110,o),
(483,103,qs),
(465,101,o),
(448,101,qs),
(409,101,o),
(373,110,qs),
(319,124,o),
(224,199,o),
(169,309,o),
(169,438,o),
(192,494,qs),
(228,579,o),
(307,638,qs),
(372,687,o),
(449,706,q),
(435,762,l),
(417,757,ls),
(319,733,o),
(239,674,qs),
(148,605,o),
(107,508,qs),
(81,445,o),
(81,301,o),
(145,172,o),
(205,125,qs),
(241,97,o),
(284,78,q),
(278,56,o),
(278,32,qs),
(278,19,o),
(280,5,qs),
(288,-50,o),
(325,-86,qs),
(364,-124,o),
(426,-135,qs),
(448,-139,o),
(472,-139,qs),
(524,-139,o),
(578,-121,q),
(578,-200,l),
(666,-200,l),
(666,104,l),
(709,132,o),
(733,169,qs),
(748,195,o),
(753,222,qs),
(755,232,o),
(755,262,o),
(749,279,qs),
(736,318,o)
);
},
{
closed = 1;
nodes = (
(542,-73,o),
(510,-80,qs),
(489,-84,o),
(472,-84,qs),
(428,-84,o),
(399,-57,qs),
(374,-32,o),
(367,10,qs),
(366,21,o),
(366,32,qs),
(366,43,o),
(367,54,q),
(406,46,o),
(448,46,qs),
(473,46,o),
(498,49,qs),
(538,53,o),
(573,63,q),
(573,-58,l)
);
}
);
};
layerId = m01;
shapes = (
{
closed = 1;
nodes = (
(956,17,l),
(1018,17,l),
(1018,367,l),
(956,367,l)
);
},
{
closed = 1;
nodes = (
(533,342,l),
(524,310,l),
(551,304,ls),
(596,294,o),
(634,274,o),
(634,207,cs),
(634,100,o),
(525,52,o),
(412,55,cs),
(289,59,o),
(232,120,o),
(182,175,cs),
(153,208,o),
(120,277,o),
(120,373,cs),
(120,484,o),
(167,576,o),
(273,642,cs),
(329,677,o),
(389,695,o),
(461,695,cs),
(522,695,o),
(619,668,o),
(669,613,cs),
(727,550,o),
(744,505,o),
(744,377,cs),
(744,330,o),
(743,274,o),
(772,218,cs),
(818,130,o),
(953,111,o),
(1007,182,cs),
(1011,187,l),
(1009,219,l),
(971,242,l),
(951,216,ls),
(923,179,o),
(861,192,o),
(834,244,cs),
(815,280,o),
(814,330,o),
(814,377,cs),
(814,515,o),
(797,568,o),
(721,651,cs),
(664,713,o),
(539,751,o),
(461,751,cs),
(375,751,o),
(297,727,o),
(237,690,cs),
(94,601,o),
(50,489,o),
(50,373,cs),
(50,277,o),
(78,196,o),
(130,137,cs),
(176,86,o),
(255,3,o),
(410,-1,cs),
(550,-4,o),
(704,62,o),
(704,207,cs),
(704,312,o),
(629,344,o),
(567,358,cs),
(561,360,l)
);
},
{
closed = 1;
nodes = (
(425,448,o),
(446,483,o),
(437,516,cs),
(427,550,o),
(392,571,o),
(358,562,cs),
(325,553,o),
(302,518,o),
(311,483,cs),
(320,450,o),
(358,430,o),
(391,439,cs)
);
},
{
closed = 1;
nodes = (
(425,538,l),
(423,546,o),
(442,565,o),
(475,565,cs),
(533,565,o),
(583,515,o),
(583,450,cs),
(583,406,o),
(554,367,o),
(542,360,cs),
(389,273,l),
(416,227,l),
(574,310,ls),
(626,337,o),
(653,401,o),
(653,450,cs),
(653,543,o),
(575,621,o),
(475,621,cs),
(405,621,o),
(345,582,o),
(316,527,cs),
(314,523,o),
(316,518,o),
(320,514,c)
);
}
);
width = 1077;
}
);
note = or_wa;
unicode = 2929;
}
{
glyphname = "threequarters-orya";
layers = (
{
layerId = m01;
shapes = (
{
closed = 1;
nodes = (
(264,251,o),
(238,239,o),
(211,239,cs),
(158,239,o),
(111,305,o),
(147,361,cs),
(164,389,l),
(105,419,l),
(87,391,ls),
(21,287,o),
(109,183,o),
(211,183,cs),
(265,183,o),
(310,212,o),
(343,251,cs),
(364,276,l),
(315,312,l),
(294,287,ls)
);
},
{
closed = 1;
nodes = (
(528,17,l),
(590,17,l),
(590,506,l),
(528,506,l)
);
},
{
closed = 1;
nodes = (
(224,462,o),
(200,481,o),
(174,480,cs),
(139,475,o),
(118,439,o),
(96,404,c),
(91,319,l),
(127,383,o),
(142,385,o),
(160,382,cs),
(169,380,o),
(174,378,o),
(181,378,cs),
(208,381,o),
(228,407,o),
(225,435,cs)
);
},
{
closed = 1;
nodes = (
(480,251,o),
(454,239,o),
(427,239,cs),
(374,239,o),
(327,305,o),
(363,361,cs),
(380,389,l),
(321,419,l),
(303,391,ls),
(237,287,o),
(325,183,o),
(427,183,cs),
(481,183,o),
(526,212,o),
(559,251,cs),
(580,276,l),
(531,312,l),
(510,287,ls)
);
}
);
width = 650;
}
);
note = or_threequarters;
unicode = 2932;
}
{
glyphname = "onesixteenth-orya";
layers = (
{
layerId = m01;
shapes = (
{
closed = 1;
nodes = (
(503,646,l),
(439,668,l),
(146,4,l),
(210,-18,l)
);
}
);
width = 620;
}
);
note = or_onesixteenth;
unicode = 2933;
}
{
glyphname = endash;
layers = (
{
layerId = m01;
shapes = (
{
closed = 1;
nodes = (
(0,225,l),
(615,225,l),
(615,291,l),
(0,291,l)
);
}
);
width = 616;
}
);
note = endash;
unicode = 8211;
}
{
glyphname = quoteleft;
layers = (
{
layerId = m01;
shapes = (
{
closed = 1;
nodes = (
(39,554,o),
(61,523,o),
(92,504,o),
(114,504,qs),
(145,504,o),
(179,542,o),
(179,572,qs),
(179,593,o),
(163,618,o),
(138,632,o),
(105,636,o),
(88,636,qs),
(79,636,o),
(92,678,o),
(124,733,o),
(166,787,o),
(187,799,q),
(171,818,l),
(153,811,o),
(139,800,o),
(131,795,q),
(89,760,o),
(28,670,o),
(28,612,qs),
(28,593,o)
);
}
);
userData = {
assembly = "SVTCA[0]	/* SetFreedomAndProjectionVectorToAxis */
PUSHW[ ]	/* 1 value pushed */
6
MDAP[1]	/* MoveDirectAbsPt */
IUP[0]	/* InterpolateUntPts */
IUP[1]	/* InterpolateUntPts */";
};
width = 226;
}
);
note = quoteleft;
unicode = 8216;
}
{
glyphname = quotesinglbase;
layers = (
{
layerId = m01;
shapes = (
{
closed = 1;
nodes = (
(176,64,o),
(154,95,o),
(122,114,o),
(100,114,qs),
(69,114,o),
(36,77,o),
(36,47,qs),
(36,25,o),
(51,0,o),
(77,-14,o),
(109,-18,o),
(127,-18,qs),
(135,-18,o),
(122,-60,o),
(90,-115,o),
(48,-168,o),
(28,-180,q),
(43,-200,l),
(62,-192,o),
(76,-182,o),
(84,-177,q),
(126,-141,o),
(187,-52,o),
(187,6,qs),
(187,25,o)
);
}
);
width = 226;
}
);
note = quotesinglbase;
unicode = 8218;
}
{
glyphname = dottedCircle;
layers = (
{
layerId = m01;
shapes = (
{
closed = 1;
nodes = (
(107,299,qs),
(149,299,o),
(149,342,qs),
(149,383,o),
(107,383,qs),
(64,383,o),
(64,342,qs),
(64,299,o)
);
},
{
closed = 1;
nodes = (
(172,113,qs),
(215,113,o),
(215,156,qs),
(215,199,o),
(172,199,qs),
(131,199,o),
(131,156,qs),
(131,113,o)
);
},
{
closed = 1;
nodes = (
(409,82,qs),
(409,104,o),
(385,125,o),
(364,125,qs),
(322,125,o),
(322,82,qs),
(322,62,o),
(343,39,o),
(364,39,qs),
(409,39,o)
);
},
{
closed = 1;
nodes = (
(556,113,qs),
(599,113,o),
(599,156,qs),
(599,199,o),
(556,199,qs),
(514,199,o),
(514,156,qs),
(514,113,o)
);
},
{
closed = 1;
nodes = (
(215,525,qs),
(215,568,o),
(172,568,qs),
(131,568,o),
(131,525,qs),
(131,505,o),
(151,482,o),
(172,482,qs),
(215,482,o)
);
},
{
closed = 1;
nodes = (
(409,577,o),
(409,599,qs),
(409,620,o),
(385,641,o),
(364,641,qs),
(322,641,o),
(322,599,qs),
(322,556,o),
(364,556,qs),
(385,556,o)
);
},
{
closed = 1;
nodes = (
(556,482,qs),
(599,482,o),
(599,525,qs),
(599,568,o),
(556,568,qs),
(514,568,o),
(514,525,qs),
(514,482,o)
);
},
{
closed = 1;
nodes = (
(624,299,qs),
(667,299,o),
(667,342,qs),
(667,383,o),
(624,383,qs),
(603,383,o),
(580,363,o),
(580,342,qs),
(580,299,o)
);
}
);
userData = {
assembly = "PUSHW[ ]	/* 4 values pushed */
4 5 0 4
CALL[ ]	/* CallFunction */
PUSHW[ ]	/* 4 values pushed */
24 5 19 4
CALL[ ]	/* CallFunction */
PUSHW[ ]	/* 4 values pushed */
30 5 26 4
CALL[ ]	/* CallFunction */
NPUSHW[ ]	/* 31 values pushed */
6 4 22 4 38 4 54 4 70 4 86 4 102 4 118 4 134 4 150 4 166 4 182 4 198 4 214 4 230 4 15
DELTAP1[ ]	/* DeltaExceptionP1 */
NPUSHW[ ]	/* 3 values pushed */
245 4 1
DELTAP1[ ]	/* DeltaExceptionP1 */
NPUSHW[ ]	/* 3 values pushed */
5 4 1
DELTAP2[ ]	/* DeltaExceptionP2 */
PUSHW[ ]	/* 3 values pushed */
8 0 4
SRP1[ ]	/* SetRefPoint1 */
SRP2[ ]	/* SetRefPoint2 */
IP[ ]	/* InterpolatePts */
PUSHW[ ]	/* 1 value pushed */
8
MDAP[1]	/* MoveDirectAbsPt */
PUSHW[ ]	/* 2 values pushed */
12 5
MIRP[10100]	/* MoveIndirectRelPt */
NPUSHW[ ]	/* 3 values pushed */
250 19 1
DELTAP1[ ]	/* DeltaExceptionP1 */
NPUSHW[ ]	/* 3 values pushed */
10 19 1
DELTAP2[ ]	/* DeltaExceptionP2 */
NPUSHW[ ]	/* 31 values pushed */
9 19 25 19 41 19 57 19 73 19 89 19 105 19 121 19 137 19 153 19 169 19 185 19 201 19 217 19 233 19 15
DELTAP1[ ]	/* DeltaExceptionP1 */
NPUSHW[ ]	/* 3 values pushed */
250 26 1
DELTAP1[ ]	/* DeltaExceptionP1 */
NPUSHW[ ]	/* 3 values pushed */
10 26 1
DELTAP2[ ]	/* DeltaExceptionP2 */
NPUSHW[ ]	/* 31 values pushed */
9 26 25 26 41 26 57 26 73 26 89 26 105 26 121 26 137 26 153 26 169 26 185 26 201 26 217 26 233 26 15
DELTAP1[ ]	/* DeltaExceptionP1 */
PUSHW[ ]	/* 1 value pushed */
8
SRP0[ ]	/* SetRefPoint0 */
PUSHW[ ]	/* 1 value pushed */
37
MDRP[10000]	/* MoveDirectRelPt */
PUSHW[ ]	/* 1 value pushed */
12
SRP0[ ]	/* SetRefPoint0 */
PUSHW[ ]	/* 1 value pushed */
41
MDRP[10000]	/* MoveDirectRelPt */
PUSHW[ ]	/* 1 value pushed */
19
SRP0[ ]	/* SetRefPoint0 */
PUSHW[ ]	/* 1 value pushed */
45
MDRP[10000]	/* MoveDirectRelPt */
PUSHW[ ]	/* 1 value pushed */
24
SRP0[ ]	/* SetRefPoint0 */
PUSHW[ ]	/* 1 value pushed */
50
MDRP[10000]	/* MoveDirectRelPt */
PUSHW[ ]	/* 1 value pushed */
26
SRP0[ ]	/* SetRefPoint0 */
PUSHW[ ]	/* 1 value pushed */
53
MDRP[10000]	/* MoveDirectRelPt */
PUSHW[ ]	/* 1 value pushed */
30
SRP0[ ]	/* SetRefPoint0 */
PUSHW[ ]	/* 1 value pushed */
57
MDRP[10000]	/* MoveDirectRelPt */
PUSHW[ ]	/* 3 values pushed */
61 26 30
SRP1[ ]	/* SetRefPoint1 */
SRP2[ ]	/* SetRefPoint2 */
IP[ ]	/* InterpolatePts */
PUSHW[ ]	/* 1 value pushed */
61
MDAP[1]	/* MoveDirectAbsPt */
NPUSHW[ ]	/* 3 values pushed */
250 61 1
DELTAP1[ ]	/* DeltaExceptionP1 */
NPUSHW[ ]	/* 3 values pushed */
10 61 1
DELTAP2[ ]	/* DeltaExceptionP2 */
NPUSHW[ ]	/* 31 values pushed */
9 61 25 61 41 61 57 61 73 61 89 61 105 61 121 61 137 61 153 61 169 61 185 61 201 61 217 61 233 61 15
DELTAP1[ ]	/* DeltaExceptionP1 */
PUSHW[ ]	/* 2 values pushed */
66 5
MIRP[10100]	/* MoveIndirectRelPt */
PUSHW[ ]	/* 1 value pushed */
71
MDRP[11100]	/* MoveDirectRelPt */
SVTCA[0]	/* SetFreedomAndProjectionVectorToAxis */
PUSHW[ ]	/* 4 values pushed */
21 3 16 4
CALL[ ]	/* CallFunction */
PUSHW[ ]	/* 4 values pushed */
10 3 14 4
CALL[ ]	/* CallFunction */
PUSHW[ ]	/* 4 values pushed */
47 3 43 4
CALL[ ]	/* CallFunction */
PUSHW[ ]	/* 4 values pushed */
39 3 34 4
CALL[ ]	/* CallFunction */
PUSHW[ ]	/* 4 values pushed */
2 3 6 4
CALL[ ]	/* CallFunction */
PUSHW[ ]	/* 1 value pushed */
10
SRP0[ ]	/* SetRefPoint0 */
PUSHW[ ]	/* 1 value pushed */
28
MDRP[10000]	/* MoveDirectRelPt */
PUSHW[ ]	/* 1 value pushed */
14
SRP0[ ]	/* SetRefPoint0 */
PUSHW[ ]	/* 1 value pushed */
32
MDRP[10000]	/* MoveDirectRelPt */
PUSHW[ ]	/* 1 value pushed */
39
SRP0[ ]	/* SetRefPoint0 */
PUSHW[ ]	/* 1 value pushed */
55
MDRP[10000]	/* MoveDirectRelPt */
PUSHW[ ]	/* 1 value pushed */
34
SRP0[ ]	/* SetRefPoint0 */
PUSHW[ ]	/* 1 value pushed */
59
MDRP[10000]	/* MoveDirectRelPt */
PUSHW[ ]	/* 1 value pushed */
2
SRP0[ ]	/* SetRefPoint0 */
PUSHW[ ]	/* 1 value pushed */
64
MDRP[10000]	/* MoveDirectRelPt */
PUSHW[ ]	/* 1 value pushed */
6
SRP0[ ]	/* SetRefPoint0 */
PUSHW[ ]	/* 1 value pushed */
68
MDRP[10000]	/* MoveDirectRelPt */
IUP[0]	/* InterpolateUntPts */
IUP[1]	/* InterpolateUntPts */";
};
width = 718;
}
);
note = dottedcircle;
unicode = 9676;
}
{
glyphname = "BIi-orya.alt";
layers = (
{
layerId = m01;
shapes = (
{
closed = 1;
nodes = (
(168,140,qs),
(193,89,o),
(262,66,qs),
(296,54,o),
(339,54,qs),
(406,54,o),
(463,82,q),
(463,-14,l),
(555,-14,l),
(555,155,l),
(555,156,l),
(555,251,l),
(546,302,o),
(459,361,o),
(391,361,qs),
(356,361,o),
(287,349,qs),
(230,339,o),
(213,339,qs),
(207,339,o),
(195,341,o),
(187,347,qs),
(157,367,o),
(146,409,qs),
(142,424,o),
(142,441,qs),
(142,501,o),
(191,554,qs),
(218,583,o),
(291,624,o),
(325,624,qs),
(366,624,o),
(401,598,qs),
(450,562,o),
(462,500,q),
(462,450,l),
(462,421,l),
(508,421,l),
(517,421,l),
(565,421,l),
(562,459,o),
(562,467,qs),
(562,510,o),
(603,588,o),
(642,611,q),
(642,-14,l),
(735,-14,l),
(735,654,l),
(719,663,l),
(696,676,l),
(675,687,l),
(650,681,ls),
(564,662,o),
(513,595,q),
(495,618,o),
(471,636,qs),
(408,682,o),
(325,682,qs),
(256,682,o),
(193,647,qs),
(145,619,o),
(111,582,qs),
(50,516,o),
(50,441,qs),
(50,420,o),
(55,400,qs),
(70,340,o),
(119,307,qs),
(150,287,o),
(189,282,q),
(155,241,o),
(155,193,qs),
(155,165,o)
);
},
{
closed = 1;
nodes = (
(435,293,qs),
(457,277,o),
(463,248,q),
(463,170,l),
(442,146,o),
(415,132,qs),
(378,112,o),
(339,112,qs),
(320,112,o),
(303,118,qs),
(270,129,o),
(256,158,qs),
(248,174,o),
(248,213,o),
(257,233,qs),
(270,261,o),
(296,279,qs),
(318,294,o),
(342,298,q),
(342,299,l),
(373,304,o),
(391,304,qs),
(418,304,o)
);
}
);
width = 796;
}
);
note = or_b_iikaar.alt;
}
{
export = 0;
glyphname = _comp.tail;
layers = (
{
layerId = m01;
shapes = (
{
closed = 0;
nodes = (
(647,47,l),
(798,-98,l)
);
}
);
width = 870;
}
);
}
{
export = 0;
glyphname = _corner.left;
layers = (
{
anchors = (
{
name = left;
pos = (0,118);
},
{
name = origin;
pos = (0,-11);
},
{
name = right;
pos = (8,-11);
}
);
layerId = m01;
shapes = (
{
closed = 0;
nodes = (
(0,118,l),
(8,-11,l)
);
}
);
width = 696;
}
);
}
{
export = 0;
glyphname = _corner.tailBottom;
layers = (
{
anchors = (
{
name = left;
pos = (-101,82);
},
{
name = right;
pos = (19,21);
}
);
layerId = m01;
shapes = (
{
closed = 0;
nodes = (
(-103,82,l),
(-67,58,o),
(-25,35,o),
(15,21,c)
);
}
);
width = 729;
}
);
}
{
export = 0;
glyphname = _kern;
layers = (
{
layerId = m01;
shapes = (
{
closed = 1;
nodes = (
(638,326,l),
(708,326,l),
(708,376,l),
(638,376,l)
);
},
{
closed = 1;
nodes = (
(317,603,l),
(355,603,l),
(355,665,l),
(317,665,l)
);
},
{
closed = 1;
nodes = (
(56,401,l),
(126,401,l),
(126,453,l),
(56,453,l)
);
}
);
width = 737;
}
);
}
{
glyphname = _or.CircleShape;
layers = (
{
anchors = (
{
name = bottom;
pos = (269,17);
},
{
name = top;
pos = (315,639);
}
);
layerId = m01;
shapes = (
{
closed = 0;
nodes = (
(189,271,l),
(141,216,o),
(128,186,o),
(128,142,cs),
(128,106,o),
(155,17,o),
(267,17,cs),
(325,17,o),
(388,23,o),
(418,85,cs),
(435,120,o),
(438,173,o),
(438,216,cs),
(438,239,o),
(437,259,o),
(437,272,c),
(433,261,o),
(419,185,o),
(346,185,cs),
(288,185,o),
(273,229,o),
(273,271,cs),
(273,288,o),
(275,304,o),
(278,318,c),
(250,295,o),
(218,285,o),
(186,285,cs),
(100,285,o),
(55,350,o),
(55,429,cs),
(55,536,o),
(145,643,o),
(311,643,cs),
(504,643,o),
(613,528,o),
(610,332,cs),
(610,208,o),
(563,151,o),
(504,61,c),
(492,45,o),
(491,25,o),
(504,17,cs),
(554,-13,o),
(597,-39,o),
(646,-67,c)
);
}
);
width = 651;
}
);
}
{
export = 0;
glyphname = _or.LanjaGol;
layers = (
{
hints = (
{
name = _corner.tailBottom;
origin = (0,18);
type = Corner;
}
);
layerId = m01;
shapes = (
{
closed = 1;
nodes = (
(336,312,l),
(289,338,l),
(215,311,l),
(154,312,o),
(120,364,o),
(120,429,cs),
(120,524,o),
(197,615,o),
(341,615,cs),
(517,615,o),
(608,511,o),
(605,332,cs),
(605,217,o),
(563,165,o),
(505,76,cs),
(484,45,o),
(491,9,o),
(516,-7,c),
(685,-106,l),
(718,-58,l),
(560,40,l),
(560,45,l),
(560,47,o),
(675,172,o),
(675,332,cs),
(678,545,o),
(551,671,o),
(341,671,cs),
(153,671,o),
(50,548,o),
(50,429,cs),
(50,350,o),
(92,281,o),
(171,262,c)
);
}
);
width = 729;
}
);
}
{
export = 0;
glyphname = _or.angleBa;
layers = (
{
layerId = m01;
shapes = (
{
closed = 0;
nodes = (
(315,324,l),
(154,324,l),
(91,429,l),
(166,591,l),
(485,591,l),
(594,338,l),
(585,238,l),
(586,206,l)
);
}
);
width = 681;
}
);
}
{
export = 0;
glyphname = _or.candrabindu;
layers = (
{
layerId = m01;
shapes = (
{
closed = 1;
nodes = (
(6,753,o),
(-67,719,o),
(-136,725,cs),
(-203,731,o),
(-272,777,o),
(-297,847,cs),
(-308,877,l),
(-370,860,l),
(-359,829,ls),
(-330,747,o),
(-237,681,o),
(-142,673,cs),
(-50,665,o),
(54,713,o),
(99,790,cs),
(115,817,l),
(58,843,l),
(43,816,ls)
);
},
{
closed = 1;
nodes = (
(-62,705,o),
(-15,748,o),
(-15,807,cs),
(-15,867,o),
(-62,911,o),
(-125,911,cs),
(-187,911,o),
(-234,867,o),
(-234,807,cs),
(-234,748,o),
(-187,705,o),
(-125,705,cs)
);
},
{
closed = 1;
nodes = (
(-148,770,o),
(-162,783,o),
(-162,807,cs),
(-162,834,o),
(-147,846,o),
(-125,846,cs),
(-102,846,o),
(-87,834,o),
(-87,807,cs),
(-87,783,o),
(-101,770,o),
(-125,770,cs)
);
}
);
width = 0;
}
);
}
{
export = 0;
glyphname = _or.ta_phala;
layers = (
{
layerId = m01;
shapes = (
{
closed = 0;
nodes = (
(602,-29,l),
(575,11,o),
(582,58,o),
(599,81,cs),
(627,118,o),
(684,110,o),
(694,68,cs),
(709,7,o),
(676,-49,o),
(592,-94,cs),
(532,-129,o),
(343,-150,o),
(270,-122,c)
);
}
);
width = 723;
}
);
}
{
export = 0;
glyphname = _or_a_aa;
layers = (
{
layerId = m01;
shapes = (
{
closed = 0;
nodes = (
(106,457,l),
(95,473,o),
(89,493,o),
(89,515,cs),
(89,572,o),
(135,618,o),
(194,618,cs),
(240,618,o),
(279,588,o),
(292,547,c),
(293,544,o),
(294,542,o),
(297,542,cs),
(300,542,o),
(302,544,o),
(303,547,c),
(311,595,o),
(353,632,o),
(406,632,cs),
(451,632,o),
(503,601,o),
(515,551,cs),
(517,544,o),
(518,529,o),
(512,524,cs),
(507,520,l),
(183,295,l),
(175,289,ls),
(169,285,o),
(171,276,o),
(173,271,cs),
(202,169,o),
(294,97,o),
(407,97,cs),
(507,97,o),
(591,158,o),
(628,246,c)
);
}
);
width = 759;
}
);
}
{
export = 0;
glyphname = "_or_ai-au";
layers = (
{
layerId = m01;
shapes = (
{
closed = 0;
nodes = (
(430,391,l)
);
},
{
closed = 0;
nodes = (
(505,297,l),
(546,283,o),
(602,254,o),
(602,177,cs),
(602,94,o),
(545,29,o),
(432,29,cs),
(244,29,o),
(119,203,o),
(104,341,cs),
(78,578,o),
(139,672,o),
(212,771,cs)
);
},
{
closed = 0;
nodes = (
(416,414,l),
(397,406,o),
(360,409,o),
(343,421,cs),
(306,446,o),
(299,476,o),
(304,509,cs),
(313,565,o),
(391,611,o),
(485,602,cs),
(580,593,o),
(626,544,o),
(626,473,cs),
(626,377,o),
(530,321,o),
(485,299,c),
(337,252,l)
);
},
{
closed = 0;
nodes = (
(104,866,l),
(146,822,o),
(189,799,o),
(253,799,cs),
(367,799,o),
(475,830,o),
(589,789,cs),
(706,747,o),
(786,637,o),
(786,510,cs),
(786,43,l)
);
},
{
closed = 0;
nodes = (
(607,203,l),
(626,169,o),
(665,156,o),
(699,156,cs),
(723,156,o),
(743,166,o),
(765,186,c)
);
}
);
width = 811;
}
);
}
{
export = 0;
glyphname = _or_ai_au_kaar;
layers = (
{
layerId = m01;
shapes = (
{
closed = 0;
nodes = (
(1365,734,l),
(1421,747,o),
(1482,798,o),
(1494,845,cs),
(1518,939,o),
(1448,1030,o),
(1321,1024,cs),
(1215,1019,o),
(922,952,o),
(824,952,cs),
(766,952,o),
(709,973,o),
(688,1017,c)
);
}
);
width = 1522;
}
);
}
{
export = 0;
glyphname = _or_dda_Handi;
layers = (
{
layerId = m01;
shapes = (
{
closed = 0;
nodes = (
(458,301,l),
(418,275,o),
(387,250,o),
(348,215,c),
(402,180,o),
(442,144,o),
(476,109,c),
(437,45,o),
(386,24,o),
(308,24,cs),
(238,24,o),
(159,79,o),
(129,150,c),
(149,202,o),
(204,257,o),
(248,290,c)
);
}
);
width = 696;
}
);
}
{
export = 0;
glyphname = _or_e;
layers = (
{
layerId = m01;
shapes = (
{
closed = 0;
nodes = (
(338,328,l),
(342,352,o),
(350,361,o),
(361,374,c),
(615,615,l),
(625,615,o),
(628,602,o),
(628,596,c),
(628,100,l),
(628,76,o),
(628,57,o),
(615,48,c),
(108,358,l),
(99,363,o),
(92,363,o),
(79,363,c)
);
}
);
width = 770;
}
);
}
{
export = 0;
glyphname = _or_ha_tick;
layers = (
{
layerId = m01;
shapes = (
{
closed = 0;
nodes = (
(336,77,l),
(239,-28,l),
(236,-31,o),
(237,-34,o),
(239,-35,c),
(575,-197,l)
);
}
);
width = 681;
}
);
}
{
export = 0;
glyphname = _or_nna;
layers = (
{
layerId = m01;
shapes = (
{
closed = 0;
nodes = (
(178,240,l),
(334,252,o),
(501,220,o),
(510,152,cs),
(522,85,o),
(442,31,o),
(376,31,cs),
(275,31,o),
(178,119,o),
(153,220,cs),
(132,308,o),
(144,386,o),
(200,442,cs),
(246,488,o),
(300,488,o),
(341,488,cs),
(376,488,o),
(434,454,o),
(468,400,c)
);
},
{
closed = 0;
nodes = (
(388,497,l),
(399,542,o),
(422,623,o),
(501,623,cs),
(564,623,o),
(644,530,o),
(677,454,c)
);
}
);
width = 689;
}
);
}
{
export = 0;
glyphname = _or_sha;
layers = (
{
layerId = m01;
shapes = (
{
closed = 1;
nodes = (
(367,19,o),
(416,68,o),
(416,129,cs),
(416,190,o),
(367,239,o),
(306,239,cs),
(246,239,o),
(196,190,o),
(196,129,cs),
(196,68,o),
(246,19,o),
(306,19,cs)
);
},
{
closed = 0;
nodes = (
(223,222,l),
(131,261,o),
(92,308,o),
(86,358,cs),
(82,387,o),
(126,435,o),
(171,446,c),
(228,469,o),
(293,433,o),
(355,406,c)
);
},
{
closed = 0;
nodes = (
(268,451,l),
(216,504,o),
(205,552,o),
(241,597,cs),
(270,634,o),
(321,647,o),
(376,647,cs),
(455,647,o),
(497,617,o),
(591,533,c)
);
}
);
width = 759;
}
);
}
{
glyphname = "ai-orya.init";
layers = (
{
attr = {
axisRules = (
);
};
layerId = m01;
shapes = (
{
closed = 1;
nodes = (
(764,189,o),
(755,184,o),
(742,184,cs),
(717,184,o),
(696,193,o),
(681,217,cs),
(663,246,l),
(603,219,l),
(619,189,ls),
(642,146,o),
(698,128,o),
(742,128,cs),
(777,128,o),
(807,143,o),
(832,165,cs),
(855,186,l),
(808,228,l),
(784,207,ls)
);
},
{
closed = 1;
nodes = (
(20,337,o),
(21,337,o),
(23,336,cs),
(566,15,l),
(611,38,o),
(614,54,o),
(614,102,cs),
(614,598,ls),
(614,630,o),
(585,654,o),
(547,642,c),
(284,393,l),
(271,378,o),
(259,364,o),
(254,335,cs),
(249,300,l),
(318,291,l),
(324,325,ls),
(327,344,o),
(330,348,o),
(340,359,c),
(582,589,l),
(576,589,o),
(544,602,o),
(544,598,cs),
(544,102,ls),
(544,58,o),
(532,69,o),
(567,85,c),
(63,383,ls),
(46,392,o),
(31,393,o),
(12,393,cs),
(-27,393,l),
(-27,337,l),
(12,337,ls)
);
},
{
closed = 1;
nodes = (
(-128,776,o),
(-70,739,o),
(-17,730,cs),
(148,703,o),
(422,812,o),
(604,760,cs),
(714,728,o),
(791,611,o),
(791,508,cs),
(791,3,l),
(861,3,l),
(861,508,ls),
(861,629,o),
(774,770,o),
(624,814,cs),
(424,871,o),
(142,761,o),
(-5,786,cs),
(-34,791,o),
(-68,812,o),
(-84,853,cs),
(-97,885,l),
(-162,865,l),
(-150,833,ls)
);
}
);
width = 911;
}
);
note = or_ai;
}
{
glyphname = "bIi-orya";
layers = (
{
layerId = m01;
shapes = (
{
closed = 1;
nodes = (
(256,298,l),
(215,307,o),
(190,320,o),
(169,339,cs),
(158,349,o),
(140,381,o),
(140,408,cs),
(140,525,o),
(210,615,o),
(330,615,cs),
(442,615,o),
(489,497,o),
(492,435,c),
(548,435,l),
(554,518,o),
(615,603,o),
(650,608,cs),
(665,610,o),
(676,600,o),
(679,575,c),
(679,-7,l),
(749,-7,l),
(749,577,l),
(749,640,o),
(686,675,o),
(624,660,cs),
(549,644,o),
(496,508,o),
(494,485,c),
(548,485,l),
(547,513,o),
(496,671,o),
(330,671,cs),
(169,671,o),
(70,554,o),
(70,408,cs),
(70,382,o),
(82,333,o),
(123,297,cs),
(147,276,o),
(177,258,o),
(229,246,c)
);
},
{
closed = 1;
nodes = (
(259,262,o),
(297,298,o),
(351,298,cs),
(410,298,o),
(452,262,o),
(452,211,cs),
(452,157,o),
(410,119,o),
(351,119,cs),
(297,119,o),
(259,157,o),
(259,211,cs)
);
},
{
closed = 1;
nodes = (
(454,118,l),
(462,-11,l),
(519,-11,l),
(521,217,l),
(458,215,l)
);
},
{
closed = 1;
nodes = (
(458,97,l),
(451,134,l),
(429,96,l),
(434,93,l),
(449,96,l)
);
},
{
closed = 1;
nodes = (
(215,294,c),
(191,268,l),
(186,248,o),
(184,227,o),
(186,207,cs),
(194,126,o),
(252,66,o),
(347,66,cs),
(397,66,o),
(438,87,o),
(463,118,cs),
(489,150,o),
(521,167,o),
(521,211,cs),
(521,298,o),
(451,354,o),
(351,354,cs),
(295,354,o),
(247,338,o)
);
}
);
width = 819;
}
);
note = or_b_iikaar;
}
{
glyphname = "ba_anusvara-orya";
layers = (
{
layerId = m01;
shapes = (
{
closed = 1;
nodes = (
(319,133,o),
(308,142,qs),
(280,164,o),
(280,202,qs),
(280,222,o),
(290,246,qs),
(298,268,o),
(314,289,q),
(321,291,o),
(336,295,qs),
(386,308,o),
(407,308,qs),
(435,308,o),
(454,294,qs),
(477,277,o),
(484,247,q),
(484,169,l),
(445,121,o),
(380,121,qs),
(356,121,o)
);
},
{
closed = 1;
nodes = (
(654,415,q),
(654,419,o),
(652,444,o),
(651,454,qs),
(646,510,o),
(637,538,q),
(645,547,ls),
(666,573,o),
(692,573,qs),
(711,573,o),
(728,559,qs),
(757,537,o),
(762,499,qs),
(763,493,o),
(763,486,qs),
(763,454,o),
(744,429,qs),
(722,399,o),
(693,399,qs),
(673,399,o)
);
},
{
closed = 1;
nodes = (
(557,640,qs),
(533,655,o),
(507,667,q),
(480,676,o),
(451,682,qs),
(421,687,o),
(391,688,qs),
(371,687,o),
(351,686,qs),
(331,683,o),
(311,679,qs),
(259,666,o),
(211,643,q),
(168,617,o),
(132,582,q),
(117,565,o),
(103,546,q),
(92,526,o),
(83,506,qs),
(77,489,o),
(73,471,qs),
(70,454,o),
(70,437,qs),
(70,428,o),
(71,418,qs),
(72,409,o),
(74,400,qs),
(83,372,o),
(98,346,q),
(117,324,o),
(141,307,q),
(157,298,o),
(174,291,qs),
(192,285,o),
(210,282,q),
(200,262,o),
(194,241,qs),
(189,221,o),
(188,201,q),
(189,188,o),
(191,175,qs),
(194,162,o),
(200,150,qs),
(206,138,o),
(214,127,qs),
(224,116,o),
(235,107,qs),
(247,98,o),
(261,90,qs),
(275,83,o),
(290,77,q),
(312,71,o),
(334,67,qs),
(357,64,o),
(380,63,qs),
(407,64,o),
(434,68,qs),
(460,74,o),
(484,83,q),
(484,-13,l),
(576,-13,l),
(576,156,l),
(576,156,l),
(576,156,l),
(576,251,l),
(570,275,o),
(558,296,q),
(543,315,o),
(525,331,q),
(500,347,o),
(472,357,q),
(440,365,o),
(407,366,qs),
(384,365,o),
(361,362,qs),
(331,356,o),
(301,348,qs),
(290,346,o),
(279,343,qs),
(266,340,o),
(252,338,qs),
(237,337,o),
(223,340,q),
(215,343,o),
(207,347,q),
(192,358,o),
(181,372,q),
(171,389,o),
(165,408,q),
(164,415,o),
(163,422,qs),
(162,430,o),
(162,437,qs),
(163,451,o),
(165,465,qs),
(169,480,o),
(174,495,qs),
(181,510,o),
(189,525,q),
(200,540,o),
(212,554,q),
(238,579,o),
(269,598,q),
(304,615,o),
(341,625,q),
(354,627,o),
(366,629,qs),
(379,630,o),
(391,630,qs),
(424,628,o),
(456,618,q),
(485,605,o),
(510,584,q),
(521,572,o),
(531,558,qs),
(539,544,o),
(545,529,qs),
(550,514,o),
(553,498,qs),
(556,474,o),
(559,451,q),
(559,445,o),
(560,439,qs),
(560,432,o),
(561,425,qs),
(562,417,o),
(562,410,qs),
(563,403,o),
(564,397,q),
(569,391,ls),
(581,379,o),
(594,369,qs),
(609,360,o),
(624,354,qs),
(658,343,o),
(693,341,qs),
(696,341,o),
(702,341,o),
(705,342,q),
(742,346,o),
(776,360,q),
(805,378,o),
(828,405,q),
(840,423,o),
(848,444,qs),
(854,465,o),
(855,486,qs),
(855,491,o),
(854,500,o),
(854,504,q),
(848,530,o),
(837,554,q),
(821,577,o),
(801,595,q),
(777,611,o),
(751,622,q),
(722,630,o),
(692,631,qs),
(667,630,o),
(642,624,qs),
(619,617,o),
(598,604,q),
(579,624,o)
);
}
);
width = 869;
}
);
note = or_b_anusvara;
}
{
glyphname = "basign-orya";
layers = (
{
background = {
shapes = (
{
closed = 1;
nodes = (
(-76,-170,ls),
(-84,-172,o),
(-91,-172,qs),
(-111,-172,o),
(-130,-153,qs),
(-145,-139,o),
(-152,-117,qs),
(-156,-103,o),
(-156,-91,qs),
(-156,-40,o),
(-121,-11,q),
(-166,43,l),
(-191,22,ls),
(-244,-22,o),
(-244,-92,qs),
(-244,-108,o),
(-238,-127,qs),
(-228,-159,o),
(-204,-183,qs),
(-159,-227,o),
(-88,-227,qs),
(-64,-227,o),
(-39,-220,qs),
(-28,-217,l),
(-28,-312,l),
(60,-312,l),
(60,0,l),
(-28,0,l),
(-28,-157,l)
);
}
);
};
layerId = m01;
shapes = (
{
closed = 1;
nodes = (
(45,2,l),
(-19,2,l),
(-19,-313,l),
(45,-313,l)
);
},
{
closed = 1;
nodes = (
(-34,-175,o),
(-57,-181,o),
(-81,-181,cs),
(-132,-181,o),
(-177,-151,o),
(-177,-94,cs),
(-177,-50,o),
(-151,-22,o),
(-132,-8,cs),
(-110,8,l),
(-148,48,l),
(-170,32,ls),
(-203,8,o),
(-241,-31,o),
(-241,-94,cs),
(-241,-182,o),
(-162,-231,o),
(-81,-231,cs),
(-45,-231,o),
(-6,-221,o),
(24,-202,cs),
(47,-188,l),
(13,-145,l),
(-10,-160,ls)
);
}
);
width = 0;
}
);
note = or_va_phalaa;
}
{
glyphname = "bhasign-orya.alt";
layers = (
{
layerId = m01;
shapes = (
{
closed = 1;
nodes = (
(-115,-135,l),
(-131,-119,l),
(-109,-101,o),
(-87,-76,o),
(-87,-46,cs),
(-87,19,o),
(-153,53,o),
(-206,34,cs),
(-250,18,o),
(-263,-25,o),
(-247,-71,c),
(-188,-71,l),
(-182,-40,l),
(-207,-25,l),
(-205,-17,o),
(-195,-9,o),
(-189,-7,cs),
(-164,2,o),
(-139,-15,o),
(-139,-46,cs),
(-139,-67,o),
(-171,-92,o),
(-188,-103,c),
(-188,-139,l),
(-148,-171,l),
(-78,-209,l),
(-60,-180,l)
);
}
);
width = 0;
}
);
note = or_bha_phalaa.alt;
}
{
glyphname = "chasign-orya";
layers = (
{
layerId = m01;
shapes = (
{
closed = 1;
nodes = (
(75,-295,qs),
(83,-302,o),
(88,-314,qs),
(95,-331,o),
(92,-344,qs),
(91,-352,o),
(86,-358,qs),
(81,-365,o),
(74,-368,qs),
(65,-372,o),
(53,-368,qs),
(45,-366,o),
(35,-358,qs),
(18,-346,o),
(6,-328,q),
(15,-307,o),
(34,-294,qs),
(44,-287,o),
(53,-287,qs),
(65,-287,o)
);
},
{
closed = 1;
nodes = (
(-72,-292,qs),
(-53,-303,o),
(-42,-322,q),
(-49,-338,o),
(-62,-349,qs),
(-70,-356,o),
(-78,-358,qs),
(-87,-361,o),
(-95,-357,qs),
(-103,-354,o),
(-108,-346,qs),
(-111,-339,o),
(-112,-329,qs),
(-115,-304,o),
(-100,-283,q),
(-85,-285,o)
);
},
{
closed = 1;
nodes = (
(10,-254,qs),
(4,-260,o),
(-4,-263,qs),
(-20,-269,o),
(-35,-261,qs),
(-43,-257,o),
(-47,-251,qs),
(-54,-241,o),
(-52,-230,qs),
(-50,-219,o),
(-40,-211,qs),
(-32,-204,o),
(-9,-202,o),
(11,-211,o),
(16,-219,qs),
(21,-229,o),
(18,-241,qs),
(16,-248,o)
);
},
{
closed = 1;
nodes = (
(-164,-224,qs),
(-175,-222,o),
(-188,-220,qs),
(-199,-219,l),
(-206,-277,l),
(-194,-278,o),
(-169,-283,o),
(-157,-286,q),
(-168,-297,o),
(-180,-326,o),
(-180,-341,qs),
(-180,-351,o),
(-177,-360,qs),
(-175,-369,o),
(-169,-378,qs),
(-164,-387,o),
(-156,-394,qs),
(-147,-402,o),
(-136,-407,qs),
(-124,-413,o),
(-99,-419,o),
(-84,-419,qs),
(-60,-419,o),
(-44,-413,qs),
(-24,-406,o),
(-13,-390,q),
(3,-407,o),
(26,-415,qs),
(45,-422,o),
(67,-422,qs),
(69,-422,o),
(73,-422,o),
(76,-422,qs),
(100,-420,o),
(138,-401,o),
(150,-384,qs),
(157,-374,o),
(164,-352,o),
(164,-340,qs),
(164,-322,o),
(148,-290,o),
(132,-277,qs),
(126,-272,o),
(112,-264,o),
(105,-261,q),
(108,-254,o),
(111,-240,o),
(111,-232,qs),
(111,-213,o),
(102,-197,qs),
(93,-182,o),
(74,-169,qs),
(56,-158,o),
(38,-153,qs),
(21,-149,o),
(-6,-148,qs),
(-20,-147,o),
(-32,-149,q),
(-34,-150,o),
(-44,-153,o),
(-46,-153,q),
(-53,-155,o),
(-61,-155,qs),
(-69,-155,o),
(-72,-156,qs),
(-76,-157,o),
(-83,-160,qs),
(-86,-161,o),
(-88,-162,q),
(-91,-162,o),
(-93,-161,q),
(-94,-161,o),
(-96,-160,o),
(-97,-159,qs),
(-102,-155,o),
(-109,-139,o),
(-108,-128,qs),
(-108,-122,o),
(-106,-116,qs),
(-105,-110,o),
(-101,-102,qs),
(-96,-90,o),
(-81,-71,o),
(-71,-62,qs),
(-61,-53,o),
(-51,-48,qs),
(-42,-42,o),
(-33,-39,qs),
(-24,-36,o),
(-4,-33,o),
(5,-33,qs),
(15,-34,o),
(25,-36,qs),
(35,-38,o),
(46,-42,qs),
(69,-51,o),
(106,-84,o),
(119,-107,qs),
(131,-128,o),
(137,-150,qs),
(143,-172,o),
(143,-196,qs),
(143,-205,o),
(141,-221,o),
(140,-229,q),
(229,-247,l),
(231,-236,ls),
(233,-225,o),
(234,-216,qs),
(235,-206,o),
(235,-196,qs),
(235,-167,o),
(220,-112,o),
(206,-88,qs),
(187,-55,o),
(131,-8,o),
(96,6,qs),
(74,15,o),
(50,20,qs),
(27,24,o),
(2,24,qs),
(-17,24,o),
(-36,21,qs),
(-56,18,o),
(-74,12,qs),
(-94,6,o),
(-111,-3,qs),
(-128,-13,o),
(-160,-39,o),
(-183,-69,o),
(-190,-87,qs),
(-195,-98,o),
(-200,-120,o),
(-200,-131,qs),
(-200,-138,o),
(-198,-152,o),
(-196,-159,qs),
(-192,-169,o),
(-186,-177,qs),
(-180,-186,o),
(-172,-192,qs),
(-165,-199,o),
(-155,-204,qs),
(-146,-209,o),
(-136,-212,q),
(-138,-216,o),
(-140,-224,o),
(-141,-228,q),
(-153,-225,o)
);
}
);
width = 0;
}
);
note = or_cha_phalaa;
}
{
glyphname = "dVocalicr-orya";
layers = (
{
layerId = m01;
shapes = (
{
closed = 1;
nodes = (
(674,-284,qs),
(636,-248,o),
(636,-189,qs),
(636,-163,o),
(645,-134,qs),
(661,-84,o),
(726,0,qs),
(790,82,o),
(831,184,o),
(831,307,o),
(811,368,qs),
(763,513,o),
(637,603,qs),
(525,684,o),
(395,684,qs),
(320,684,o),
(254,654,qs),
(191,625,o),
(148,577,qs),
(100,522,o),
(81,450,qs),
(70,411,o),
(70,339,o),
(81,307,qs),
(96,261,o),
(131,234,qs),
(162,210,o),
(203,206,q),
(183,163,o),
(183,125,qs),
(183,104,o),
(189,86,qs),
(200,49,o),
(231,24,qs),
(273,-9,o),
(332,-9,qs),
(370,-9,o),
(440,20,o),
(494,67,o),
(515,93,q),
(515,-29,l),
(603,-29,l),
(603,279,l),
(559,279,l),
(551,279,l),
(515,279,l),
(507,257,ls),
(468,138,o),
(399,78,qs),
(362,46,o),
(330,46,qs),
(315,46,o),
(300,58,qs),
(282,72,o),
(275,96,qs),
(271,110,o),
(271,125,qs),
(271,159,o),
(291,197,qs),
(304,221,o),
(318,240,q),
(378,308,l),
(324,363,l),
(239,270,ls),
(229,260,o),
(220,260,qs),
(211,260,o),
(199,269,qs),
(178,285,o),
(167,318,qs),
(158,344,o),
(158,407,o),
(167,441,qs),
(184,504,o),
(225,551,qs),
(258,588,o),
(349,629,o),
(395,629,qs),
(484,629,o),
(571,567,qs),
(623,529,o),
(704,420,o),
(743,302,o),
(743,191,o),
(706,101,o),
(647,24,qs),
(644,20,o),
(642,18,qs),
(577,-66,o),
(559,-122,qs),
(548,-157,o),
(548,-191,qs),
(548,-265,o),
(602,-316,qs),
(633,-347,o),
(678,-361,qs),
(713,-372,o),
(751,-372,qs),
(811,-372,o),
(915,-319,o),
(942,-276,qs),
(964,-241,o),
(964,-202,qs),
(964,-190,o),
(961,-179,qs),
(954,-139,o),
(923,-113,qs),
(889,-83,o),
(789,-83,o),
(754,-115,qs),
(734,-132,o),
(721,-159,qs),
(703,-194,o),
(703,-276,o),
(723,-313,q),
(697,-306,o)
);
},
{
closed = 1;
nodes = (
(791,-203,o),
(805,-175,qs),
(814,-157,o),
(825,-146,qs),
(832,-140,o),
(839,-138,q),
(846,-140,o),
(852,-145,qs),
(869,-160,o),
(874,-186,qs),
(876,-194,o),
(876,-202,qs),
(876,-231,o),
(842,-285,o),
(809,-302,q),
(791,-270,o)
);
}
);
width = 913;
}
);
note = or_d_rukaar;
}
{
glyphname = "dasign-orya";
layers = (
{
layerId = m01;
shapes = (
{
closed = 1;
nodes = (
(-145,-353,o),
(-101,-353,qs),
(-55,-353,o),
(-17,-327,q),
(-17,-352,l),
(75,-352,l),
(75,-163,l),
(29,-163,l),
(24,-163,l),
(-14,-163,l),
(-21,-186,ls),
(-43,-252,o),
(-80,-283,qs),
(-91,-293,o),
(-100,-296,q),
(-101,-295,o),
(-102,-294,qs),
(-114,-285,o),
(-114,-264,qs),
(-114,-237,o),
(-90,-205,qs),
(-63,-174,l),
(-50,-160,l),
(-106,-103,l),
(-167,-169,l),
(-175,-158,o),
(-175,-142,qs),
(-175,-124,o),
(-152,-88,o),
(-129,-73,qs),
(-91,-48,o),
(-40,-45,qs),
(-33,-45,o),
(-27,-45,qs),
(13,-45,o),
(75,-79,o),
(111,-141,o),
(111,-177,qs),
(111,-179,o),
(111,-181,q),
(203,-183,l),
(203,-179,o),
(203,-177,qs),
(203,-131,o),
(154,-46,o),
(106,-20,qs),
(49,13,o),
(-27,13,qs),
(-38,13,o),
(-50,12,qs),
(-134,7,o),
(-195,-33,qs),
(-232,-56,o),
(-267,-114,o),
(-267,-142,qs),
(-267,-152,o),
(-265,-161,qs),
(-258,-192,o),
(-232,-212,qs),
(-218,-222,o),
(-199,-227,q),
(-206,-247,o),
(-206,-262,qs),
(-206,-305,o)
);
}
);
width = 0;
}
);
note = or_da_phalaa;
}
{
glyphname = "dhasign-orya";
layers = (
{
layerId = m01;
shapes = (
{
closed = 1;
nodes = (
(-239,-59,o),
(-213,-62,q),
(-150,-135,l),
(-156,-139,o),
(-195,-154,o),
(-207,-161,qs),
(-233,-176,o),
(-264,-221,o),
(-264,-248,qs),
(-264,-274,o),
(-247,-299,qs),
(-221,-339,o),
(-164,-356,qs),
(-132,-366,o),
(-96,-366,qs),
(-29,-366,o),
(30,-333,q),
(116,-333,l),
(116,3,l),
(24,3,l),
(24,-243,l),
(1,-271,o),
(-30,-289,qs),
(-63,-309,o),
(-96,-309,qs),
(-110,-309,o),
(-123,-305,qs),
(-149,-297,o),
(-162,-277,qs),
(-172,-263,o),
(-172,-233,o),
(-164,-221,qs),
(-156,-210,o),
(-139,-200,o),
(-98,-184,o),
(-69,-166,o),
(-56,-153,qs),
(-42,-139,l),
(-204,50,l),
(-248,19,ls),
(-260,10,o),
(-265,-3,qs),
(-267,-9,o),
(-267,-15,qs),
(-267,-32,o)
);
}
);
width = 0;
}
);
note = or_dha_phalaa;
}
{
glyphname = "gasign-orya";
layers = (
{
layerId = m01;
shapes = (
{
closed = 1;
nodes = (
(-109,-289,qs),
(-111,-289,o),
(-112,-288,q),
(-127,-283,o),
(-127,-258,qs),
(-127,-246,o),
(-119,-229,q),
(-112,-228,o),
(-95,-225,qs),
(-84,-223,o),
(-80,-223,q),
(-71,-231,o),
(-71,-242,qs),
(-71,-267,o),
(-91,-281,qs),
(-101,-289,o)
);
},
{
closed = 1;
nodes = (
(-157,-339,qs),
(-135,-346,o),
(-92,-346,o),
(-75,-343,qs),
(-44,-336,o),
(2,-302,o),
(13,-280,qs),
(21,-263,o),
(21,-244,qs),
(21,-237,o),
(20,-230,qs),
(14,-200,o),
(-40,-165,o),
(-80,-165,qs),
(-97,-165,o),
(-122,-169,qs),
(-142,-173,o),
(-149,-173,qs),
(-155,-173,o),
(-162,-163,qs),
(-168,-155,o),
(-168,-143,qs),
(-168,-115,o),
(-135,-92,qs),
(-94,-63,o),
(-46,-63,qs),
(-32,-63,o),
(-19,-66,qs),
(17,-73,o),
(47,-97,q),
(47,-340,l),
(139,-340,l),
(139,-19,l),
(47,-19,l),
(47,-21,l),
(29,-15,o),
(9,-11,qs),
(-18,-5,o),
(-46,-5,qs),
(-135,-5,o),
(-204,-54,qs),
(-260,-93,o),
(-260,-143,qs),
(-260,-168,o),
(-232,-206,o),
(-210,-217,q),
(-219,-240,o),
(-219,-278,o),
(-212,-293,qs),
(-197,-325,o)
);
}
);
width = 0;
}
);
note = or_ga_phalaa;
}
{
glyphname = "hI-orya";
layers = (
{
background = {
shapes = (
{
closed = 1;
nodes = (
(133,126,qs),
(151,87,o),
(190,66,q),
(112,-13,l),
(111,-19,l),
(108,-27,l),
(103,-47,l),
(429,-156,l),
(449,-161,o),
(473,-178,o),
(480,-187,qs),
(500,-212,l),
(562,-161,l),
(550,-146,o),
(534,-134,qs),
(504,-113,o),
(466,-104,q),
(214,-19,l),
(276,42,l),
(281,42,o),
(286,42,qs),
(310,42,o),
(333,47,qs),
(402,61,o),
(457,111,q),
(457,-26,l),
(549,-26,l),
(549,308,l),
(457,308,l),
(457,263,l),
(437,202,o),
(351,112,o),
(304,102,qs),
(294,100,o),
(273,100,o),
(261,104,qs),
(235,115,o),
(221,142,qs),
(212,161,o),
(212,182,qs),
(212,213,o),
(231,241,qs),
(247,264,o),
(272,277,qs),
(318,301,l),
(341,313,l),
(332,331,l),
(331,333,l),
(312,371,l),
(208,325,ls),
(191,318,o),
(174,318,qs),
(140,318,o),
(110,346,q),
(119,378,o),
(141,399,qs),
(155,412,o),
(171,419,q),
(309,441,l),
(309,463,l),
(309,467,l),
(309,500,l),
(148,487,l),
(143,494,o),
(143,505,qs),
(143,527,o),
(165,552,qs),
(214,607,o),
(285,620,qs),
(303,624,o),
(322,624,qs),
(368,624,o),
(413,604,qs),
(481,575,o),
(578,447,o),
(596,364,qs),
(604,323,o),
(604,281,qs),
(604,215,o),
(584,154,q),
(668,125,l),
(674,142,ls),
(696,209,o),
(696,281,qs),
(696,327,o),
(687,372,qs),
(668,464,o),
(614,535,qs),
(554,614,o),
(465,652,qs),
(397,681,o),
(322,681,qs),
(289,681,o),
(258,676,qs),
(151,656,o),
(84,580,qs),
(50,541,o),
(50,505,qs),
(50,485,o),
(60,469,qs),
(69,455,o),
(82,446,q),
(73,439,o),
(64,431,qs),
(26,395,o),
(16,344,qs),
(14,335,l),
(21,327,ls),
(56,286,o),
(111,270,qs),
(128,264,o),
(146,262,q),
(120,224,o),
(120,182,qs),
(120,152,o)
);
}
);
};
layerId = m01;
shapes = (
{
closed = 1;
nodes = (
(267,316,l),
(295,353,l),
(259,342,ls),
(212,328,o),
(129,331,o),
(118,351,cs),
(94,395,o),
(185,435,o),
(215,448,cs),
(241,459,l),
(227,502,l),
(199,494,ls),
(142,478,o),
(5,429,o),
(65,318,cs),
(87,276,o),
(132,272,o),
(177,271,c)
);
},
{
closed = 1;
nodes = (
(121,482,o),
(135,537,o),
(154,554,cs),
(178,577,o),
(216,614,o),
(309,614,cs),
(499,614,o),
(555,459,o),
(555,315,cs),
(550,225,o),
(551,236,o),
(561,144,c),
(619,151,l),
(615,185,ls),
(610,223,o),
(625,269,o),
(625,314,cs),
(625,559,o),
(481,680,o),
(309,680,cs),
(238,680,o),
(161,652,o),
(112,603,cs),
(59,550,o),
(56,458,o),
(84,425,cs),
(105,400,l),
(154,437,l),
(136,461,ls)
);
},
{
closed = 1;
nodes = (
(272,-7,l),
(234,-8,l),
(269,-36,l),
(272,-32,l),
(272,-17,l)
);
},
{
closed = 1;
nodes = (
(431,99,l),
(421,136,l),
(399,98,l),
(407,95,l),
(419,98,l)
);
},
{
closed = 1;
nodes = (
(168,279,l),
(202,290,l),
(161,305,l),
(159,299,l),
(165,285,l)
);
},
{
closed = 1;
nodes = (
(234,-10,l),
(236,-11,o),
(238,-19,o),
(245,-47,c),
(375,101,l),
(312,119,l),
(191,-11,ls),
(172,-30,o),
(182,-49,o),
(204,-60,cs),
(566,-235,l),
(597,-185,l)
);
},
{
closed = 1;
nodes = (
(424,118,l),
(435,-11,l),
(492,-11,l),
(494,217,l),
(428,215,l)
);
},
{
closed = 1;
nodes = (
(178,292,l),
(159,271,o),
(146,236,o),
(146,207,cs),
(146,124,o),
(212,66,o),
(307,66,cs),
(357,66,o),
(406,89,o),
(433,118,cs),
(462,150,o),
(494,167,o),
(494,211,cs),
(494,302,l),
(438,292,l),
(437,281,o),
(426,228,o),
(421,212,cs),
(405,160,o),
(381,120,o),
(312,120,cs),
(258,120,o),
(219,157,o),
(219,211,cs),
(219,257,o),
(248,300,o),
(306,315,c),
(295,353,l)
);
}
);
width = 675;
}
);
note = or_h_ikaar;
}
{
glyphname = "hLa-orya";
layers = (
{
layerId = m01;
shapes = (
{
closed = 1;
nodes = (
(916,27,qs),
(916,50,o),
(913,72,qs),
(900,148,o),
(846,181,qs),
(814,202,o),
(774,202,qs),
(745,202,o),
(721,192,q),
(746,247,o),
(753,308,qs),
(756,329,o),
(756,351,qs),
(756,428,o),
(724,492,qs),
(686,568,o),
(532,668,o),
(437,681,qs),
(409,685,o),
(380,685,qs),
(318,685,o),
(262,667,qs),
(177,640,o),
(121,578,qs),
(72,523,o),
(53,450,qs),
(42,412,o),
(42,339,o),
(53,306,qs),
(69,260,o),
(104,233,qs),
(135,210,o),
(175,205,q),
(160,168,o),
(160,107,o),
(169,84,qs),
(172,77,o),
(175,71,q),
(88,-37,l),
(88,-44,l),
(88,-52,l),
(88,-72,l),
(568,-194,ls),
(598,-203,o),
(620,-228,qs),
(641,-253,l),
(701,-201,l),
(664,-158,o),
(605,-141,qs),
(192,-36,l),
(234,15,l),
(241,12,o),
(248,9,qs),
(279,-3,o),
(346,-3,o),
(374,5,qs),
(434,22,o),
(480,69,q),
(480,36,l),
(481,36,l),
(480,22,o),
(480,9,qs),
(480,-22,o),
(486,-50,qs),
(488,-61,l),
(577,-42,l),
(572,-18,o),
(572,36,o),
(587,98,o),
(603,117,qs),
(614,131,o),
(627,135,q),
(630,134,o),
(634,131,qs),
(647,121,o),
(651,102,q),
(651,-39,l),
(697,-39,l),
(701,-39,l),
(747,-39,l),
(747,103,l),
(749,126,o),
(764,139,qs),
(770,144,o),
(774,144,q),
(776,143,o),
(781,140,qs),
(791,134,o),
(800,122,qs),
(815,101,o),
(821,66,qs),
(824,47,o),
(824,27,qs),
(824,-33,o),
(796,-85,qs),
(788,-99,l),
(802,-112,ls),
(885,-180,o),
(989,-212,qs),
(1011,-219,l),
(1029,-161,l),
(954,-138,o),
(891,-89,q),
(916,-34,o)
);
},
{
closed = 1;
nodes = (
(526,270,l),
(518,270,l),
(476,270,l),
(472,244,ls),
(462,177,o),
(423,125,qs),
(402,96,o),
(376,77,qs),
(344,55,o),
(316,55,qs),
(306,55,o),
(297,58,qs),
(271,68,o),
(259,98,qs),
(252,114,o),
(252,134,qs),
(252,165,o),
(268,197,qs),
(280,221,o),
(294,239,qs),
(355,308,l),
(298,365,l),
(212,271,ls),
(202,261,o),
(195,261,qs),
(187,261,o),
(176,270,qs),
(155,286,o),
(135,345,o),
(135,407,o),
(144,441,qs),
(160,504,o),
(244,597,o),
(304,616,qs),
(340,627,o),
(380,627,qs),
(398,627,o),
(418,625,qs),
(485,616,o),
(542,579,qs),
(605,538,o),
(636,475,qs),
(664,419,o),
(664,351,qs),
(664,332,o),
(661,312,qs),
(654,249,o),
(625,193,q),
(597,192,o),
(572,182,q),
(572,270,l)
);
}
);
width = 839;
}
);
note = or_h_la;
}
{
glyphname = "jNya-orya";
layers = (
{
layerId = m01;
shapes = (
{
closed = 1;
nodes = (
(613,354,l)
);
},
{
closed = 1;
nodes = (
(182,151,qs),
(177,164,o),
(177,195,o),
(196,228,o),
(210,235,qs),
(215,238,o),
(219,238,o),
(220,237,q),
(232,235,o),
(242,223,q),
(242,117,l),
(233,112,o),
(221,112,o),
(216,114,qs),
(193,123,o)
);
},
{
closed = 1;
nodes = (
(385,113,o),
(363,113,qs),
(347,113,o),
(334,119,q),
(334,216,l),
(356,227,o),
(385,227,qs),
(393,227,o),
(405,224,q),
(405,127,l)
);
},
{
closed = 1;
nodes = (
(332,450,l),
(329,461,o),
(329,481,o),
(331,490,qs),
(337,516,o),
(356,530,qs),
(366,538,o),
(373,538,qs),
(384,538,o),
(396,527,qs),
(411,512,o),
(414,491,q),
(392,413,l),
(482,403,l),
(504,480,l),
(510,486,o),
(531,499,o),
(544,499,o),
(563,492,o),
(572,481,qs),
(591,460,o),
(591,429,qs),
(591,397,o),
(570,369,qs),
(526,313,o),
(413,313,qs),
(344,313,o),
(285,333,qs),
(249,346,o),
(192,389,o),
(162,449,o),
(162,482,qs),
(162,537,o),
(197,583,qs),
(244,648,o),
(333,664,qs),
(359,669,o),
(383,669,qs),
(449,669,o),
(513,633,qs),
(542,618,l),
(574,677,l),
(484,727,o),
(383,727,qs),
(345,727,o),
(306,719,qs),
(178,696,o),
(113,607,qs),
(70,550,o),
(70,482,qs),
(70,440,o),
(110,360,o),
(152,329,qs),
(178,309,o),
(210,295,q),
(180,293,o),
(151,279,qs),
(118,263,o),
(100,232,qs),
(85,205,o),
(85,177,qs),
(85,158,o),
(92,138,qs),
(112,85,o),
(170,64,qs),
(196,54,o),
(260,54,o),
(291,68,q),
(324,55,o),
(363,55,qs),
(384,55,o),
(405,59,q),
(405,-8,l),
(497,-8,l),
(497,225,l),
(524,236,o),
(538,236,qs),
(545,236,o),
(551,232,qs),
(569,221,o),
(570,197,qs),
(570,-5,l),
(662,-5,l),
(662,198,l),
(662,199,ls),
(660,245,o),
(618,272,qs),
(601,282,o),
(581,288,q),
(626,310,o),
(653,344,qs),
(684,384,o),
(684,429,qs),
(684,475,o),
(652,511,qs),
(631,534,o),
(569,556,o),
(511,556,o),
(484,547,q),
(479,552,o),
(474,558,q),
(435,596,o),
(373,596,qs),
(323,596,o),
(249,540,o),
(240,498,qs),
(237,486,o),
(237,456,o),
(242,439,qs),
(247,423,l)
);
}
);
width = 735;
}
);
note = or_j_nya;
}
{
glyphname = "kKa-orya";
layers = (
{
background = {
shapes = (
{
closed = 1;
nodes = (
(554,-79,q),
(554,-119,l),
(646,-119,l),
(646,56,l),
(647,66,o),
(650,75,qs),
(657,90,o),
(670,98,qs),
(679,103,o),
(689,103,qs),
(698,103,o),
(707,98,qs),
(722,89,o),
(727,72,qs),
(729,65,o),
(729,57,o),
(728,54,q),
(728,-117,l),
(821,-117,l),
(821,53,ls),
(821,56,o),
(821,71,o),
(817,82,qs),
(807,118,o),
(735,161,o),
(689,161,qs),
(643,161,o),
(609,141,q),
(609,192,ls),
(609,195,o),
(609,197,qs),
(609,213,o),
(605,228,qs),
(595,266,o),
(565,291,qs),
(527,322,o),
(475,322,qs),
(460,322,o),
(446,320,qs),
(445,320,l),
(427,316,ls),
(381,306,o),
(333,306,qs),
(299,306,o),
(215,322,q),
(196,329,o),
(182,348,qs),
(164,374,o),
(164,411,qs),
(164,456,o),
(224,553,o),
(271,585,qs),
(338,631,o),
(412,631,qs),
(494,631,o),
(563,582,qs),
(623,540,o),
(695,403,o),
(701,323,qs),
(702,309,o),
(702,264,o),
(697,233,q),
(787,219,l),
(794,262,o),
(794,296,qs),
(794,400,o),
(746,491,qs),
(705,570,o),
(631,621,qs),
(535,688,o),
(412,688,qs),
(376,688,o),
(341,682,qs),
(266,667,o),
(144,584,o),
(71,466,o),
(71,411,qs),
(71,362,o),
(98,324,qs),
(109,309,o),
(124,297,q),
(109,285,o),
(97,269,qs),
(70,232,o),
(70,189,qs),
(70,147,o),
(93,113,qs),
(120,74,o),
(167,57,qs),
(198,46,o),
(232,46,qs),
(282,46,o),
(325,67,q),
(311,43,o),
(311,13,qs),
(311,-40,o),
(356,-76,qs),
(395,-106,o),
(455,-106,qs),
(473,-106,o),
(493,-102,qs),
(525,-96,o)
);
},
{
closed = 1;
nodes = (
(162,159,o),
(162,220,o),
(179,242,qs),
(189,256,o),
(201,264,q),
(266,248,o),
(333,248,qs),
(341,248,o),
(349,248,q),
(347,243,o),
(345,237,qs),
(337,218,o),
(336,198,qs),
(336,179,l),
(318,148,o),
(289,126,qs),
(259,103,o),
(231,103,qs),
(223,103,o),
(214,107,qs),
(193,114,o)
);
},
{
closed = 1;
nodes = (
(554,57,qs),
(554,30,l),
(554,29,l),
(539,4,o),
(520,-15,qs),
(491,-42,o),
(464,-48,qs),
(459,-49,o),
(454,-49,qs),
(439,-49,o),
(427,-39,qs),
(407,-23,o),
(403,5,qs),
(403,9,o),
(403,13,qs),
(403,37,o),
(417,55,qs),
(422,61,o),
(428,66,qs),
(444,77,o),
(473,77,qs),
(482,77,o),
(530,74,o),
(550,68,q),
(552,68,o),
(555,67,q),
(554,62,o)
);
},
{
closed = 1;
nodes = (
(429,211,o),
(434,224,qs),
(442,245,o),
(458,257,qs),
(467,264,o),
(481,265,o),
(491,256,qs),
(508,243,o),
(514,219,qs),
(516,208,o),
(516,196,o),
(516,194,qs),
(516,193,l),
(516,133,l),
(511,133,o),
(506,133,qs),
(488,135,o),
(473,135,qs),
(449,135,o),
(428,131,q),
(428,196,ls)
);
}
);
};
layerId = m01;
shapes = (
{
closed = 1;
nodes = (
(401,228,l),
(382,273,o),
(335,305,o),
(273,305,cs),
(192,305,o),
(123,254,o),
(123,187,cs),
(123,121,o),
(192,69,o),
(273,69,cs),
(335,69,o),
(382,102,o),
(401,147,c)
);
},
{
closed = 1;
nodes = (
(228,126,o),
(196,153,o),
(196,187,cs),
(196,221,o),
(229,247,o),
(274,247,cs),
(311,247,o),
(341,222,o),
(341,188,cs),
(341,153,o),
(311,126,o),
(273,126,cs)
);
},
{
closed = 1;
nodes = (
(684,247,l),
(688,275,o),
(690,303,o),
(690,332,cs),
(690,502,o),
(559,673,o),
(347,673,cs),
(169,673,o),
(62,535,o),
(62,424,cs),
(62,330,o),
(133,247,o),
(268,247,cs),
(296,247,l),
(296,303,l),
(268,303,ls),
(177,303,o),
(132,356,o),
(132,424,cs),
(132,511,o),
(215,617,o),
(347,617,cs),
(513,617,o),
(620,478,o),
(620,332,cs),
(620,306,o),
(618,280,o),
(614,255,c)
);
},
{
closed = 1;
nodes = (
(466,102,l),
(536,102,l),
(538,208,ls),
(539,262,o),
(499,301,o),
(439,301,cs),
(373,301,o),
(343,258,o),
(342,208,cs),
(340,37,l),
(405,37,l),
(407,208,ls),
(407,230,o),
(416,245,o),
(436,245,cs),
(456,245,o),
(468,230,o),
(468,208,cs)
);
},
{
closed = 1;
nodes = (
(614,81,l),
(596,125,o),
(546,157,o),
(485,157,cs),
(405,157,o),
(340,107,o),
(340,41,cs),
(340,-24,o),
(405,-75,o),
(485,-75,cs),
(546,-75,o),
(596,-42,o),
(614,2,c)
);
},
{
closed = 1;
nodes = (
(442,-17,o),
(409,7,o),
(409,40,cs),
(409,73,o),
(442,101,o),
(487,101,cs),
(523,101,o),
(551,74,o),
(551,41,cs),
(551,8,o),
(521,-17,o),
(485,-17,cs)
);
},
{
closed = 1;
nodes = (
(678,-121,l),
(748,-121,l),
(750,58,ls),
(751,112,o),
(711,151,o),
(651,151,cs),
(585,151,o),
(553,108,o),
(552,58,cs),
(550,-121,l),
(620,-121,l),
(622,58,ls),
(622,80,o),
(631,95,o),
(651,95,cs),
(671,95,o),
(680,80,o),
(680,58,cs)
);
}
);
width = 802;
}
);
note = or_k_ka;
}
{
glyphname = "kSsa-orya";
layers = (
{
backgroundImage = {
imagePath = "../../../../ksha.png";
pos = (-286,-296);
scale = (3.4062,3.4062);
};
hints = (
{
name = _corner.tailLeft;
origin = (0,1);
type = Corner;
}
);
layerId = m01;
shapes = (
{
closed = 1;
nodes = (
(562,571,l),
(574,17,l),
(630,17,l),
(630,646,l),
(573,646,l)
);
},
{
closed = 1;
nodes = (
(202,255,l),
(152,305,o),
(139,359,o),
(139,429,cs),
(139,527,o),
(208,618,o),
(360,618,cs),
(511,618,o),
(571,412,o),
(571,395,c),
(614,414,l),
(614,451,o),
(594,525,o),
(563,578,c),
(549,582,l),
(513,628,o),
(471,672,o),
(341,672,cs),
(162,672,o),
(72,548,o),
(71,429,cs),
(70,348,o),
(88,265,o),
(160,219,c)
);
},
{
closed = 1;
nodes = (
(282,356,l),
(260,342,o),
(207,291,o),
(181,245,cs),
(167,221,o),
(177,189,o),
(177,166,cs),
(177,44,o),
(272,0,o),
(385,0,cs),
(467,0,o),
(519,40,o),
(564,102,c),
(575,82,l),
(629,371,l),
(590,362,l),
(590,147,o),
(465,53,o),
(376,53,cs),
(304,53,o),
(231,94,o),
(231,174,cs),
(231,227,o),
(268,285,o),
(306,327,c)
);
},
{
closed = 1;
nodes = (
(109,0,o),
(133,19,o),
(133,48,cs),
(133,61,o),
(118,69,o),
(115,76,c),
(112,99,o),
(163,147,o),
(181,169,cs),
(228,226,l),
(206,253,l),
(158,226,o),
(31,116,o),
(31,52,cs),
(31,23,o),
(50,0,o),
(79,0,cs)
);
},
{
closed = 1;
nodes = (
(187,567,l),
(155,519,l),
(572,245,l),
(607,288,l)
);
}
);
width = 700;
}
);
note = or_k_ssa;
}
{
glyphname = "kSsa-orya.init";
layers = (
{
backgroundImage = {
imagePath = "../../../../ksha.png";
pos = (-15,-296);
scale = (3.4062,3.4062);
};
hints = (
{
name = _corner.tailLeft;
type = Corner;
},
{
name = _corner.tailLeft;
origin = (0,0);
type = Corner;
}
);
layerId = m01;
shapes = (
{
closed = 1;
nodes = (
(576,17,l),
(638,17,l),
(638,646,l),
(576,646,l)
);
},
{
closed = 1;
nodes = (
(121,342,o),
(161,285,o),
(257,269,c),
(261,262,l),
(213,250,o),
(178,202,o),
(175,145,cs),
(171,60,o),
(257,0,o),
(384,0,cs),
(479,0,o),
(578,72,o),
(625,175,c),
(583,265,l),
(559,148,o),
(471,56,o),
(384,56,cs),
(307,56,o),
(245,98,o),
(245,152,cs),
(245,217,o),
(333,253,o),
(409,286,c),
(386,321,l),
(231,309,o),
(199,360,o),
(196,445,cs),
(193,530,o),
(259,615,o),
(375,615,cs),
(472,615,o),
(551,568,o),
(583,411,c),
(625,494,l),
(564,629,o),
(483,671,o),
(384,671,cs),
(197,671,o),
(125,574,o),
(125,442,cs)
);
},
{
closed = 1;
nodes = (
(194,560,l),
(165,508,l),
(592,316,l),
(621,368,l)
);
},
{
closed = 1;
nodes = (
(76,112,o),
(107,126,o),
(117,153,cs),
(119,160,o),
(121,170,o),
(120,177,c),
(125,200,o),
(144,210,o),
(201,235,cs),
(263,262,l),
(248,288,l),
(203,279,o),
(96,264,o),
(51,234,cs),
(27,218,o),
(22,202,o),
(17,189,cs),
(7,162,o),
(21,132,o),
(48,122,cs)
);
}
);
width = 693;
}
);
note = or_k_ssa;
}
{
glyphname = "kTa-orya";
layers = (
{
backgroundImage = {
imagePath = "../../../../kta.png";
};
layerId = m01;
shapes = (
{
closed = 1;
nodes = (
(401,228,l),
(382,273,o),
(335,305,o),
(273,305,cs),
(192,305,o),
(123,254,o),
(123,187,cs),
(123,121,o),
(192,69,o),
(273,69,cs),
(335,69,o),
(382,102,o),
(401,147,c)
);
},
{
closed = 1;
nodes = (
(228,126,o),
(196,153,o),
(196,187,cs),
(196,221,o),
(229,247,o),
(274,247,cs),
(311,247,o),
(341,222,o),
(341,188,cs),
(341,153,o),
(311,126,o),
(273,126,cs)
);
},
{
closed = 1;
nodes = (
(658,57,l),
(664,85,o),
(690,303,o),
(690,332,cs),
(690,502,o),
(559,673,o),
(347,673,cs),
(169,673,o),
(62,535,o),
(62,424,cs),
(62,330,o),
(133,247,o),
(268,247,cs),
(296,247,l),
(296,303,l),
(268,303,ls),
(177,303,o),
(132,356,o),
(132,424,cs),
(132,511,o),
(215,617,o),
(347,617,cs),
(513,617,o),
(620,478,o),
(620,332,cs),
(620,306,o),
(604,83,o),
(600,58,c)
);
},
{
closed = 1;
nodes = (
(466,0,l),
(536,0,l),
(538,208,ls),
(539,262,o),
(499,301,o),
(439,301,cs),
(373,301,o),
(342,258,o),
(342,208,cs),
(340,0,l),
(405,0,l),
(407,208,ls),
(407,230,o),
(416,245,o),
(436,245,cs),
(456,245,o),
(468,230,o),
(468,208,cs)
);
},
{
closed = 1;
nodes = (
(365,-181,o),
(556,-171,o),
(673,-108,cs),
(737,-73,o),
(809,0,o),
(778,84,cs),
(753,151,o),
(643,153,o),
(610,102,cs),
(573,44,o),
(599,-10,o),
(623,-43,cs),
(653,-84,l),
(704,-51,l),
(673,-9,ls),
(659,10,o),
(648,47,o),
(664,72,cs),
(672,84,o),
(704,91,o),
(714,64,cs),
(731,18,o),
(683,-36,o),
(641,-59,cs),
(540,-114,o),
(374,-123,o),
(313,-85,cs),
(287,-69,l),
(253,-118,l),
(279,-132,ls)
);
}
);
width = 790;
}
);
note = or_k_ta;
}
{
glyphname = "kTta-orya";
layers = (
{
background = {
shapes = (
{
closed = 1;
nodes = (
(183,235,qs),
(194,249,o),
(207,255,q),
(287,246,o),
(364,246,qs),
(370,246,o),
(376,246,q),
(371,237,o),
(367,227,qs),
(361,208,o),
(359,187,q),
(359,138,l),
(334,120,o),
(304,105,qs),
(270,88,o),
(242,88,qs),
(221,88,o),
(204,98,qs),
(184,111,o),
(163,154,o),
(163,176,qs),
(163,211,o)
);
},
{
closed = 1;
nodes = (
(621,184,o),
(621,186,qs),
(621,202,o),
(617,217,qs),
(609,252,o),
(584,276,qs),
(547,312,o),
(493,312,qs),
(472,312,o),
(454,307,q),
(406,303,o),
(364,303,qs),
(289,303,o),
(215,313,q),
(197,321,o),
(185,338,qs),
(165,365,o),
(165,405,qs),
(165,452,o),
(197,504,qs),
(231,562,o),
(286,599,qs),
(349,642,o),
(420,642,qs),
(444,642,o),
(469,635,qs),
(521,622,o),
(606,545,o),
(654,419,o),
(654,341,qs),
(654,283,o),
(641,227,qs),
(637,214,l),
(738,144,l),
(633,145,l),
(633,116,l),
(633,115,l),
(633,105,l),
(726,24,l),
(697,10,o),
(678,-14,qs),
(650,-49,o),
(650,-134,o),
(674,-165,qs),
(692,-189,o),
(717,-202,qs),
(752,-221,o),
(793,-221,qs),
(832,-221,o),
(894,-189,o),
(930,-135,o),
(930,-103,qs),
(930,-77,o),
(904,-28,o),
(878,-10,q),
(768,86,l),
(888,86,l),
(888,115,l),
(888,116,l),
(888,127,l),
(735,232,l),
(746,286,o),
(746,341,qs),
(746,426,o),
(720,496,qs),
(692,569,o),
(582,669,o),
(504,689,qs),
(462,699,o),
(418,699,qs),
(309,699,o),
(219,638,qs),
(152,593,o),
(110,525,qs),
(73,462,o),
(73,405,qs),
(73,352,o),
(101,315,qs),
(112,299,o),
(127,287,q),
(113,277,o),
(102,263,qs),
(70,225,o),
(70,176,qs),
(70,145,o),
(84,117,qs),
(103,79,o),
(141,57,qs),
(184,31,o),
(243,31,qs),
(299,31,o),
(359,59,q),
(359,-12,l),
(451,-12,l),
(451,186,ls),
(452,200,o),
(457,214,qs),
(466,236,o),
(480,247,qs),
(487,253,o),
(492,254,q),
(499,252,o),
(506,245,qs),
(521,231,o),
(526,208,qs),
(529,196,o),
(529,183,qs),
(529,182,l),
(529,-9,l),
(621,-9,l),
(621,182,ls)
);
},
{
closed = 1;
nodes = (
(742,-62,o),
(760,-40,qs),
(769,-29,o),
(780,-23,q),
(805,-45,l),
(807,-47,l),
(810,-49,ls),
(822,-57,o),
(837,-86,o),
(837,-124,o),
(827,-140,qs),
(818,-154,o),
(806,-160,qs),
(799,-164,o),
(786,-163,o),
(767,-153,o),
(759,-142,qs),
(742,-120,o)
);
}
);
};
layerId = m01;
shapes = (
{
closed = 1;
nodes = (
(401,228,l),
(382,273,o),
(335,305,o),
(273,305,cs),
(192,305,o),
(123,254,o),
(123,187,cs),
(123,121,o),
(192,69,o),
(273,69,cs),
(335,69,o),
(382,102,o),
(401,147,c)
);
},
{
closed = 1;
nodes = (
(228,126,o),
(196,153,o),
(196,187,cs),
(196,221,o),
(229,247,o),
(274,247,cs),
(311,247,o),
(341,222,o),
(341,188,cs),
(341,153,o),
(311,126,o),
(273,126,cs)
);
},
{
closed = 1;
nodes = (
(678,238,l),
(684,266,o),
(690,303,o),
(690,332,cs),
(690,502,o),
(559,673,o),
(347,673,cs),
(169,673,o),
(62,535,o),
(62,424,cs),
(62,330,o),
(133,247,o),
(268,247,cs),
(296,247,l),
(296,303,l),
(268,303,ls),
(177,303,o),
(132,356,o),
(132,424,cs),
(132,511,o),
(215,617,o),
(347,617,cs),
(513,617,o),
(620,478,o),
(620,332,cs),
(620,306,o),
(618,280,o),
(614,255,c)
);
},
{
closed = 1;
nodes = (
(466,0,l),
(536,0,l),
(538,208,ls),
(539,262,o),
(499,301,o),
(439,301,cs),
(373,301,o),
(342,258,o),
(342,208,cs),
(340,0,l),
(405,0,l),
(407,208,ls),
(407,230,o),
(416,245,o),
(436,245,cs),
(456,245,o),
(468,230,o),
(468,208,cs)
);
},
{
closed = 1;
nodes = (
(814,-209,o),
(874,-149,o),
(874,-78,cs),
(874,-35,o),
(852,5,o),
(818,29,cs),
(795,45,o),
(767,54,o),
(736,54,cs),
(657,54,o),
(597,-6,o),
(597,-78,cs),
(597,-149,o),
(657,-209,o),
(736,-209,cs)
);
},
{
closed = 1;
nodes = (
(700,-153,o),
(668,-121,o),
(668,-78,cs),
(668,-34,o),
(700,-2,o),
(737,-2,cs),
(773,-2,o),
(805,-34,o),
(805,-78,cs),
(805,-121,o),
(773,-153,o),
(737,-153,cs)
);
},
{
closed = 1;
nodes = (
(851,124,l),
(630,276,l),
(590,230,l),
(710,145,l),
(624,145,l),
(624,110,l),
(781,-12,l),
(818,29,l),
(735,98,l),
(851,98,l)
);
}
);
width = 926;
}
);
note = or_k_tta;
}
{
glyphname = "kU-orya";
layers = (
{
layerId = m01;
shapes = (
{
closed = 1;
nodes = (
(186,246,qs),
(194,256,o),
(202,263,q),
(265,248,o),
(331,248,qs),
(339,248,o),
(346,248,q),
(344,243,o),
(342,237,qs),
(335,218,o),
(333,198,q),
(333,148,l),
(319,128,o),
(298,115,qs),
(276,101,o),
(255,101,qs),
(227,101,o),
(204,121,qs),
(170,150,o),
(170,194,qs),
(170,224,o)
);
},
{
closed = 1;
nodes = (
(595,194,o),
(595,196,qs),
(595,212,o),
(591,228,qs),
(583,263,o),
(558,287,qs),
(521,322,o),
(467,322,qs),
(454,322,o),
(442,320,q),
(442,320,l),
(442,320,l),
(434,319,o),
(427,317,qs),
(424,316,ls),
(378,306,o),
(331,306,qs),
(271,306,o),
(213,322,q),
(194,329,o),
(180,348,qs),
(162,374,o),
(162,411,qs),
(162,455,o),
(192,504,qs),
(239,583,o),
(317,617,qs),
(359,635,o),
(403,635,qs),
(432,635,o),
(461,626,qs),
(532,604,o),
(587,535,qs),
(683,414,o),
(683,194,qs),
(683,107,o),
(669,-10,q),
(654,-10,o),
(641,-10,qs),
(568,-10,o),
(456,-28,o),
(422,-44,qs),
(374,-67,o),
(352,-105,qs),
(337,-132,o),
(337,-163,qs),
(337,-164,o),
(337,-165,o),
(337,-165,q),
(338,-196,o),
(352,-224,qs),
(382,-281,o),
(453,-306,qs),
(490,-319,o),
(530,-319,qs),
(592,-319,o),
(644,-290,qs),
(722,-245,o),
(739,-161,qs),
(746,-127,o),
(754,-72,q),
(833,-77,o),
(861,-77,qs),
(944,-77,o),
(1019,-54,q),
(1002,4,l),
(980,-2,ls),
(935,-16,o),
(888,-18,qs),
(876,-19,o),
(838,-19,o),
(761,-14,q),
(775,105,o),
(775,194,qs),
(775,428,o),
(670,560,qs),
(601,647,o),
(501,678,qs),
(454,692,o),
(403,692,qs),
(330,692,o),
(265,664,qs),
(163,621,o),
(105,525,qs),
(70,465,o),
(70,411,qs),
(70,361,o),
(96,324,qs),
(109,307,o),
(125,295,q),
(112,284,o),
(102,270,qs),
(78,236,o),
(78,194,qs),
(78,131,o),
(180,44,o),
(255,44,qs),
(297,44,o),
(333,58,q),
(333,1,l),
(425,1,l),
(425,196,ls),
(426,211,o),
(431,224,qs),
(440,246,o),
(454,258,qs),
(461,263,o),
(466,265,q),
(473,262,o),
(480,256,qs),
(495,242,o),
(500,219,qs),
(503,206,o),
(503,193,q),
(503,193,l),
(503,3,l),
(595,3,l),
(595,193,ls)
);
},
{
closed = 1;
nodes = (
(662,-68,q),
(656,-111,o),
(648,-154,qs),
(642,-184,o),
(605,-234,o),
(557,-261,o),
(530,-261,qs),
(514,-261,o),
(498,-256,qs),
(459,-242,o),
(440,-206,qs),
(429,-186,o),
(429,-163,qs),
(429,-142,o),
(439,-124,qs),
(452,-102,o),
(478,-90,qs),
(497,-81,o),
(580,-67,o),
(641,-67,qs),
(651,-67,o)
);
}
);
width = 840;
}
);
note = or_k_ukaar;
}
{
glyphname = "lLa-orya";
layers = (
{
layerId = m01;
shapes = (
{
closed = 1;
nodes = (
(548,-62,q),
(630,-95,l),
(638,-76,ls),
(653,-40,o),
(653,0,qs),
(653,26,o),
(646,51,qs),
(628,118,o),
(571,144,qs),
(546,155,o),
(518,155,qs),
(472,155,o),
(440,129,q),
(410,145,o),
(336,145,o),
(304,127,qs),
(300,125,o),
(296,123,qs),
(286,119,l),
(278,116,l),
(275,118,o),
(272,121,qs),
(250,140,o),
(250,174,qs),
(250,187,o),
(255,201,qs),
(263,225,o),
(284,243,qs),
(313,270,o),
(433,300,o),
(481,300,qs),
(505,300,o),
(527,296,q),
(529,295,l),
(530,296,l),
(625,281,o),
(680,204,qs),
(705,169,o),
(715,128,qs),
(723,99,o),
(723,39,o),
(716,11,qs),
(702,-47,o),
(662,-90,qs),
(656,-97,l),
(656,-105,l),
(656,-119,l),
(656,-136,l),
(748,-170,o),
(817,-196,qs),
(863,-212,o),
(932,-212,o),
(963,-196,q),
(933,-137,l),
(905,-152,ls),
(899,-155,o),
(887,-154,o),
(809,-126,o),
(754,-105,q),
(793,-57,o),
(808,2,qs),
(815,34,o),
(815,104,o),
(806,138,qs),
(779,240,o),
(691,298,qs),
(690,299,o),
(690,300,qs),
(690,316,l),
(701,364,o),
(701,452,o),
(695,489,qs),
(681,561,o),
(644,609,qs),
(600,666,o),
(520,696,qs),
(460,719,o),
(374,726,qs),
(346,728,o),
(322,728,qs),
(224,728,o),
(158,689,qs),
(106,658,o),
(83,610,qs),
(70,582,o),
(70,527,o),
(79,506,qs),
(91,474,o),
(119,452,qs),
(134,441,o),
(150,434,q),
(141,408,o),
(141,377,qs),
(141,367,o),
(142,351,q),
(234,361,l),
(233,369,o),
(233,377,qs),
(233,420,o),
(254,447,qs),
(262,458,o),
(277,466,o),
(285,467,o),
(290,463,q),
(302,456,o),
(309,440,q),
(309,352,l),
(355,352,l),
(359,352,l),
(405,352,l),
(374,347,o),
(341,339,qs),
(253,317,o),
(207,275,qs),
(177,248,o),
(165,214,qs),
(158,193,o),
(158,156,o),
(162,140,qs),
(172,109,o),
(197,87,qs),
(217,70,o),
(243,62,q),
(235,45,o),
(230,24,qs),
(223,-4,o),
(223,-56,o),
(228,-79,qs),
(230,-90,l),
(319,-72,l),
(315,-52,o),
(315,-8,o),
(321,16,qs),
(329,48,o),
(346,68,qs),
(354,78,o),
(370,87,o),
(373,87,qs),
(377,87,o),
(384,83,qs),
(398,73,o),
(404,53,q),
(404,-67,l),
(450,-67,l),
(454,-67,l),
(500,-67,l),
(500,56,ls),
(500,59,o),
(500,61,qs),
(500,79,o),
(511,91,qs),
(514,95,o),
(518,97,q),
(525,94,o),
(533,86,qs),
(548,70,o),
(555,41,qs),
(560,21,o),
(560,0,qs),
(560,-33,o)
);
},
{
closed = 1;
nodes = (
(243,524,o),
(210,506,qs),
(198,499,o),
(188,491,q),
(163,513,o),
(163,554,qs),
(163,573,o),
(172,594,qs),
(187,627,o),
(221,647,qs),
(260,670,o),
(321,670,qs),
(340,670,o),
(362,668,qs),
(429,663,o),
(473,647,qs),
(529,625,o),
(591,545,o),
(603,482,qs),
(609,448,o),
(609,408,qs),
(609,376,o),
(602,341,q),
(596,342,o),
(590,344,q),
(591,345,l),
(571,370,l),
(572,380,o),
(572,391,qs),
(572,442,o),
(547,478,qs),
(520,517,o),
(473,530,qs),
(455,534,o),
(435,534,qs),
(386,534,o),
(351,507,q),
(320,524,o)
);
},
{
closed = 1;
nodes = (
(411,463,o),
(427,474,qs),
(432,477,o),
(436,477,o),
(437,476,q),
(450,473,o),
(462,456,qs),
(480,430,o),
(480,389,qs),
(480,379,o),
(477,359,q),
(478,357,l),
(443,357,o),
(406,352,q),
(406,441,l)
);
}
);
width = 866;
}
);
note = or_l_la;
}
{
glyphname = "llPa-orya";
layers = (
{
layerId = m01;
shapes = (
{
closed = 1;
nodes = (
(722,82,l),
(751,126,o),
(766,178,qs),
(782,232,o),
(782,292,qs),
(782,325,o),
(772,387,o),
(762,417,qs),
(747,463,o),
(721,502,qs),
(696,542,o),
(661,574,qs),
(623,610,o),
(535,656,o),
(484,668,qs),
(463,672,o),
(422,677,o),
(401,677,qs),
(366,677,o),
(334,671,qs),
(302,665,o),
(271,654,qs),
(221,635,o),
(143,575,o),
(115,533,qs),
(92,500,o),
(70,431,o),
(70,396,qs),
(70,367,o),
(84,315,o),
(113,270,o),
(133,252,qs),
(153,233,o),
(178,222,q),
(174,213,o),
(168,195,o),
(165,185,qs),
(160,166,o),
(157,146,qs),
(155,126,o),
(155,107,qs),
(155,83,o),
(159,58,qs),
(162,35,o),
(171,10,qs),
(177,-7,l),
(261,22,l),
(254,42,o),
(251,64,qs),
(247,85,o),
(247,107,qs),
(247,123,o),
(249,140,qs),
(251,159,o),
(256,174,qs),
(260,188,o),
(266,203,qs),
(271,217,o),
(280,226,qs),
(284,231,o),
(287,234,qs),
(290,238,o),
(294,239,q),
(294,239,o),
(296,240,o),
(297,241,q),
(298,241,o),
(300,242,qs),
(301,243,o),
(301,243,q),
(302,244,o),
(304,244,o),
(305,244,q),
(306,243,o),
(307,243,q),
(307,242,o),
(314,237,o),
(317,234,qs),
(318,233,o),
(321,228,qs),
(325,222,o),
(326,220,qs),
(327,216,o),
(327,211,qs),
(327,17,l),
(373,17,l),
(377,17,l),
(424,17,l),
(424,212,ls),
(424,219,o),
(425,223,qs),
(426,227,o),
(428,233,qs),
(431,239,o),
(433,242,qs),
(436,245,o),
(440,248,qs),
(442,249,o),
(445,251,qs),
(446,252,o),
(447,253,q),
(448,253,o),
(449,253,qs),
(450,253,o),
(451,253,q),
(452,252,o),
(453,252,q),
(455,251,o),
(457,249,q),
(460,248,o),
(464,244,o),
(467,242,q),
(471,236,o),
(475,231,qs),
(483,221,o),
(493,193,o),
(497,178,qs),
(500,164,o),
(501,147,qs),
(503,131,o),
(503,117,qs),
(503,97,o),
(500,77,qs),
(497,57,o),
(492,37,q),
(481,29,o),
(472,20,qs),
(464,11,o),
(458,2,qs),
(452,-8,o),
(448,-20,qs),
(444,-33,o),
(445,-44,qs),
(445,-49,o),
(446,-54,qs),
(447,-59,o),
(449,-64,qs),
(454,-79,o),
(468,-93,qs),
(482,-107,o),
(501,-115,q),
(492,-120,o),
(483,-127,qs),
(475,-133,o),
(469,-140,qs),
(459,-151,o),
(455,-163,qs),
(450,-175,o),
(450,-188,qs),
(450,-191,o),
(450,-195,qs),
(450,-198,o),
(451,-202,qs),
(454,-227,o),
(479,-270,o),
(522,-304,o),
(574,-321,o),
(604,-321,qs),
(623,-321,o),
(658,-314,o),
(676,-306,qs),
(688,-301,o),
(714,-288,o),
(726,-280,q),
(726,-291,l),
(818,-291,l),
(818,80,l),
(728,81,l)
);
},
{
closed = 1;
nodes = (
(696,-213,qs),
(680,-227,o),
(664,-237,qs),
(644,-250,o),
(630,-257,qs),
(615,-263,o),
(604,-263,qs),
(596,-263,o),
(580,-257,o),
(572,-251,qs),
(559,-241,o),
(545,-214,o),
(543,-197,q),
(542,-195,o),
(542,-191,o),
(542,-189,qs),
(542,-180,o),
(552,-164,o),
(562,-158,qs),
(566,-156,o),
(572,-153,q),
(576,-152,o),
(586,-148,qs),
(599,-143,o),
(607,-140,qs),
(619,-135,o),
(632,-130,q),
(632,-114,l),
(632,-110,l),
(632,-93,l),
(609,-85,ls),
(602,-83,o),
(596,-81,q),
(595,-81,o),
(578,-76,qs),
(569,-73,o),
(565,-72,qs),
(560,-70,o),
(557,-69,qs),
(547,-64,o),
(537,-50,o),
(537,-41,qs),
(537,-29,o),
(545,-17,qs),
(555,-3,o),
(574,9,qs),
(592,19,o),
(611,25,qs),
(627,30,o),
(643,30,qs),
(651,30,o),
(668,27,o),
(676,24,qs),
(691,18,o),
(704,7,qs),
(717,-3,o),
(726,-18,q),
(726,-187,l),
(711,-201,o)
);
},
{
closed = 1;
nodes = (
(595,117,qs),
(595,150,o),
(589,182,qs),
(580,226,o),
(560,254,qs),
(545,276,o),
(523,290,qs),
(490,311,o),
(449,311,qs),
(403,311,o),
(369,285,q),
(340,302,o),
(268,302,o),
(238,285,qs),
(232,282,o),
(227,279,q),
(220,277,l),
(220,276,l),
(198,291,o),
(185,313,qs),
(162,349,o),
(162,396,qs),
(162,455,o),
(200,511,qs),
(245,577,o),
(318,604,qs),
(358,619,o),
(401,619,qs),
(427,619,o),
(453,613,qs),
(526,597,o),
(644,486,o),
(672,405,qs),
(690,351,o),
(690,292,qs),
(690,177,o),
(627,87,q),
(610,86,o),
(594,83,q),
(595,100,o)
);
}
);
width = 849;
}
);
note = or_ll_pa;
}
{
glyphname = "ma-orya.alt";
layers = (
{
layerId = m01;
shapes = (
{
closed = 1;
nodes = (
(601,694,l),
(601,591,l),
(581,610,o),
(557,626,qs),
(532,642,o),
(505,654,qs),
(470,669,o),
(434,677,qs),
(397,685,o),
(359,685,qs),
(329,685,o),
(272,675,o),
(244,665,qs),
(214,654,o),
(161,621,o),
(117,577,o),
(87,527,o),
(79,498,qs),
(74,483,o),
(72,468,qs),
(70,453,o),
(70,438,qs),
(70,424,o),
(71,410,qs),
(73,396,o),
(76,383,qs),
(83,354,o),
(98,328,qs),
(112,303,o),
(134,280,qs),
(168,246,o),
(259,203,o),
(316,195,qs),
(330,193,o),
(357,191,o),
(371,191,q),
(161,21,l),
(159,16,ls),
(158,13,o),
(158,11,qs),
(158,7,o),
(158,5,qs),
(158,1,o),
(159,-5,o),
(161,-9,qs),
(166,-17,o),
(184,-28,o),
(196,-30,qs),
(200,-31,o),
(207,-32,o),
(211,-32,qs),
(220,-32,o),
(236,-28,o),
(243,-25,qs),
(254,-19,o),
(265,-3,o),
(264,6,qs),
(264,10,o),
(263,17,o),
(261,20,q),
(501,212,l),
(525,220,o),
(576,235,o),
(601,240,q),
(601,-16,l),
(680,-16,l),
(680,694,l)
);
},
{
closed = 1;
nodes = (
(456,251,qs),
(414,238,o),
(371,238,qs),
(352,238,o),
(333,241,qs),
(253,252,o),
(202,304,qs),
(148,359,o),
(148,438,qs),
(148,464,o),
(156,490,qs),
(170,538,o),
(240,608,o),
(285,625,qs),
(320,637,o),
(359,637,qs),
(410,637,o),
(502,596,o),
(577,523,o),
(599,477,qs),
(601,473,l),
(601,290,l),
(530,276,o)
);
}
);
width = 724;
}
);
note = or_ma.alt;
}
{
glyphname = "nDI-orya";
layers = (
{
background = {
shapes = (
{
closed = 1;
nodes = (
(242,287,l),
(223,266,o),
(211,236,o),
(211,207,cs),
(211,124,o),
(295,66,o),
(390,66,cs),
(440,66,o),
(491,87,o),
(516,118,cs),
(542,150,o),
(574,167,o),
(574,211,cs),
(574,302,l),
(524,292,l),
(523,281,o),
(509,228,o),
(504,212,cs),
(488,160,o),
(464,120,o),
(395,120,cs),
(341,120,o),
(270,155,o),
(270,209,cs),
(269,223,o),
(268,238,o),
(270,251,c)
);
}
);
};
layerId = m01;
shapes = (
{
closed = 1;
nodes = (
(509,118,l),
(516,156,l),
(498,121,l),
(492,118,l),
(507,119,l)
);
},
{
closed = 1;
nodes = (
(267,330,l),
(229,281,l),
(97,83,l),
(91,63,l),
(142,34,l),
(228,179,l),
(278,241,l),
(374,386,l),
(337,413,l)
);
},
{
closed = 1;
nodes = (
(192,13,o),
(207,43,o),
(197,70,cs),
(190,89,o),
(173,90,o),
(195,125,c),
(123,105,l),
(96,95,o),
(83,65,o),
(93,36,cs),
(103,8,o),
(137,-7,o),
(164,3,cs)
);
},
{
closed = 1;
nodes = (
(267,227,l),
(275,264,l),
(239,253,ls),
(192,238,o),
(129,261,o),
(118,281,cs),
(94,325,o),
(185,365,o),
(215,378,cs),
(241,389,l),
(227,432,l),
(199,424,ls),
(142,408,o),
(5,359,o),
(65,248,cs),
(87,206,o),
(132,183,o),
(177,182,c)
);
},
{
closed = 1;
nodes = (
(129,506,o),
(236,616,o),
(355,616,cs),
(568,616,o),
(675,478,o),
(675,341,c),
(672,302,o),
(669,255,o),
(669,238,cs),
(670,173,l),
(732,177,l),
(732,213,ls),
(732,248,o),
(742,294,o),
(745,339,c),
(745,502,o),
(613,672,o),
(355,672,cs),
(273,672,o),
(179,625,o),
(122,564,cs),
(97,537,o),
(62,483,o),
(62,448,cs),
(62,406,o),
(86,377,o),
(137,360,c),
(184,406,l),
(166,411,ls),
(137,419,o),
(130,428,o),
(130,448,cs)
);
},
{
closed = 1;
nodes = (
(509,220,ls),
(471,170,o),
(434,143,o),
(392,142,cs),
(337,141,o),
(302,198,o),
(292,243,cs),
(285,277,l),
(221,265,l),
(229,231,ls),
(242,177,o),
(289,83,o),
(396,86,cs),
(457,87,o),
(512,120,o),
(551,167,c),
(518,232,l)
);
},
{
closed = 1;
nodes = (
(511,215,l),
(507,118,l),
(515,-11,l),
(572,-11,l),
(574,302,l),
(523,293,l),
(506,215,l)
);
}
);
width = 795;
}
);
note = or_n_d_ikaar;
}
{
glyphname = "nDha-orya";
layers = (
{
layerId = m01;
shapes = (
{
ref = "nDa-orya";
},
{
closed = 1;
nodes = (
(225,582,l),
(193,534,l),
(650,222,l),
(685,265,l)
);
}
);
width = 829;
}
);
note = or_n_dha;
}
{
glyphname = "nI-orya";
layers = (
{
backgroundImage = {
imagePath = "../../../../ni.png";
pos = (-41,0);
};
layerId = m01;
shapes = (
{
closed = 1;
nodes = (
(261,12,o),
(282,47,o),
(273,80,cs),
(263,114,o),
(228,135,o),
(194,126,cs),
(161,117,o),
(138,82,o),
(147,47,cs),
(156,14,o),
(194,-6,o),
(227,3,cs)
);
},
{
closed = 1;
nodes = (
(176,167,l),
(145,123,o),
(136,88,o),
(147,47,c),
(262,102,l),
(249,123,o),
(225,142,o),
(273,194,c)
);
},
{
closed = 1;
nodes = (
(107,467,o),
(124,524,o),
(143,553,cs),
(161,581,o),
(205,615,o),
(298,615,cs),
(488,615,o),
(551,460,o),
(551,316,c),
(546,226,o),
(547,237,o),
(557,145,c),
(615,152,l),
(611,186,ls),
(606,224,o),
(621,270,o),
(621,315,cs),
(621,560,o),
(470,681,o),
(298,681,cs),
(227,681,o),
(150,653,o),
(101,604,cs),
(48,551,o),
(38,445,o),
(94,397,cs),
(116,378,l),
(165,415,l),
(143,435,ls)
);
},
{
closed = 1;
nodes = (
(252,241,l),
(170,188,o),
(140,123,o),
(146,85,c),
(167,57,l),
(171,89,l),
(240,119,l),
(235,121,o),
(241,134,o),
(247,152,cs),
(265,204,o),
(335,253,o),
(406,273,c),
(410,17,l),
(469,17,l),
(469,306,l),
(426,334,l),
(368,319,o),
(335,312,o),
(286,304,cs),
(250,298,o),
(150,279,o),
(119,304,cs),
(114,308,o),
(126,331,o),
(143,351,cs),
(164,375,o),
(192,400,o),
(213,418,c),
(270,465,l),
(238,497,l),
(169,462,l),
(121,422,o),
(102,408,o),
(78,374,cs),
(48,326,o),
(31,284,o),
(85,250,cs),
(136,218,o),
(208,236,o),
(252,245,c)
);
},
{
closed = 1;
nodes = (
(221,218,l),
(260,238,l),
(256,250,l),
(212,238,l),
(218,224,l)
);
}
);
width = 671;
}
);
note = or_n_ikaar;
}
{
glyphname = "nTRa-orya";
layers = (
{
layerId = m01;
shapes = (
{
closed = 1;
nodes = (
(324,142,qs),
(320,146,l),
(362,211,o),
(443,251,qs),
(478,269,o),
(515,279,q),
(515,123,l),
(513,118,o),
(512,113,q),
(601,95,l),
(604,105,l),
(610,137,o),
(640,156,qs),
(663,169,o),
(714,178,q),
(714,-48,l),
(450,86,l),
(420,27,l),
(730,-131,l),
(747,-130,l),
(762,-130,l),
(806,-129,l),
(806,246,l),
(761,242,l),
(779,295,o),
(779,352,qs),
(779,446,o),
(729,529,qs),
(693,588,o),
(637,629,qs),
(542,697,o),
(420,697,qs),
(384,697,o),
(349,690,qs),
(230,666,o),
(153,579,qs),
(80,496,o),
(71,387,qs),
(70,376,o),
(70,365,qs),
(70,247,o),
(165,191,qs),
(192,175,o),
(222,167,qs),
(232,164,l),
(230,160,o),
(228,157,qs),
(197,102,o),
(190,40,qs),
(187,15,l),
(225,10,ls),
(235,8,o),
(244,8,qs),
(274,8,o),
(324,35,o),
(336,58,qs),
(344,74,o),
(344,91,qs),
(344,120,o)
);
},
{
closed = 1;
nodes = (
(237,228,o),
(229,233,qs),
(163,272,o),
(163,365,qs),
(163,374,o),
(163,384,qs),
(171,480,o),
(234,551,qs),
(293,618,o),
(376,635,qs),
(398,639,o),
(420,639,qs),
(500,639,o),
(567,591,qs),
(612,558,o),
(643,507,qs),
(687,435,o),
(687,352,qs),
(687,286,o),
(661,228,q),
(656,227,o),
(651,226,qs),
(627,220,o),
(607,212,q),
(607,315,l),
(600,322,l),
(589,333,l),
(571,351,l),
(539,345,ls),
(458,332,o),
(385,296,qs),
(333,270,o),
(294,236,q),
(245,224,l)
);
}
);
width = 862;
}
);
note = or_n_t_ra;
}
{
glyphname = "ngKa-orya";
layers = (
{
background = {
shapes = (
{
closed = 1;
nodes = (
(468,694,qs),
(436,700,o),
(402,700,qs),
(323,700,o),
(173,631,o),
(126,568,qs),
(73,498,o),
(73,414,qs),
(73,337,o),
(118,268,qs),
(121,264,o),
(124,260,q),
(102,244,o),
(88,221,qs),
(70,192,o),
(70,161,qs),
(70,143,o),
(76,125,qs),
(95,69,o),
(157,46,qs),
(186,36,o),
(216,36,qs),
(262,36,o),
(303,59,q),
(338,39,o),
(383,39,qs),
(402,39,o),
(420,43,q),
(420,-8,l),
(512,-8,l),
(512,225,l),
(539,236,o),
(554,236,qs),
(561,236,o),
(569,230,q),
(575,227,o),
(585,209,o),
(586,198,q),
(586,-5,l),
(678,-5,l),
(678,198,l),
(678,199,ls),
(677,220,o),
(654,258,o),
(633,272,qs),
(599,293,o),
(554,293,qs),
(515,293,o),
(469,276,q),
(468,274,o),
(465,274,o),
(464,274,q),
(431,284,o),
(396,284,qs),
(350,284,o),
(309,269,q),
(270,290,o),
(224,290,qs),
(214,290,o),
(204,289,q),
(204,289,o),
(204,290,q),
(165,348,o),
(165,485,o),
(210,544,qs),
(247,593,o),
(305,620,qs),
(353,643,o),
(402,643,qs),
(421,643,o),
(440,639,qs),
(516,624,o),
(561,560,qs),
(597,509,o),
(597,446,qs),
(597,440,l),
(601,435,ls),
(633,389,o),
(694,379,qs),
(708,376,o),
(723,376,qs),
(775,376,o),
(814,403,qs),
(863,437,o),
(868,494,qs),
(868,499,o),
(868,504,qs),
(868,553,o),
(834,590,qs),
(789,637,o),
(717,637,qs),
(665,637,o),
(624,609,q),
(563,675,o)
);
},
{
closed = 1;
nodes = (
(689,453,q),
(688,500,o),
(668,543,q),
(678,561,o),
(694,572,qs),
(707,580,o),
(717,580,qs),
(737,580,o),
(754,561,qs),
(776,538,o),
(776,504,qs),
(776,501,o),
(776,497,qs),
(772,461,o),
(745,442,qs),
(734,434,o),
(723,434,qs),
(706,434,o)
);
},
{
closed = 1;
nodes = (
(371,227,o),
(400,227,qs),
(409,227,o),
(420,224,q),
(420,123,l),
(414,113,o),
(405,106,q),
(389,97,o),
(383,96,q),
(365,96,o),
(350,114,q),
(350,216,l)
);
},
{
closed = 1;
nodes = (
(249,105,o),
(225,94,o),
(211,94,o),
(203,96,q),
(177,106,o),
(166,137,qs),
(162,149,o),
(162,161,qs),
(162,181,o),
(174,200,qs),
(189,225,o),
(213,231,qs),
(219,232,o),
(224,232,qs),
(241,232,o),
(258,220,q),
(258,114,l)
);
}
);
};
backgroundImage = {
imagePath = "../../../../nka.png";
pos = (-702,6);
scale = (8.7917,8.7917);
};
layerId = m01;
shapes = (
{
closed = 1;
nodes = (
(646,488,l),
(599,596,o),
(492,673,o),
(347,673,cs),
(169,673,o),
(62,535,o),
(62,424,cs),
(62,351,o),
(105,284,o),
(186,255,c),
(221,302,l),
(160,317,o),
(132,368,o),
(132,424,cs),
(132,511,o),
(215,617,o),
(347,617,cs),
(462,617,o),
(549,550,o),
(591,461,c)
);
},
{
closed = 1;
nodes = (
(304,238,l),
(289,277,o),
(250,303,o),
(208,303,cs),
(155,303,o),
(103,262,o),
(103,205,cs),
(103,148,o),
(154,106,o),
(208,106,cs),
(251,106,o),
(289,132,o),
(304,171,c)
);
},
{
closed = 1;
nodes = (
(183,163,o),
(165,181,o),
(165,205,cs),
(165,228,o),
(183,246,o),
(208,246,cs),
(234,246,o),
(252,228,o),
(252,205,cs),
(252,181,o),
(234,163,o),
(208,163,cs)
);
},
{
closed = 1;
nodes = (
(322,164,o),
(305,181,o),
(305,205,cs),
(305,228,o),
(322,245,o),
(347,245,cs),
(372,245,o),
(390,228,o),
(390,205,cs),
(390,181,o),
(372,164,o),
(347,164,cs)
);
},
{
closed = 1;
nodes = (
(444,240,l),
(428,277,o),
(387,301,o),
(347,301,cs),
(305,301,o),
(268,275,o),
(253,235,c),
(253,174,l),
(268,134,o),
(304,108,o),
(347,108,cs),
(388,108,o),
(428,132,o),
(444,169,c)
);
},
{
closed = 1;
nodes = (
(393,173,l),
(391,1,l),
(457,1,l),
(459,208,ls),
(459,230,o),
(469,245,o),
(489,245,cs),
(509,245,o),
(519,230,o),
(519,208,cs),
(517,1,l),
(583,1,l),
(585,208,ls),
(585,262,o),
(549,301,o),
(489,301,cs),
(430,301,o),
(398,267,o),
(391,224,c)
);
},
{
closed = 1;
nodes = (
(721,366,o),
(779,395,o),
(791,450,cs),
(803,506,o),
(755,545,o),
(709,567,cs),
(683,580,o),
(593,528,o),
(587,494,cs),
(577,436,o),
(617,388,o),
(669,377,cs)
);
},
{
closed = 1;
nodes = (
(664,435,o),
(648,456,o),
(656,479,cs),
(660,490,o),
(690,512,o),
(698,509,cs),
(715,503,o),
(727,488,o),
(722,465,cs),
(717,441,o),
(697,428,o),
(680,432,cs)
);
}
);
width = 855;
}
);
note = or_ng_ka;
}
{
glyphname = or_b_ikaar;
layers = (
{
backgroundImage = {
imagePath = "../../../../bi.png";
pos = (-30,0);
};
layerId = m01;
shapes = (
{
closed = 1;
nodes = (
(209,252,o),
(247,288,o),
(301,288,cs),
(360,288,o),
(402,252,o),
(402,201,cs),
(402,147,o),
(360,109,o),
(301,109,cs),
(247,109,o),
(209,147,o),
(209,201,cs)
);
},
{
closed = 1;
nodes = (
(404,118,l),
(412,-11,l),
(469,-11,l),
(471,201,l),
(471,206,o),
(465,217,o),
(460,217,cs),
(408,215,l)
);
},
{
closed = 1;
nodes = (
(408,97,l),
(401,134,l),
(379,96,l),
(384,93,l),
(399,96,l)
);
},
{
closed = 1;
nodes = (
(174,289,ls),
(152,270,o),
(136,226,o),
(136,197,cs),
(136,114,o),
(202,56,o),
(297,56,cs),
(347,56,o),
(388,77,o),
(413,108,cs),
(439,140,o),
(471,157,o),
(471,201,cs),
(471,288,o),
(401,344,o),
(301,344,cs),
(286,344,o),
(261,344,o),
(235,342,c)
);
},
{
closed = 1;
nodes = (
(150,254,l),
(184,265,l),
(143,280,l),
(141,274,l),
(147,260,l)
);
},
{
closed = 1;
nodes = (
(267,316,l),
(267,342,l),
(239,342,ls),
(191,342,o),
(129,331,o),
(118,351,cs),
(94,395,o),
(170,426,o),
(219,440,cs),
(246,448,l),
(227,502,l),
(199,494,ls),
(142,478,o),
(5,429,o),
(65,318,cs),
(95,262,o),
(164,273,o),
(223,271,c)
);
},
{
closed = 1;
nodes = (
(121,482,o),
(135,537,o),
(154,554,cs),
(178,577,o),
(216,614,o),
(309,614,cs),
(499,614,o),
(555,459,o),
(555,315,cs),
(550,225,o),
(551,236,o),
(561,144,c),
(619,151,l),
(615,185,ls),
(610,223,o),
(625,269,o),
(625,314,cs),
(625,559,o),
(481,680,o),
(309,680,cs),
(238,680,o),
(161,652,o),
(112,603,cs),
(59,550,o),
(56,458,o),
(84,425,cs),
(105,400,l),
(154,437,l),
(136,461,ls)
);
}
);
width = 675;
}
);
note = or_b_ikaar;
}
{
glyphname = or_c_ikaar;
layers = (
{
background = {
shapes = (
{
closed = 1;
nodes = (
(680,91,ls),
(716,207,o),
(716,317,qs),
(716,445,o),
(663,532,qs),
(629,588,o),
(576,623,qs),
(494,679,o),
(378,679,qs),
(324,679,o),
(260,667,qs),
(94,635,o),
(54,555,qs),
(43,534,o),
(43,512,qs),
(43,471,o),
(79,439,qs),
(96,423,o),
(120,412,q),
(57,371,o),
(14,307,qs),
(5,295,l),
(15,283,ls),
(79,203,o),
(151,189,q),
(123,152,o),
(123,109,qs),
(123,81,o),
(136,56,qs),
(158,13,o),
(211,-11,qs),
(261,-32,o),
(317,-32,qs),
(377,-32,o),
(430,-7,qs),
(473,12,o),
(497,43,qs),
(527,80,o),
(527,124,qs),
(527,165,o),
(504,196,qs),
(466,247,o),
(401,261,qs),
(385,264,o),
(357,266,o),
(324,266,o),
(293,262,qs),
(284,261,o),
(244,255,o),
(208,247,qs),
(193,244,o),
(185,244,qs),
(166,244,o),
(140,265,qs),
(123,279,o),
(107,297,q),
(161,367,o),
(239,401,qs),
(287,421,o),
(338,424,q),
(335,482,l),
(329,481,ls),
(259,477,o),
(195,452,q),
(170,458,o),
(155,472,qs),
(135,489,o),
(135,512,qs),
(135,525,o),
(142,538,qs),
(159,572,o),
(214,592,qs),
(248,604,o),
(338,622,o),
(403,622,o),
(425,618,qs),
(471,610,o),
(549,557,o),
(577,512,qs),
(624,434,o),
(624,317,qs),
(624,213,o),
(589,102,q),
(675,75,l)
);
},
{
closed = 1;
nodes = (
(251,43,q),
(215,67,o),
(215,151,o),
(249,181,qs),
(270,199,o),
(295,203,qs),
(296,203,o),
(332,208,o),
(347,208,qs),
(368,208,o),
(383,203,qs),
(403,195,o),
(420,172,qs),
(435,152,o),
(435,124,qs),
(435,85,o),
(401,54,qs),
(392,47,o),
(373,38,qs),
(362,32,o),
(335,26,o),
(320,25,o),
(314,25,qs),
(290,25,o),
(264,36,q),
(257,40,o)
);
}
);
};
layerId = m01;
shapes = (
{
closed = 1;
nodes = (
(239,194,o),
(277,232,o),
(331,232,cs),
(393,232,o),
(436,194,o),
(436,141,cs),
(436,87,o),
(393,49,o),
(331,49,cs),
(277,49,o),
(239,87,o),
(239,141,cs)
);
},
{
closed = 1;
nodes = (
(196,222,l),
(178,197,o),
(170,157,o),
(170,141,cs),
(170,62,o),
(241,0,o),
(331,0,cs),
(435,0,o),
(501,54,o),
(501,141,cs),
(501,223,o),
(431,277,o),
(331,277,cs),
(297,277,o),
(258,273,o),
(228,273,c)
);
},
{
closed = 1;
nodes = (
(186,203,l),
(211,217,l),
(176,228,l),
(174,222,l),
(182,209,l)
);
},
{
closed = 1;
nodes = (
(161,429,o),
(5,379,o),
(63,274,cs),
(89,228,o),
(176,217,o),
(237,217,cs),
(265,217,l),
(265,273,l),
(237,273,ls),
(189,273,o),
(139,276,o),
(125,302,cs),
(100,347,o),
(191,376,o),
(238,394,cs),
(265,404,l),
(246,453,l),
(218,445,ls)
);
},
{
closed = 1;
nodes = (
(620,101,l),
(661,175,o),
(688,260,o),
(688,321,cs),
(688,516,o),
(538,672,o),
(345,672,cs),
(230,672,o),
(124,615,o),
(86,528,cs),
(77,506,o),
(72,488,o),
(72,471,cs),
(72,418,o),
(114,381,o),
(179,381,c),
(265,404,l),
(246,453,l),
(196,439,ls),
(185,436,o),
(192,437,o),
(179,437,cs),
(153,437,o),
(142,447,o),
(142,471,cs),
(142,482,o),
(145,494,o),
(150,506,cs),
(180,575,o),
(256,616,o),
(345,616,cs),
(496,616,o),
(618,488,o),
(618,321,cs),
(618,267,o),
(593,191,o),
(559,128,c)
);
}
);
width = 738;
}
);
note = or_c_ikaar;
}
{
glyphname = or_ca_phalaa;
layers = (
{
background = {
shapes = (
{
closed = 1;
nodes = (
(-69,-226,qs),
(-48,-221,o),
(-43,-221,qs),
(-39,-221,o),
(-37,-222,qs),
(-24,-231,o),
(-24,-259,qs),
(-24,-267,o),
(-34,-292,o),
(-43,-302,qs),
(-60,-322,o),
(-81,-322,qs),
(-91,-322,o),
(-102,-316,qs),
(-119,-305,o),
(-127,-286,qs),
(-130,-276,o),
(-130,-265,qs),
(-130,-246,o),
(-118,-233,q),
(-99,-232,o)
);
},
{
closed = 1;
nodes = (
(-221,-283,qs),
(-219,-291,o),
(-216,-299,qs),
(-209,-317,o),
(-197,-332,qs),
(-183,-346,o),
(-166,-357,qs),
(-147,-368,o),
(-126,-374,qs),
(-104,-379,o),
(-81,-380,qs),
(-74,-380,o),
(-60,-379,o),
(-54,-378,qs),
(-27,-372,o),
(-2,-362,q),
(20,-348,o),
(38,-330,qs),
(45,-322,o),
(51,-313,qs),
(56,-304,o),
(60,-294,qs),
(64,-285,o),
(66,-275,qs),
(68,-265,o),
(68,-255,qs),
(68,-251,o),
(68,-243,o),
(67,-239,qs),
(63,-223,o),
(55,-208,q),
(45,-194,o),
(32,-184,qs),
(17,-174,o),
(-1,-169,qs),
(-21,-164,o),
(-41,-163,q),
(-52,-164,o),
(-63,-165,qs),
(-75,-166,o),
(-87,-169,q),
(-90,-169,o),
(-93,-170,qs),
(-99,-171,o),
(-105,-173,qs),
(-112,-174,o),
(-118,-175,qs),
(-122,-176,o),
(-127,-176,qs),
(-128,-176,o),
(-131,-175,o),
(-133,-175,q),
(-135,-174,o),
(-136,-173,qs),
(-142,-169,o),
(-150,-159,o),
(-153,-153,qs),
(-157,-142,o),
(-157,-131,qs),
(-156,-121,o),
(-153,-111,qs),
(-149,-100,o),
(-144,-90,q),
(-131,-73,o),
(-115,-59,q),
(-98,-48,o),
(-78,-41,q),
(-72,-40,o),
(-66,-39,qs),
(-60,-39,o),
(-54,-39,qs),
(-42,-39,o),
(-30,-41,qs),
(-18,-44,o),
(-6,-48,q),
(20,-61,o),
(42,-78,q),
(63,-99,o),
(78,-124,q),
(87,-144,o),
(93,-164,qs),
(97,-185,o),
(98,-207,qs),
(98,-214,o),
(98,-222,qs),
(97,-229,o),
(96,-237,q),
(186,-253,l),
(188,-240,o),
(189,-228,qs),
(190,-217,o),
(191,-207,q),
(190,-180,o),
(184,-155,qs),
(177,-130,o),
(165,-106,q),
(144,-72,o),
(115,-43,q),
(82,-17,o),
(44,0,qs),
(20,9,o),
(-4,14,qs),
(-29,18,o),
(-54,19,qs),
(-68,19,o),
(-83,17,qs),
(-97,15,o),
(-111,12,qs),
(-148,1,o),
(-181,-18,q),
(-209,-40,o),
(-230,-69,q),
(-238,-84,o),
(-244,-101,qs),
(-248,-116,o),
(-249,-132,q),
(-248,-147,o),
(-244,-162,qs),
(-239,-176,o),
(-230,-188,qs),
(-225,-195,o),
(-219,-201,qs),
(-212,-207,o),
(-205,-212,q),
(-213,-224,o),
(-218,-238,qs),
(-222,-252,o),
(-223,-266,q),
(-222,-275,o)
);
}
);
};
layerId = m01;
shapes = (
{
closed = 1;
nodes = (
(-13,-352,o),
(39,-311,o),
(39,-261,cs),
(39,-210,o),
(-13,-171,o),
(-74,-171,cs),
(-136,-171,o),
(-188,-210,o),
(-188,-261,cs),
(-188,-311,o),
(-136,-352,o),
(-74,-352,cs)
);
},
{
closed = 1;
nodes = (
(-102,-302,o),
(-124,-284,o),
(-124,-261,cs),
(-124,-238,o),
(-103,-221,o),
(-74,-221,cs),
(-46,-221,o),
(-25,-238,o),
(-25,-261,cs),
(-25,-284,o),
(-47,-302,o),
(-74,-302,cs)
);
},
{
closed = 1;
nodes = (
(118,-231,l),
(125,-211,o),
(130,-192,o),
(130,-170,cs),
(130,-72,o),
(59,17,o),
(-66,17,cs),
(-172,17,o),
(-234,-80,o),
(-234,-143,cs),
(-234,-192,o),
(-199,-238,o),
(-134,-249,c),
(-97,-202,l),
(-103,-202,ls),
(-148,-202,o),
(-170,-177,o),
(-170,-143,cs),
(-170,-100,o),
(-128,-33,o),
(-66,-33,cs),
(20,-33,o),
(66,-96,o),
(66,-170,cs),
(66,-183,o),
(64,-196,o),
(60,-207,c)
);
}
);
width = 735;
}
);
note = or_ca_phalaa;
}
{
glyphname = or_d_va;
layers = (
{
layerId = m01;
shapes = (
{
closed = 1;
nodes = (
(645,-239,l),
(645,-9,l),
(607,-9,l),
(607,280,l),
(560,280,l),
(552,280,l),
(512,280,l),
(506,256,ls),
(490,187,o),
(451,132,qs),
(428,100,o),
(381,63,o),
(346,50,o),
(334,50,qs),
(324,50,o),
(315,54,q),
(313,57,l),
(311,56,l),
(303,60,o),
(296,67,qs),
(274,90,o),
(274,125,qs),
(274,159,o),
(294,196,qs),
(307,220,o),
(322,239,qs),
(382,308,l),
(325,365,l),
(239,271,ls),
(229,261,o),
(222,261,qs),
(214,261,o),
(202,270,qs),
(181,286,o),
(171,318,qs),
(162,344,o),
(162,406,o),
(171,441,qs),
(188,503,o),
(229,550,qs),
(262,588,o),
(353,631,o),
(400,631,qs),
(488,631,o),
(569,567,qs),
(669,488,o),
(703,358,qs),
(716,306,o),
(716,196,o),
(702,142,q),
(789,119,l),
(792,132,ls),
(808,191,o),
(808,311,o),
(794,367,qs),
(756,512,o),
(642,603,qs),
(533,689,o),
(400,689,qs),
(322,689,o),
(254,657,qs),
(190,627,o),
(148,577,qs),
(100,522,o),
(80,450,qs),
(70,411,o),
(70,338,o),
(80,306,qs),
(96,260,o),
(131,233,qs),
(162,210,o),
(202,205,q),
(182,163,o),
(182,125,qs),
(182,74,o),
(218,37,qs),
(232,22,o),
(251,12,q),
(239,-3,o),
(233,-21,qs),
(227,-39,o),
(227,-77,o),
(234,-95,qs),
(248,-134,o),
(331,-183,o),
(386,-183,qs),
(467,-183,o),
(553,-123,q),
(553,-239,l)
);
},
{
closed = 1;
nodes = (
(407,6,qs),
(467,28,o),
(514,82,q),
(514,-17,l),
(560,-17,l),
(554,-23,ls),
(518,-63,o),
(422,-125,o),
(384,-125,qs),
(368,-125,o),
(352,-116,qs),
(332,-104,o),
(323,-81,qs),
(319,-70,o),
(319,-45,o),
(323,-34,qs),
(329,-17,o),
(340,-7,q),
(373,-7,o)
);
}
);
width = 852;
}
);
note = or_d_va;
}
{
glyphname = or_gha_phalaa;
layers = (
{
layerId = m01;
shapes = (
{
closed = 1;
nodes = (
(22,-11,o),
(-7,-4,qs),
(-52,7,o),
(-92,7,qs),
(-141,7,o),
(-180,-9,qs),
(-226,-27,o),
(-249,-63,qs),
(-265,-89,o),
(-265,-120,qs),
(-265,-130,o),
(-262,-143,q),
(-253,-169,o),
(-231,-187,qs),
(-221,-194,o),
(-209,-199,q),
(-228,-228,o),
(-228,-288,o),
(-212,-307,qs),
(-195,-328,o),
(-165,-337,qs),
(-149,-341,o),
(-131,-341,qs),
(-101,-341,o),
(-75,-329,q),
(-55,-348,o),
(-26,-354,qs),
(-6,-359,o),
(12,-359,qs),
(51,-359,o),
(84,-341,qs),
(98,-334,o),
(108,-324,q),
(143,-324,l),
(143,-18,l),
(51,-18,l),
(51,-22,l)
);
},
{
closed = 1;
nodes = (
(41,-288,o),
(23,-298,qs),
(17,-301,o),
(12,-301,qs),
(2,-301,o),
(-3,-292,qs),
(-5,-287,o),
(-5,-277,o),
(-4,-274,qs),
(9,-242,l),
(18,-220,l),
(-14,-209,l),
(-17,-208,l),
(-64,-192,l),
(-82,-224,l),
(-101,-256,ls),
(-115,-276,o),
(-129,-282,q),
(-136,-275,o),
(-136,-259,qs),
(-136,-255,o),
(-135,-249,qs),
(-131,-227,o),
(-117,-212,qs),
(-93,-188,l),
(-80,-176,l),
(-89,-162,l),
(-90,-161,l),
(-117,-121,l),
(-161,-149,l),
(-173,-137,o),
(-173,-117,qs),
(-173,-100,o),
(-163,-84,qs),
(-132,-35,o),
(-41,-58,qs),
(4,-69,o),
(51,-92,q),
(51,-262,l),
(49,-267,ls)
);
}
);
width = 0;
}
);
note = or_gha_phalaa;
}
{
glyphname = or_h_iikaar;
layers = (
{
backgroundImage = {
imagePath = "../../../../dii.png";
pos = (10,0);
scale = (4.1919,4.1919);
};
layerId = m01;
shapes = (
{
closed = 1;
nodes = (
(294,-10,l),
(296,-11,o),
(298,-19,o),
(305,-47,c),
(435,101,l),
(372,119,l),
(251,-11,ls),
(244,-18,o),
(241,-25,o),
(241,-32,cs),
(241,-43,o),
(250,-53,o),
(264,-60,cs),
(626,-235,l),
(657,-185,l)
);
},
{
closed = 1;
nodes = (
(302,-7,l),
(264,-8,l),
(299,-36,l),
(302,-32,l),
(302,-17,l)
);
},
{
closed = 1;
nodes = (
(484,118,l),
(495,-11,l),
(552,-11,l),
(554,217,l),
(488,215,l)
);
},
{
closed = 1;
nodes = (
(461,99,l),
(451,136,l),
(429,98,l),
(437,95,l),
(449,98,l)
);
},
{
closed = 1;
nodes = (
(235,302,l),
(216,281,o),
(206,236,o),
(206,207,cs),
(206,124,o),
(272,66,o),
(367,66,cs),
(417,66,o),
(466,89,o),
(493,118,cs),
(522,150,o),
(554,167,o),
(554,211,cs),
(554,302,l),
(498,292,l),
(497,281,o),
(486,228,o),
(481,212,cs),
(465,160,o),
(441,120,o),
(372,120,cs),
(318,120,o),
(275,157,o),
(275,211,cs),
(275,257,o),
(286,247,o),
(371,276,c),
(367,314,l)
);
},
{
closed = 1;
nodes = (
(198,279,l),
(232,290,l),
(191,305,l),
(189,299,l),
(195,285,l)
);
},
{
closed = 1;
nodes = (
(256,298,l),
(215,307,o),
(190,320,o),
(169,339,cs),
(158,349,o),
(140,381,o),
(140,408,cs),
(140,525,o),
(210,615,o),
(330,615,cs),
(442,615,o),
(489,497,o),
(492,435,c),
(548,435,l),
(554,518,o),
(615,603,o),
(650,608,cs),
(665,610,o),
(676,600,o),
(679,575,c),
(679,17,l),
(749,17,l),
(749,577,l),
(749,640,o),
(686,675,o),
(624,660,cs),
(549,644,o),
(496,508,o),
(494,485,c),
(548,485,l),
(547,513,o),
(496,671,o),
(330,671,cs),
(169,671,o),
(70,554,o),
(70,408,cs),
(70,382,o),
(82,333,o),
(123,297,cs),
(147,276,o),
(177,258,o),
(229,246,c)
);
}
);
width = 819;
}
);
note = or_h_iikaar;
}
{
glyphname = or_h_va;
layers = (
{
layerId = m01;
shapes = (
{
closed = 1;
nodes = (
(373,-227,l),
(410,-250,o),
(439,-280,qs),
(463,-304,l),
(518,-250,l),
(484,-214,o),
(440,-188,q),
(130,38,l),
(243,147,l),
(254,139,o),
(267,134,q),
(251,110,o),
(246,82,qs),
(245,71,o),
(245,61,qs),
(245,28,o),
(260,-2,qs),
(287,-53,o),
(348,-75,qs),
(381,-87,o),
(449,-87,o),
(478,-79,qs),
(500,-73,o),
(519,-63,q),
(519,-134,l),
(611,-134,l),
(611,364,l),
(565,364,l),
(556,364,l),
(521,364,l),
(512,343,ls),
(467,242,o),
(396,196,qs),
(365,176,o),
(340,176,q),
(340,176,o),
(340,176,o),
(340,176,q),
(315,177,o),
(297,199,qs),
(278,221,o),
(278,254,qs),
(278,273,o),
(293,311,o),
(308,327,qs),
(370,397,l),
(313,454,l),
(226,360,ls),
(217,350,o),
(211,350,qs),
(205,350,o),
(198,356,q),
(180,368,o),
(172,393,qs),
(167,408,o),
(167,425,qs),
(167,451,o),
(178,477,qs),
(194,515,o),
(230,547,qs),
(295,603,o),
(380,612,qs),
(392,613,o),
(404,613,qs),
(499,613,o),
(578,549,qs),
(669,474,o),
(704,344,qs),
(720,283,o),
(720,146,o),
(700,78,q),
(786,52,l),
(790,67,ls),
(812,141,o),
(812,287,o),
(795,354,qs),
(756,498,o),
(545,671,o),
(404,671,qs),
(385,671,o),
(366,669,qs),
(242,657,o),
(155,581,qs),
(109,540,o),
(89,492,qs),
(75,458,o),
(75,425,qs),
(75,402,o),
(82,381,qs),
(95,341,o),
(130,317,qs),
(157,298,o),
(192,294,q),
(186,274,o),
(186,254,qs),
(186,227,o),
(194,205,q),
(31,49,l),
(31,41,l),
(31,32,l),
(31,22,l)
);
},
{
closed = 1;
nodes = (
(338,76,qs),
(342,101,o),
(358,119,q),
(412,124,o),
(462,156,qs),
(492,176,o),
(519,203,q),
(519,35,l),
(516,35,l),
(503,18,ls),
(478,-16,o),
(440,-26,qs),
(429,-29,o),
(406,-29,o),
(394,-25,qs),
(364,-14,o),
(348,16,qs),
(337,37,o),
(337,61,qs),
(337,68,o)
);
}
);
width = 875;
}
);
note = or_h_va;
}
{
glyphname = or_k_ss_i;
layers = (
{
layerId = m01;
shapes = (
{
closed = 1;
nodes = (
(265,195,q),
(255,170,o),
(255,142,qs),
(255,110,o),
(268,80,qs),
(284,43,o),
(317,15,qs),
(357,-18,o),
(411,-31,qs),
(443,-39,o),
(478,-39,qs),
(588,-39,o),
(696,39,qs),
(712,50,o),
(727,63,q),
(727,-5,l),
(820,-5,l),
(820,190,l),
(855,163,l),
(899,221,l),
(820,281,l),
(820,692,l),
(727,692,l),
(727,627,l),
(701,644,o),
(671,658,qs),
(603,687,o),
(528,687,qs),
(505,687,o),
(482,684,qs),
(383,671,o),
(313,609,qs),
(270,570,o),
(252,523,qs),
(243,496,o),
(243,441,o),
(252,418,qs),
(278,351,o),
(370,312,q),
(339,304,o),
(308,293,qs),
(247,271,o),
(200,237,qs),
(110,172,o),
(70,70,qs),
(65,57,l),
(78,46,ls),
(97,30,o),
(152,30,o),
(171,43,qs),
(190,55,o),
(190,76,qs),
(190,89,o),
(181,100,q),
(214,157,o)
);
},
{
closed = 1;
nodes = (
(618,610,qs),
(684,582,o),
(727,521,q),
(727,351,l),
(410,593,l),
(451,621,o),
(501,628,qs),
(515,630,o),
(528,630,qs),
(574,630,o)
);
},
{
closed = 1;
nodes = (
(310,941,qs),
(238,901,o),
(191,839,qs),
(154,790,o),
(134,732,q),
(218,703,l),
(224,720,ls),
(242,771,o),
(274,815,qs),
(313,866,o),
(429,930,o),
(492,930,qs),
(538,930,o),
(582,911,qs),
(638,887,o),
(676,837,qs),
(720,782,o),
(726,711,qs),
(727,706,l),
(818,714,l),
(811,797,o),
(759,862,qs),
(711,926,o),
(634,959,qs),
(567,988,o),
(492,988,qs),
(394,988,o)
);
},
{
closed = 1;
nodes = (
(727,172,l),
(683,117,o),
(627,77,qs),
(546,19,o),
(478,19,qs),
(428,19,o),
(392,49,qs),
(368,69,o),
(347,118,o),
(347,142,qs),
(347,192,o),
(390,233,qs),
(418,259,o),
(468,280,qs),
(472,282,o),
(499,292,q),
(499,308,l),
(499,315,l),
(499,333,l),
(474,341,ls),
(414,361,o),
(389,377,qs),
(335,411,o),
(335,469,qs),
(335,489,o),
(342,510,qs),
(348,526,o),
(358,541,q),
(727,261,l)
);
}
);
width = 957;
}
);
note = or_k_ss_i;
}
{
glyphname = or_kh_r_ii;
layers = (
{
layerId = m01;
shapes = (
{
closed = 1;
nodes = (
(392,208,qs),
(396,208,o),
(399,208,qs),
(429,208,o),
(447,197,qs),
(456,192,o),
(464,183,q),
(464,182,l),
(484,164,o),
(487,136,qs),
(488,130,o),
(488,124,qs),
(488,103,o),
(477,83,qs),
(461,54,o),
(429,39,qs),
(398,25,o),
(370,25,qs),
(348,25,o),
(324,34,qs),
(309,39,o),
(298,48,qs),
(284,59,o),
(277,74,qs),
(268,90,o),
(268,109,qs),
(268,110,o),
(268,111,qs),
(269,130,o),
(278,149,qs),
(298,190,o),
(338,199,q),
(337,201,l),
(378,208,o)
);
},
{
closed = 1;
nodes = (
(305,580,qs),
(299,559,o),
(299,537,qs),
(299,520,o),
(303,503,qs),
(311,463,o),
(339,432,qs),
(370,397,o),
(418,384,qs),
(444,377,o),
(471,377,qs),
(497,377,o),
(523,383,qs),
(565,394,o),
(602,422,q),
(601,-65,l),
(599,-80,o),
(591,-94,qs),
(578,-115,o),
(551,-128,qs),
(511,-146,o),
(454,-146,qs),
(140,-146,ls),
(134,-146,o),
(129,-146,qs),
(114,-146,o),
(100,-148,qs),
(83,-151,o),
(65,-157,q),
(109,-208,l),
(117,-205,o),
(124,-204,qs),
(127,-203,o),
(129,-203,qs),
(130,-203,o),
(131,-204,q),
(134,-204,l),
(137,-204,l),
(454,-204,ls),
(541,-204,o),
(606,-174,q),
(606,-174,l),
(655,-151,o),
(677,-114,q),
(677,-114,l),
(690,-92,o),
(693,-68,qs),
(693,-67,l),
(693,-66,l),
(694,518,l),
(702,529,l),
(783,638,ls),
(801,662,o),
(825,666,q),
(825,3,l),
(917,3,l),
(917,679,l),
(917,688,l),
(908,696,l),
(893,710,l),
(884,717,l),
(870,720,ls),
(851,724,o),
(832,724,qs),
(818,724,o),
(804,722,qs),
(803,722,ls),
(736,711,o),
(699,662,qs),
(695,656,l),
(695,692,l),
(603,692,l),
(602,550,l),
(578,501,o),
(543,469,qs),
(515,444,o),
(487,436,qs),
(479,434,o),
(464,434,o),
(456,436,qs),
(436,442,o),
(419,460,qs),
(400,481,o),
(394,511,qs),
(391,524,o),
(391,537,qs),
(391,554,o),
(396,571,qs),
(412,632,o),
(466,660,qs),
(483,669,l),
(483,682,l),
(483,685,l),
(483,725,l),
(423,713,ls),
(314,691,o),
(226,625,qs),
(104,533,o),
(72,409,qs),
(63,377,o),
(63,348,qs),
(63,327,o),
(68,307,qs),
(81,246,o),
(130,213,qs),
(153,197,o),
(183,191,q),
(183,191,l),
(193,189,o),
(203,188,q),
(195,177,o),
(190,166,qs),
(177,139,o),
(176,112,qs),
(176,110,o),
(176,109,qs),
(176,81,o),
(189,56,qs),
(201,31,o),
(225,12,qs),
(248,-6,o),
(279,-17,qs),
(324,-32,o),
(370,-32,qs),
(428,-32,o),
(483,-8,qs),
(539,18,o),
(564,64,qs),
(580,93,o),
(580,124,qs),
(580,133,o),
(579,141,qs),
(574,183,o),
(542,213,q),
(529,228,o),
(511,239,qs),
(466,266,o),
(399,266,qs),
(392,266,o),
(385,266,qs),
(356,264,o),
(284,252,qs),
(253,247,o),
(238,245,qs),
(230,244,o),
(217,244,o),
(213,245,qs),
(205,247,o),
(197,252,qs),
(169,272,o),
(159,315,qs),
(156,331,o),
(156,348,qs),
(156,373,o),
(163,400,qs),
(191,508,o),
(298,589,qs),
(304,593,o),
(310,598,q),
(307,589,o)
);
}
);
width = 987;
}
);
note = or_kh_r_ii;
}
{
glyphname = or_la_phalaa;
layers = (
{
layerId = m01;
shapes = (
{
closed = 1;
nodes = (
(61,-69,o),
(17,-16,o),
(-21,-4,qs),
(-44,4,o),
(-86,4,o),
(-102,0,qs),
(-135,-7,o),
(-158,-26,q),
(-195,4,o),
(-251,4,qs),
(-273,4,o),
(-296,-4,qs),
(-333,-16,o),
(-377,-69,o),
(-381,-102,q),
(-381,-277,l),
(-289,-277,l),
(-289,-104,l),
(-286,-85,o),
(-265,-59,o),
(-253,-55,qs),
(-250,-54,o),
(-247,-54,qs),
(-239,-54,o),
(-229,-64,qs),
(-214,-79,o),
(-213,-101,qs),
(-204,-249,l),
(-159,-249,l),
(-157,-249,l),
(-113,-249,l),
(-104,-101,ls),
(-103,-79,o),
(-88,-64,qs),
(-78,-54,o),
(-69,-54,qs),
(-67,-54,o),
(-63,-55,qs),
(-52,-59,o),
(-30,-85,o),
(-27,-104,q),
(-28,-304,l),
(-16,-312,ls),
(90,-384,o),
(212,-426,qs),
(229,-432,o),
(268,-444,q),
(286,-385,l),
(168,-349,o),
(64,-281,q),
(65,-102,l)
);
}
);
width = 0;
}
);
note = or_la_phalaa;
}
{
glyphname = or_m_ma;
layers = (
{
layerId = m01;
shapes = (
{
closed = 1;
nodes = (
(182,283,q),
(195,293,o),
(233,311,qs),
(260,323,o),
(293,341,qs),
(315,353,o),
(357,373,o),
(388,382,qs),
(494,407,l),
(493,427,l),
(493,433,l),
(492,469,l),
(437,461,ls),
(366,451,o),
(295,452,q),
(260,467,o),
(240,497,qs),
(223,521,o),
(223,571,o),
(236,591,qs),
(261,630,o),
(325,641,qs),
(348,645,o),
(372,645,qs),
(445,645,o),
(510,610,q),
(510,336,l),
(448,334,o),
(392,307,qs),
(336,280,o),
(308,237,qs),
(287,204,o),
(287,168,qs),
(287,120,o),
(324,86,qs),
(338,74,o),
(356,66,q),
(318,45,o),
(259,7,o),
(234,-35,o),
(234,-55,qs),
(234,-70,o),
(240,-83,qs),
(251,-104,o),
(275,-116,qs),
(282,-120,l),
(299,-122,o),
(324,-122,o),
(352,-112,o),
(361,-103,qs),
(376,-89,o),
(376,-69,qs),
(376,-61,o),
(373,-53,qs),
(366,-33,o),
(347,-20,q),
(367,-5,o),
(431,30,qs),
(477,55,o),
(525,72,q),
(571,80,l),
(604,87,l),
(604,109,l),
(604,115,l),
(603,149,l),
(549,143,ls),
(474,134,o),
(401,118,q),
(379,136,o),
(379,168,qs),
(379,193,o),
(394,216,qs),
(412,244,o),
(486,279,o),
(526,279,qs),
(583,279,o),
(632,244,q),
(632,-74,l),
(724,-74,l),
(724,316,l),
(638,316,l),
(621,323,o),
(603,328,q),
(603,683,l),
(510,683,l),
(510,680,l),
(445,703,o),
(372,703,qs),
(336,703,o),
(301,697,qs),
(233,685,o),
(191,654,qs),
(166,636,o),
(150,612,qs),
(131,582,o),
(131,548,qs),
(131,509,o),
(156,474,qs),
(191,423,o),
(259,398,q),
(249,393,o),
(212,373,o),
(195,365,o),
(147,342,o),
(130,333,qs),
(96,312,o),
(81,288,qs),
(70,269,o),
(70,249,qs),
(70,234,o),
(77,220,qs),
(87,199,o),
(111,187,qs),
(118,184,l),
(135,181,o),
(160,181,o),
(188,192,o),
(197,200,qs),
(212,215,o),
(212,234,qs),
(212,243,o),
(209,251,qs),
(202,271,o)
);
}
);
width = 783;
}
);
note = or_m_ma;
}
{
glyphname = or_n_iikaar.alt;
layers = (
{
layerId = m01;
shapes = (
{
closed = 1;
nodes = (
(280,121,qs),
(276,125,l),
(322,201,o),
(411,246,qs),
(444,263,o),
(480,274,q),
(480,-15,l),
(572,-15,l),
(572,310,l),
(565,317,l),
(555,328,l),
(537,346,l),
(504,340,ls),
(424,327,o),
(352,291,qs),
(310,269,o),
(277,243,q),
(214,226,l),
(202,227,o),
(173,240,o),
(158,256,qs),
(139,278,o),
(120,336,o),
(120,393,o),
(124,419,qs),
(133,466,o),
(180,547,o),
(213,573,qs),
(260,610,o),
(311,610,qs),
(355,610,o),
(394,581,qs),
(425,557,o),
(445,522,qs),
(461,493,o),
(468,461,qs),
(473,435,l),
(514,435,l),
(521,435,l),
(567,435,l),
(567,465,o),
(567,465,q),
(567,489,o),
(572,512,qs),
(583,565,o),
(615,598,qs),
(641,625,o),
(671,629,q),
(671,-15,l),
(763,-15,l),
(763,655,l),
(756,662,l),
(749,669,l),
(741,677,l),
(728,680,ls),
(703,687,o),
(677,687,qs),
(593,687,o),
(536,628,qs),
(516,607,o),
(503,582,q),
(486,602,o),
(465,618,qs),
(428,646,o),
(384,658,qs),
(349,668,o),
(280,668,o),
(250,661,qs),
(190,648,o),
(141,609,qs),
(55,542,o),
(33,426,qs),
(27,397,o),
(27,370,qs),
(27,330,o),
(52,257,o),
(102,202,o),
(133,187,qs),
(167,171,o),
(205,168,q),
(193,152,o),
(184,135,qs),
(153,81,o),
(146,19,qs),
(143,-5,l),
(181,-11,ls),
(190,-13,o),
(200,-13,qs),
(230,-13,o),
(280,14,o),
(292,38,qs),
(300,53,o),
(300,70,qs),
(300,99,o)
);
}
);
width = 816;
}
);
note = or_n_iikaar.alt;
}
{
glyphname = or_n_t_ikaar;
layers = (
{
layerId = m01;
shapes = (
{
closed = 1;
nodes = (
(615,43,q),
(659,-52,l),
(738,-16,l),
(705,55,l),
(703,67,o),
(703,79,qs),
(703,104,o),
(713,125,qs),
(729,156,o),
(757,167,qs),
(767,171,o),
(775,171,qs),
(790,171,o),
(804,158,qs),
(827,136,o),
(827,99,qs),
(827,76,o),
(817,53,qs),
(800,14,o),
(745,-28,qs),
(656,-96,o),
(443,-167,o),
(334,-167,qs),
(288,-167,o),
(230,-159,q),
(221,-217,l),
(277,-225,o),
(334,-225,qs),
(466,-225,o),
(716,-141,o),
(816,-64,qs),
(883,-13,o),
(906,37,qs),
(919,68,o),
(919,99,qs),
(919,154,o),
(881,190,qs),
(852,217,o),
(810,225,q),
(810,230,o),
(810,235,qs),
(810,304,o),
(793,370,qs),
(765,477,o),
(699,557,qs),
(626,646,o),
(522,686,qs),
(452,712,o),
(378,712,qs),
(329,712,o),
(283,700,qs),
(162,670,o),
(95,576,qs),
(71,542,o),
(71,513,qs),
(71,485,o),
(91,463,qs),
(117,433,o),
(166,424,q),
(81,368,o),
(43,275,qs),
(39,264,l),
(48,254,ls),
(84,213,o),
(137,193,qs),
(171,179,o),
(208,176,q),
(202,167,o),
(196,157,qs),
(163,102,o),
(157,39,qs),
(155,15,l),
(192,10,ls),
(202,8,o),
(211,8,qs),
(241,8,o),
(292,35,o),
(304,58,qs),
(312,74,o),
(312,91,qs),
(312,120,o),
(292,142,qs),
(288,146,l),
(329,206,o),
(410,246,qs),
(444,262,o),
(480,273,q),
(480,-4,l),
(572,-4,l),
(572,310,l),
(565,317,l),
(555,328,l),
(536,346,l),
(503,340,ls),
(424,326,o),
(353,291,qs),
(308,269,o),
(272,241,q),
(244,233,ls),
(238,232,o),
(232,232,qs),
(208,232,o),
(160,252,o),
(138,273,q),
(158,317,o),
(193,351,qs),
(240,398,o),
(301,415,qs),
(328,422,l),
(328,441,l),
(328,453,l),
(328,488,l),
(273,481,ls),
(243,477,o),
(215,477,qs),
(194,477,o),
(177,485,o),
(172,491,qs),
(163,500,o),
(163,513,qs),
(163,529,o),
(179,552,qs),
(231,625,o),
(318,647,qs),
(347,654,o),
(378,654,qs),
(426,654,o),
(474,636,qs),
(556,605,o),
(676,459,o),
(702,361,qs),
(718,299,o),
(718,235,qs),
(718,227,o),
(718,220,q),
(713,218,o),
(708,216,qs),
(651,194,o),
(626,143,qs),
(610,113,o),
(610,79,qs),
(610,61,o)
);
}
);
width = 947;
}
);
note = or_n_t_ikaar;
}
{
glyphname = or_n_tha;
layers = (
{
layerId = m01;
shapes = (
{
closed = 1;
nodes = (
(663,189,l)
);
},
{
closed = 1;
nodes = (
(601,330,l),
(583,348,l),
(550,342,ls),
(470,328,o),
(399,293,qs),
(349,268,o),
(311,236,q),
(259,224,l),
(227,238,o),
(203,268,qs),
(162,320,o),
(162,391,qs),
(162,438,o),
(202,531,o),
(279,605,o),
(371,642,o),
(422,642,qs),
(489,642,o),
(604,579,o),
(644,523,qs),
(701,444,o),
(701,347,qs),
(701,258,o),
(655,184,q),
(727,140,l),
(741,164,ls),
(794,247,o),
(794,347,qs),
(794,457,o),
(728,549,qs),
(681,614,o),
(609,653,qs),
(524,700,o),
(422,700,qs),
(344,700,o),
(212,646,o),
(116,555,o),
(70,446,o),
(70,391,qs),
(70,307,o),
(122,241,qs),
(166,186,o),
(237,166,qs),
(246,164,l),
(244,160,o),
(242,157,qs),
(218,117,o),
(209,72,q),
(170,81,o),
(130,81,qs),
(103,81,o),
(77,77,q),
(86,19,l),
(115,24,o),
(130,24,qs),
(166,24,o),
(200,11,qs),
(217,5,o),
(236,-6,q),
(222,-14,o),
(210,-24,qs),
(166,-62,o),
(166,-115,qs),
(166,-144,o),
(181,-170,qs),
(195,-194,o),
(222,-210,qs),
(256,-231,o),
(347,-231,o),
(386,-206,qs),
(403,-196,o),
(418,-181,q),
(443,-211,o),
(480,-222,qs),
(502,-229,o),
(539,-229,o),
(552,-227,qs),
(585,-221,o),
(631,-186,o),
(658,-137,o),
(658,-107,qs),
(658,-64,o),
(631,-30,qs),
(624,-22,o),
(616,-15,q),
(619,-15,l),
(619,312,l),
(612,319,l)
);
},
{
closed = 1;
nodes = (
(285,-58,qs),
(293,-51,o),
(302,-47,q),
(347,-78,o),
(369,-107,q),
(347,-149,o),
(322,-165,qs),
(310,-173,o),
(300,-173,qs),
(293,-173,o),
(286,-169,qs),
(275,-162,o),
(259,-134,o),
(259,-115,qs),
(259,-80,o)
);
},
{
closed = 1;
nodes = (
(484,-132,qs),
(482,-128,o),
(470,-108,o),
(467,-103,q),
(468,-102,o),
(468,-101,q),
(481,-73,o),
(498,-49,o),
(509,-42,qs),
(516,-38,o),
(521,-38,q),
(521,-38,l),
(524,-38,o),
(529,-40,qs),
(539,-45,o),
(548,-56,qs),
(565,-78,o),
(565,-107,qs),
(565,-127,o),
(549,-158,o),
(531,-172,o),
(525,-172,qs),
(524,-172,o),
(522,-171,qs),
(504,-165,o)
);
},
{
closed = 1;
nodes = (
(329,137,qs),
(370,205,o),
(457,248,qs),
(490,265,o),
(526,275,q),
(526,20,l),
(524,20,o),
(521,20,qs),
(479,20,o),
(445,-1,qs),
(423,-14,o),
(407,-36,q),
(385,-18,o),
(350,5,qs),
(321,24,o),
(296,38,q),
(301,91,o)
);
}
);
width = 852;
}
);
note = or_n_tha;
}
{
category = Mark;
glyphname = or_reph;
layers = (
{
background = {
shapes = (
{
closed = 1;
nodes = (
(263,1156,o),
(246,1143,o),
(148,1112,cs),
(20,1071,o),
(-360,1061,o),
(-360,902,cs),
(-360,789,o),
(-280,742,o),
(-193,703,cs),
(-167,691,l),
(-138,743,l),
(-165,755,ls),
(-238,788,o),
(-290,820,o),
(-290,902,cs),
(-290,1004,o),
(35,1015,o),
(170,1058,cs),
(284,1095,o),
(305,1110,o),
(338,1125,cs),
(365,1137,l),
(336,1189,l),
(310,1177,ls)
);
}
);
};
layerId = m01;
shapes = (
{
closed = 1;
nodes = (
(258,1143,o),
(208,1119,o),
(146,1104,cs),
(-12,1066,o),
(-369,1073,o),
(-369,883,cs),
(-369,787,o),
(-279,718,o),
(-175,694,cs),
(-147,687,l),
(-131,742,l),
(-159,748,ls),
(-236,766,o),
(-299,816,o),
(-299,883,cs),
(-299,1018,o),
(-4,1010,o),
(162,1050,cs),
(235,1067,o),
(304,1099,o),
(356,1152,cs),
(378,1175,l),
(328,1214,l),
(306,1192,ls)
);
}
);
width = 0;
}
);
note = or_reph;
script = oriya;
subCategory = Nonspacing;
}
{
glyphname = or_s_ka;
layers = (
{
background = {
shapes = (
{
closed = 1;
nodes = (
(340,425,qs),
(316,406,l),
(290,391,o),
(262,391,q),
(262,391,l),
(242,392,o),
(201,410,o),
(186,431,qs),
(162,461,o),
(162,501,qs),
(162,528,o),
(186,581,o),
(233,620,o),
(284,635,o),
(308,635,qs),
(353,635,o),
(397,614,qs),
(474,578,o),
(518,501,q),
(518,500,l),
(518,254,l),
(507,251,o),
(498,250,qs),
(488,249,o),
(464,249,o),
(380,259,o),
(354,259,qs),
(302,259,o),
(262,243,q),
(222,246,l),
(383,367,ls),
(384,368,o),
(385,369,q),
(385,369,l),
(412,389,ls),
(430,404,o),
(452,410,q),
(432,469,l),
(409,462,ls),
(370,449,o)
);
},
{
closed = 1;
nodes = (
(695,190,o),
(658,226,qs),
(637,246,o),
(610,255,q),
(610,698,l),
(518,698,l),
(518,620,l),
(488,644,o),
(452,660,qs),
(383,693,o),
(308,693,qs),
(262,693,o),
(173,665,o),
(102,607,o),
(84,568,qs),
(70,536,o),
(70,501,qs),
(70,448,o),
(102,407,qs),
(128,373,o),
(170,353,qs),
(195,342,o),
(223,337,q),
(94,240,l),
(97,227,l),
(100,219,l),
(105,197,l),
(194,190,l),
(193,189,o),
(192,188,qs),
(169,154,o),
(169,114,qs),
(169,86,o),
(180,62,qs),
(194,29,o),
(225,7,qs),
(268,-23,o),
(326,-23,qs),
(382,-23,o),
(433,3,q),
(433,-62,l),
(526,-62,l),
(526,136,l),
(527,149,o),
(532,163,qs),
(540,185,o),
(555,197,qs),
(560,201,o),
(567,204,o),
(567,204,q),
(568,204,ls),
(571,204,o),
(581,195,qs),
(603,173,o),
(603,132,qs),
(603,-60,l),
(695,-60,l),
(695,132,ls)
);
},
{
closed = 1;
nodes = (
(377,49,qs),
(350,34,o),
(328,34,qs),
(309,34,o),
(278,57,o),
(261,94,o),
(261,114,qs),
(261,142,o),
(276,164,qs),
(289,183,o),
(324,202,o),
(354,202,qs),
(371,202,o),
(422,195,qs),
(437,194,o),
(449,193,q),
(445,185,o),
(442,176,qs),
(435,157,o),
(433,137,q),
(433,98,l),
(410,67,o)
);
}
);
};
layerId = m01;
shapes = (
{
closed = 1;
nodes = (
(549,197,l),
(608,197,l),
(608,646,l),
(544,646,l)
);
},
{
closed = 1;
nodes = (
(620,166,l),
(601,210,o),
(552,240,o),
(493,240,cs),
(415,240,o),
(348,191,o),
(348,127,cs),
(348,64,o),
(415,14,o),
(493,14,cs),
(552,14,o),
(601,45,o),
(620,89,c)
);
},
{
closed = 1;
nodes = (
(449,67,o),
(416,93,o),
(416,127,cs),
(416,161,o),
(449,187,o),
(494,187,cs),
(531,187,o),
(560,161,o),
(560,127,cs),
(560,93,o),
(531,67,o),
(494,67,cs)
);
},
{
closed = 1;
nodes = (
(688,-53,l),
(752,-53,l),
(754,146,ls),
(754,198,o),
(717,235,o),
(659,235,cs),
(596,235,o),
(564,194,o),
(564,146,cs),
(562,-53,l),
(625,-53,l),
(627,146,ls),
(627,167,o),
(639,181,o),
(658,181,cs),
(677,181,o),
(690,167,o),
(690,146,cs)
);
},
{
closed = 1;
nodes = (
(567,552,o),
(480,672,o),
(305,672,cs),
(186,672,o),
(52,604,o),
(52,453,cs),
(52,293,o),
(277,224,o),
(435,284,c),
(414,328,l),
(131,164,l),
(131,122,l),
(402,92,l),
(410,148,l),
(201,170,l),
(199,142,l),
(496,314,l),
(473,360,l),
(289,290,o),
(122,339,o),
(122,453,cs),
(122,568,o),
(215,616,o),
(305,616,cs),
(436,616,o),
(513,517,o),
(539,420,cs),
(548,386,l),
(608,401,l),
(599,434,ls)
);
}
);
width = 756;
}
);
note = or_s_ka;
}
{
glyphname = or_s_t_ra;
layers = (
{
layerId = m01;
shapes = (
{
closed = 1;
nodes = (
(360,399,l)
);
},
{
closed = 1;
nodes = (
(360,399,qs),
(342,385,l),
(342,385,l),
(311,366,o),
(277,366,qs),
(254,366,o),
(232,376,qs),
(204,389,o),
(185,415,qs),
(162,447,o),
(162,488,qs),
(162,513,o),
(183,565,o),
(205,587,qs),
(251,631,o),
(315,631,qs),
(355,631,o),
(432,596,o),
(497,533,o),
(516,492,qs),
(517,489,l),
(517,180,l),
(481,164,o),
(453,134,qs),
(449,130,o),
(445,126,q),
(227,200,l),
(433,364,o),
(433,364,q),
(451,378,o),
(473,385,q),
(453,444,l),
(430,436,ls),
(391,424,o)
);
},
{
closed = 1;
nodes = (
(509,81,o),
(532,105,qs),
(545,118,o),
(561,127,q),
(561,-86,l),
(289,9,ls),
(274,15,o),
(247,20,o),
(228,22,q),
(223,-36,l),
(232,-37,o),
(243,-41,qs),
(580,-159,l),
(592,-159,l),
(607,-159,l),
(653,-159,l),
(653,198,l),
(609,198,l),
(609,687,l),
(517,687,l),
(517,619,l),
(487,643,o),
(449,660,qs),
(385,689,o),
(315,689,qs),
(255,689,o),
(204,668,qs),
(161,650,o),
(97,589,o),
(82,550,qs),
(70,520,o),
(70,488,qs),
(70,435,o),
(101,392,qs),
(129,352,o),
(176,330,qs),
(211,314,o),
(249,310,q),
(115,204,l),
(118,191,l),
(121,183,l),
(124,169,l),
(412,72,l),
(402,44,o),
(401,14,q),
(402,5,o),
(407,-1,qs),
(422,-20,o),
(457,-20,qs),
(475,-20,o),
(490,-11,qs),
(510,1,o),
(510,22,qs),
(510,30,o),
(505,38,qs),
(499,48,l)
);
}
);
width = 687;
}
);
note = or_s_t_ra;
}
{
glyphname = or_ss_ka;
layers = (
{
layerId = m01;
shapes = (
{
closed = 1;
nodes = (
(108,275,o),
(109,270,qs),
(113,250,o),
(133,216,o),
(164,186,o),
(203,165,o),
(227,158,qs),
(244,153,o),
(282,148,o),
(302,148,qs),
(322,148,o),
(344,151,qs),
(368,153,o),
(392,158,qs),
(482,176,o),
(561,222,q),
(569,215,l),
(570,132,l),
(560,129,o),
(540,118,o),
(532,111,qs),
(528,108,o),
(522,102,o),
(519,99,q),
(512,99,o),
(506,100,qs),
(499,100,o),
(491,101,qs),
(480,103,o),
(467,105,qs),
(458,106,o),
(435,110,qs),
(398,117,o),
(376,119,qs),
(352,122,o),
(335,122,qs),
(308,122,o),
(285,116,qs),
(262,111,o),
(244,99,qs),
(229,90,o),
(208,67,o),
(201,53,qs),
(196,41,o),
(190,17,o),
(190,4,qs),
(190,-26,o),
(204,-52,qs),
(217,-78,o),
(244,-98,qs),
(269,-117,o),
(300,-126,qs),
(330,-136,o),
(366,-136,qs),
(396,-136,o),
(425,-129,qs),
(456,-122,o),
(483,-108,q),
(483,-183,l),
(575,-183,l),
(579,-92,o),
(579,0,qs),
(579,28,o),
(582,42,qs),
(585,57,o),
(594,67,qs),
(599,72,o),
(605,75,qs),
(612,78,o),
(618,78,qs),
(625,77,o),
(631,73,qs),
(636,70,o),
(640,65,qs),
(647,55,o),
(649,41,qs),
(650,34,o),
(650,19,qs),
(650,-82,o),
(653,-181,q),
(745,-181,l),
(745,10,ls),
(745,41,o),
(736,63,qs),
(726,87,o),
(708,105,qs),
(698,114,o),
(687,121,qs),
(675,128,o),
(662,133,q),
(662,291,l),
(733,253,l),
(765,312,l),
(662,368,l),
(662,716,l),
(570,716,l),
(570,648,l),
(558,657,o),
(544,665,qs),
(531,673,o),
(517,681,qs),
(495,692,o),
(451,707,o),
(430,712,qs),
(414,715,o),
(398,716,qs),
(381,718,o),
(365,718,qs),
(347,718,o),
(330,716,qs),
(312,713,o),
(295,709,qs),
(250,697,o),
(209,671,qs),
(166,643,o),
(127,602,qs),
(112,585,o),
(90,556,o),
(83,542,qs),
(77,529,o),
(70,502,o),
(70,488,qs),
(70,482,o),
(72,471,o),
(73,465,qs),
(79,441,o),
(97,420,qs),
(116,397,o),
(145,383,q),
(126,363,o),
(117,338,qs),
(107,315,o),
(107,292,qs),
(107,286,o)
);
},
{
closed = 1;
nodes = (
(234,599,l),
(303,660,o),
(368,660,qs),
(410,660,o),
(458,636,qs),
(524,602,o),
(570,543,q),
(570,418,l)
);
},
{
closed = 1;
nodes = (
(365,213,qs),
(328,206,o),
(303,206,qs),
(255,206,o),
(226,232,qs),
(200,257,o),
(200,292,qs),
(200,327,o),
(230,360,qs),
(234,364,o),
(246,376,q),
(246,385,l),
(246,392,l),
(246,407,l),
(226,416,ls),
(162,443,o),
(162,488,qs),
(162,507,o),
(172,526,qs),
(177,537,o),
(187,549,q),
(570,341,l),
(570,285,l),
(472,234,o)
);
},
{
closed = 1;
nodes = (
(483,15,qs),
(483,-22,l),
(458,-46,o),
(428,-62,qs),
(394,-78,o),
(366,-78,qs),
(338,-78,o),
(316,-62,qs),
(282,-36,o),
(282,4,qs),
(282,21,o),
(297,51,o),
(308,58,qs),
(316,63,o),
(331,65,o),
(335,65,qs),
(354,65,o),
(412,54,qs),
(449,48,o),
(476,44,q),
(482,44,o),
(488,43,q),
(484,29,o)
);
}
);
width = 780;
}
);
note = or_ss_ka;
}
